RobotoFlexCondensed-Thin.ufo
<glyph name="exclam" format="2">
  <advance width="468"/>
  <unicode hex="0021"/>
  <outline>
    <contour>
      <point x="186.0" y="54.81764705880667" type="curve" smooth="yes"/>
      <point x="186" y="12"/>
      <point x="204" y="-22"/>
      <point x="234.68496732023334" y="-22.0" type="curve" smooth="yes"/>
      <point x="266" y="-22"/>
      <point x="282" y="12"/>
      <point x="281.93660130713334" y="54.81764705880667" type="curve" smooth="yes"/>
      <point x="282" y="97"/>
      <point x="266" y="132"/>
      <point x="234.68496732023334" y="131.63529411761334" type="curve" smooth="yes"/>
      <point x="203" y="132"/>
      <point x="186" y="97"/>
    </contour>
    <contour>
      <point x="215.01699346404666" y="383.1346405228533" type="line"/>
      <point x="252.83660130713335" y="383.1346405228533" type="line"/>
      <point x="256.73660130713336" y="1456.0" type="line"/>
      <point x="211.56666666666666" y="1456.0" type="line"/>
    </contour>
  </outline>
</glyph>
<glyph name="quotedbl" format="2">
  <advance width="530"/>
  <unicode hex="0022"/>
  <outline>
    <contour>
      <point x="105.37099346404668" y="1155.81440522882" type="line"/>
      <point x="159.49596078428002" y="1155.81440522882" type="line"/>
      <point x="164.94996078428" y="1371.8143529411932" type="line"/>
      <point x="164.94996078428" y="1456.0" type="line"/>
      <point x="100.0" y="1456.0" type="line"/>
      <point x="100.0" y="1371.8143529411932" type="line"/>
    </contour>
    <contour>
      <point x="370.3209542483267" y="1155.81440522882" type="line"/>
      <point x="424.36291503275" y="1155.81440522882" type="line"/>
      <point x="429.81691503275" y="1371.8143529411932" type="line"/>
      <point x="429.81691503275" y="1456.0" type="line"/>
      <point x="364.94996078428" y="1456.0" type="line"/>
      <point x="364.94996078428" y="1371.8143529411932" type="line"/>
    </contour>
  </outline>
</glyph>
<glyph name="numbersign" format="2">
  <advance width="1386"/>
  <unicode hex="0023"/>
  <outline>
    <contour>
      <point x="206.31884967321665" y="-20.0" type="line"/>
      <point x="255.4274771241633" y="-20.0" type="line"/>
      <point x="801.0779346404667" y="1413.9084967320234" type="line"/>
      <point x="752.0523137254733" y="1413.9084967320234" type="line"/>
    </contour>
    <contour>
      <point x="645.8056209149934" y="-20.0" type="line"/>
      <point x="696.88156862751" y="-20.0" type="line"/>
      <point x="1242.7613594771467" y="1413.9084967320234" type="line"/>
      <point x="1191.6854117647733" y="1413.9084967320234" type="line"/>
    </contour>
    <contour>
      <point x="46.197647058806666" y="455.81435294119336" type="line"/>
      <point x="1260.2134640522568" y="455.81435294119336" type="line"/>
      <point x="1260.2134640522568" y="512.5939869280934" type="line"/>
      <point x="46.197647058806666" y="512.5939869280934" type="line"/>
    </contour>
    <contour>
      <point x="187.81641830058334" y="881.31450980393" type="line"/>
      <point x="1400.91524183013" y="881.31450980393" type="line"/>
      <point x="1400.91524183013" y="938.09414379083" type="line"/>
      <point x="187.81641830058334" y="938.09414379083" type="line"/>
    </contour>
  </outline>
</glyph>
<glyph name="dollar" format="2">
  <advance width="1153"/>
  <unicode hex="0024"/>
  <outline>
    <contour>
      <point x="170.73529411761334" y="487.47712418297" type="line" smooth="yes"/>
      <point x="171" y="186"/>
      <point x="344" y="15"/>
      <point x="612.99869281048" y="14.90196078428" type="curve" smooth="yes"/>
      <point x="882" y="15"/>
      <point x="1046" y="187"/>
      <point x="1046.4117647058233" y="472.7176470588067" type="curve" smooth="yes"/>
      <point x="1046" y="652"/>
      <point x="915" y="712"/>
      <point x="652.9032679738" y="787.7366013071334" type="curve" smooth="yes"/>
      <point x="334" y="874"/>
      <point x="255" y="868"/>
      <point x="254.84183006535667" y="1062.6418300653568" type="curve" smooth="yes"/>
      <point x="255" y="1257"/>
      <point x="369" y="1379"/>
      <point x="604.1483660131" y="1379.1954248365366" type="curve" smooth="yes"/>
      <point x="832" y="1379"/>
      <point x="951" y="1218"/>
      <point x="950.6549019608434" y="986.9411764705967" type="curve" smooth="yes"/>
      <point x="950.6549019608434" y="972.4575163398835" type="line"/>
      <point x="1015.7437908496368" y="972.4575163398835" type="line"/>
      <point x="1015.7437908496368" y="986.9411764705967" type="line" smooth="yes"/>
      <point x="1016" y="1257"/>
      <point x="853" y="1451"/>
      <point x="603.0816993464333" y="1451.0326797385733" type="curve" smooth="yes"/>
      <point x="345" y="1451"/>
      <point x="191" y="1283"/>
      <point x="191.22026143784666" y="1047.7084967320234" type="curve" smooth="yes"/>
      <point x="191" y="819"/>
      <point x="337" y="774"/>
      <point x="626.02810457511" y="706.9320261438133" type="curve" smooth="yes"/>
      <point x="938" y="636"/>
      <point x="981" y="628"/>
      <point x="983.3228758170301" y="421.42679738559" type="curve" smooth="yes"/>
      <point x="985" y="236"/>
      <point x="852" y="89"/>
      <point x="612.99869281048" y="89.22287581703" type="curve" smooth="yes"/>
      <point x="371" y="89"/>
      <point x="233" y="223"/>
      <point x="233.40718954250332" y="487.47712418297" type="curve" smooth="yes"/>
      <point x="233.40718954250332" y="501.96078431368335" type="line"/>
      <point x="170.73529411761334" y="501.96078431368335" type="line"/>
    </contour>
    <contour>
      <point x="585.6307189542933" y="-100.32679738559" type="line"/>
      <point x="631.0333333333333" y="-100.32679738559" type="line"/>
      <point x="631.0333333333333" y="68.00653594774333" type="line"/>
      <point x="641.45098039214" y="78.00653594774333" type="line"/>
      <point x="641.45098039214" y="653.4901960784567" type="line"/>
      <point x="585.6307189542933" y="653.4901960784567" type="line"/>
    </contour>
    <contour>
      <point x="574.6790849672499" y="653.4901960784567" type="line"/>
      <point x="629.0660130719067" y="653.4901960784567" type="line"/>
      <point x="629.0660130719067" y="1655.67320261441" type="line"/>
      <point x="583.6633986928666" y="1655.67320261441" type="line"/>
      <point x="583.6633986928666" y="1363.1568627451234" type="line"/>
      <point x="574.6790849672499" y="1353.1568627451234" type="line"/>
    </contour>
  </outline>
</glyph>
<glyph name="ampersand" format="2">
  <advance width="1033"/>
  <unicode hex="0026"/>
  <outline>
    <contour>
      <point x="80.0" y="380.0" type="curve" smooth="yes"/>
      <point x="81" y="149"/>
      <point x="210" y="-20"/>
      <point x="433.46690196084336" y="-20.0" type="curve" smooth="yes"/>
      <point x="729" y="-20"/>
      <point x="954" y="280"/>
      <point x="954.3256470588066" y="674.0" type="curve"/>
      <point x="905.1143790850068" y="674.0" type="line"/>
      <point x="905" y="281"/>
      <point x="692" y="33"/>
      <point x="433.46690196084336" y="33.2356339869" type="curve" smooth="yes"/>
      <point x="247" y="33"/>
      <point x="128" y="169"/>
      <point x="127.4166013071333" y="380.98366013071336" type="curve" smooth="yes"/>
      <point x="128" y="536"/>
      <point x="186" y="630"/>
      <point x="395.8879084967966" y="771.1593464052401" type="curve" smooth="yes"/>
      <point x="529.5133333333333" y="866.4923137254733" type="line" smooth="yes"/>
      <point x="627" y="942"/>
      <point x="703" y="1043"/>
      <point x="703.2851764705965" y="1178.2620130719067" type="curve" smooth="yes"/>
      <point x="703" y="1375"/>
      <point x="605" y="1486"/>
      <point x="462.69118954250337" y="1486.0" type="curve" smooth="yes"/>
      <point x="314" y="1486"/>
      <point x="214" y="1364"/>
      <point x="213.88922875822334" y="1158.0326797385733" type="curve" smooth="yes"/>
      <point x="214" y="1037"/>
      <point x="229" y="970"/>
      <point x="372.70167320262004" y="778.5446797385733" type="curve" smooth="yes"/>
      <point x="949.7193725490533" y="0.0" type="line"/>
      <point x="1010.3949019608433" y="0.0" type="line"/>
      <point x="412.56728104570664" y="803.9253594771467" type="line" smooth="yes"/>
      <point x="287" y="973"/>
      <point x="262" y="1052"/>
      <point x="262.03516339869003" y="1158.0326797385733" type="curve" smooth="yes"/>
      <point x="262" y="1323"/>
      <point x="339" y="1433"/>
      <point x="462.69118954250337" y="1432.7643660131" type="curve" smooth="yes"/>
      <point x="582" y="1433"/>
      <point x="648" y="1330"/>
      <point x="648.0752679738" y="1177.77934640524" type="curve" smooth="yes"/>
      <point x="648" y="1051"/>
      <point x="589" y="976"/>
      <point x="490.6087843136833" y="907.6046535947601" type="curve" smooth="yes"/>
      <point x="370.34296732023336" y="819.85898039214" type="line" smooth="yes"/>
      <point x="138" y="667"/>
      <point x="79" y="565"/>
    </contour>
  </outline>
</glyph>
<glyph name="quotesingle" format="2">
  <advance width="272"/>
  <unicode hex="0027"/>
  <outline>
    <contour>
      <point x="104.85032679738" y="1155.4130718954868" type="line"/>
      <point x="166.91895424832666" y="1155.4130718954868" type="line"/>
      <point x="161.81895424832666" y="1372.215686274527" type="line"/>
      <point x="161.81895424832666" y="1456.0" type="line"/>
      <point x="110.03333333333333" y="1456.0" type="line"/>
      <point x="110.03333333333333" y="1372.215686274527" type="line"/>
    </contour>
  </outline>
</glyph>
<glyph name="parenleft" format="2">
  <advance width="550"/>
  <unicode hex="0028"/>
  <outline>
    <contour>
      <point x="540.1581699346434" y="-436.0" type="curve"/>
      <point x="540.1581699346434" y="-431.17124183013" type="line"/>
      <point x="312" y="-344"/>
      <point x="170" y="-118"/>
      <point x="169.75960784308668" y="508.0" type="curve" smooth="yes"/>
      <point x="169.75960784308668" y="532.0" type="line" smooth="yes"/>
      <point x="170" y="1111"/>
      <point x="312" y="1386"/>
      <point x="540.1581699346434" y="1474.0379084967967" type="curve"/>
      <point x="540.1581699346434" y="1476.0" type="line"/>
      <point x="275" y="1390"/>
      <point x="124" y="1063"/>
      <point x="124.0" y="525.0" type="curve" smooth="yes"/>
      <point x="124.0" y="515.0" type="line" smooth="yes"/>
      <point x="124" y="-80"/>
      <point x="275" y="-350"/>
    </contour>
  </outline>
</glyph>
<glyph name="parenright" format="2">
  <advance width="550"/>
  <unicode hex="0029"/>
  <outline>
    <contour>
      <point x="10.111111111063337" y="-436.0" type="line"/>
      <point x="276" y="-349"/>
      <point x="427" y="-80"/>
      <point x="426.84261437904" y="515.0" type="curve" smooth="yes"/>
      <point x="426.84261437904" y="525.0" type="line" smooth="yes"/>
      <point x="427" y="1063"/>
      <point x="276" y="1389"/>
      <point x="10.111111111063337" y="1476.0" type="curve"/>
      <point x="10.111111111063337" y="1465.4379084967968" type="line"/>
      <point x="240" y="1378"/>
      <point x="381" y="1111"/>
      <point x="381.0" y="532.0" type="curve" smooth="yes"/>
      <point x="381.0" y="508.0" type="line" smooth="yes"/>
      <point x="381" y="-118"/>
      <point x="240" y="-339"/>
      <point x="10.111111111063337" y="-426.87124183013" type="curve"/>
    </contour>
  </outline>
</glyph>
<glyph name="asterisk" format="2">
  <advance width="1003"/>
  <unicode hex="002A"/>
  <outline>
    <contour>
      <point x="58.0" y="1132.0448104574966" type="line"/>
      <point x="467.69019607845667" y="1005.4895163398833" type="line"/>
      <point x="214.59528104570668" y="662.3769673202335" type="line"/>
      <point x="247.09823529417667" y="630.6316601307134" type="line"/>
      <point x="501.5731503267833" y="977.4655424836966" type="line"/>
      <point x="756.0480653595333" y="630.6316601307134" type="line"/>
      <point x="789.6176862745266" y="662.3769673202335" type="line"/>
      <point x="535.45610457511" y="1005.4895163398833" type="line"/>
      <point x="945.1463006535666" y="1132.0448104574966" type="line"/>
      <point x="933.0646535947601" y="1185.17043137249" type="line"/>
      <point x="524.2467843136833" y="1049.59814379083" type="line"/>
      <point x="522.9781176470167" y="1476.0" type="line"/>
      <point x="480.16818300655" y="1476.0" type="line"/>
      <point x="479.96618300654995" y="1049.59814379083" type="line"/>
      <point x="70.08164705880665" y="1185.17043137249" type="line"/>
    </contour>
  </outline>
</glyph>
<glyph name="plus" format="2">
  <advance width="1532"/>
  <unicode hex="002B"/>
  <outline>
    <contour>
      <point x="215.59286274512334" y="650.20567320262" type="line"/>
      <point x="1317.0215163398834" y="650.20567320262" type="line"/>
      <point x="1317.0215163398834" y="702.7616470588067" type="line"/>
      <point x="215.59286274512334" y="702.7616470588067" type="line"/>
    </contour>
    <contour>
      <point x="742.4775555556032" y="102.50504575167332" type="line"/>
      <point x="790.1368235294034" y="102.50504575167332" type="line"/>
      <point x="790.1368235294034" y="1245.4949542483266" type="line"/>
      <point x="742.4775555556032" y="1245.4949542483266" type="line"/>
    </contour>
  </outline>
</glyph>
<glyph name="comma" format="2">
  <advance width="466"/>
  <unicode hex="002C"/>
  <outline>
    <contour>
      <point x="171.69667973857332" y="-131.8793202614267" type="curve"/>
      <point x="219.0116470588067" y="-160.85330718952" type="line"/>
      <point x="256" y="-108"/>
      <point x="277" y="-47"/>
      <point x="276.91728104570666" y="42.54332026142667" type="curve" smooth="yes"/>
      <point x="276.91728104570666" y="135.86462745094667" type="line"/>
      <point x="210.0" y="135.86462745094667" type="line"/>
      <point x="210.0" y="42.54332026142667" type="line" smooth="yes"/>
      <point x="210" y="-29"/>
      <point x="199" y="-82"/>
    </contour>
  </outline>
</glyph>
<glyph name="hyphen" format="2">
  <advance width="466"/>
  <unicode hex="002D"/>
  <outline>
    <contour>
      <point x="-9.673202614410002" y="615.4086797385734" type="line"/>
      <point x="474.2876339868999" y="615.4086797385734" type="line"/>
      <point x="474.2876339868999" y="667.10065359476" type="line"/>
      <point x="-9.673202614410002" y="667.10065359476" type="line"/>
    </contour>
  </outline>
</glyph>
<glyph name="period" format="2">
  <advance width="416"/>
  <unicode hex="002E"/>
  <outline>
    <contour>
      <point x="160.0" y="55.084313725473336" type="curve" smooth="yes"/>
      <point x="160" y="13"/>
      <point x="178" y="-22"/>
      <point x="206.85296732023335" y="-22.0" type="curve" smooth="yes"/>
      <point x="238" y="-22"/>
      <point x="255" y="13"/>
      <point x="254.68959477118003" y="55.00130718952" type="curve" smooth="yes"/>
      <point x="255" y="99"/>
      <point x="238" y="133"/>
      <point x="208.90329411761334" y="133.15228758166" type="curve" smooth="yes"/>
      <point x="177" y="133"/>
      <point x="160" y="99"/>
    </contour>
  </outline>
</glyph>
<glyph name="slash" format="2">
  <advance width="492"/>
  <unicode hex="002F"/>
  <outline>
    <contour>
      <point x="-116.23660130713334" y="-125.0" type="line"/>
      <point x="-36.69411764701667" y="-125.0" type="line"/>
      <point x="609.04392156856" y="1456.0" type="line"/>
      <point x="527.3047843136833" y="1456.0" type="line"/>
    </contour>
  </outline>
</glyph>
<glyph name="zero" format="2">
  <advance width="1145"/>
  <unicode hex="0030"/>
  <outline>
    <contour>
      <point x="186.0967320262" y="457.48627450975334" type="line" smooth="yes"/>
      <point x="186" y="140"/>
      <point x="326" y="-30"/>
      <point x="572.1189542483266" y="-30.0" type="curve" smooth="yes"/>
      <point x="820" y="-30"/>
      <point x="959" y="140"/>
      <point x="959.1248366013099" y="457.48627450975334" type="curve" smooth="yes"/>
      <point x="959.1248366013099" y="995.64705882358" type="line" smooth="yes"/>
      <point x="959" y="1313"/>
      <point x="820" y="1486"/>
      <point x="572.1189542483266" y="1486.0" type="curve" smooth="yes"/>
      <point x="326" y="1486"/>
      <point x="186" y="1313"/>
      <point x="186.0967320262" y="995.64705882358" type="curve" smooth="yes"/>
    </contour>
    <contour>
      <point x="233.76666666666665" y="453.2196078430867" type="curve" smooth="yes"/>
      <point x="233.76666666666665" y="995.6137254902467" type="line" smooth="yes"/>
      <point x="234" y="1257"/>
      <point x="353" y="1432"/>
      <point x="572.1189542483266" y="1432.0647058823868" type="curve" smooth="yes"/>
      <point x="791" y="1432"/>
      <point x="912" y="1257"/>
      <point x="912.4385620915567" y="995.6137254902467" type="curve" smooth="yes"/>
      <point x="912.4385620915567" y="453.2196078430867" type="line" smooth="yes"/>
      <point x="912" y="190"/>
      <point x="789" y="24"/>
      <point x="572.1189542483266" y="23.93529411761334" type="curve" smooth="yes"/>
      <point x="355" y="24"/>
      <point x="234" y="190"/>
    </contour>
  </outline>
</glyph>
<glyph name="one" format="2">
  <advance width="1145"/>
  <unicode hex="0031"/>
  <outline>
    <contour>
      <point x="608.4516339869" y="0.0" type="line"/>
      <point x="655.5549019608434" y="0.0" type="line"/>
      <point x="655.5549019608434" y="1476.0" type="line"/>
      <point x="614.6169934640467" y="1476.0" type="line"/>
      <point x="214.72875816987" y="1341.4333333333334" type="line"/>
      <point x="214.72875816987" y="1294.0653594771466" type="line"/>
      <point x="608.4516339869" y="1419.284313725473" type="line"/>
    </contour>
  </outline>
</glyph>
<glyph name="two" format="2">
  <advance width="1145"/>
  <unicode hex="0032"/>
  <outline>
    <contour>
      <point x="187.08039215691332" y="0.0" type="line"/>
      <point x="1029.1921568627365" y="0.0" type="line"/>
      <point x="1029.1921568627365" y="28.53202614381331" type="line"/>
      <point x="236.32352941179" y="28.53202614381331" type="line"/>
      <point x="776.07908496725" y="661.2163398692867" type="line" smooth="yes"/>
      <point x="938" y="854"/>
      <point x="977" y="957"/>
      <point x="977.3241830065499" y="1133.3326797385732" type="curve" smooth="yes"/>
      <point x="977" y="1324"/>
      <point x="848" y="1486"/>
      <point x="607.3359477123734" y="1486.0" type="curve" smooth="yes"/>
      <point x="351" y="1486"/>
      <point x="190" y="1326"/>
      <point x="190.3967320262" y="1049.5326797385733" type="curve" smooth="yes"/>
      <point x="190.3967320262" y="1032.3660130719068" type="line"/>
      <point x="236.93333333333334" y="1032.3660130719068" type="line"/>
      <point x="236.93333333333334" y="1050.9660130719067" type="line" smooth="yes"/>
      <point x="237" y="1314"/>
      <point x="379" y="1430"/>
      <point x="607.3359477123734" y="1432.0647058823868" type="curve" smooth="yes"/>
      <point x="819" y="1434"/>
      <point x="929" y="1294"/>
      <point x="929.3542483660834" y="1134.79934640524" type="curve" smooth="yes"/>
      <point x="929" y="962"/>
      <point x="843" y="825"/>
      <point x="741.6614379084433" y="699.7366013071334" type="curve" smooth="yes"/>
      <point x="187.08039215691332" y="54.201960784280004" type="line"/>
    </contour>
  </outline>
</glyph>
<glyph name="three" format="2">
  <advance width="1145"/>
  <unicode hex="0033"/>
  <outline>
    <contour>
      <point x="158.96339869286666" y="379.10065359476" type="line" smooth="yes"/>
      <point x="159" y="117"/>
      <point x="393" y="-33"/>
      <point x="580.25294117642" y="-31.433333333333334" type="curve" smooth="yes"/>
      <point x="810" y="-30"/>
      <point x="999" y="147"/>
      <point x="998.9424836601167" y="366.15032679738" type="curve" smooth="yes"/>
      <point x="999" y="608"/>
      <point x="856" y="724"/>
      <point x="686.6640522876266" y="757.7" type="curve"/>
      <point x="686.6640522876266" y="761.7" type="line"/>
      <point x="861" y="833"/>
      <point x="945" y="953"/>
      <point x="944.5738562091701" y="1099.0163398692869" type="curve" smooth="yes"/>
      <point x="945" y="1327"/>
      <point x="787" y="1486"/>
      <point x="580.3102745097533" y="1486.0" type="curve" smooth="yes"/>
      <point x="397" y="1486"/>
      <point x="199" y="1327"/>
      <point x="198.99803921571998" y="1098.0326797385733" type="curve" smooth="yes"/>
      <point x="198.99803921571998" y="1073.69934640524" type="line"/>
      <point x="243.9516339869" y="1073.69934640524" type="line"/>
      <point x="243.9516339869" y="1098.0326797385733" type="line" smooth="yes"/>
      <point x="244" y="1294"/>
      <point x="427" y="1433"/>
      <point x="580.3102745097533" y="1433.6790326797666" type="curve" smooth="yes"/>
      <point x="758" y="1435"/>
      <point x="897" y="1312"/>
      <point x="897.4705882352266" y="1100.1163398692868" type="curve" smooth="yes"/>
      <point x="897" y="911"/>
      <point x="733" y="787"/>
      <point x="530.0563137254734" y="787.10065359476" type="curve" smooth="yes"/>
      <point x="414.27077124177663" y="787.10065359476" type="line"/>
      <point x="414.27077124177663" y="729.9156862745267" type="line"/>
      <point x="540.66130718952" y="729.9156862745267" type="line" smooth="yes"/>
      <point x="742" y="730"/>
      <point x="950" y="625"/>
      <point x="949.8392156863167" y="374.7339869280933" type="curve" smooth="yes"/>
      <point x="950" y="152"/>
      <point x="771" y="23"/>
      <point x="580.25294117642" y="22.951633986900006" type="curve" smooth="yes"/>
      <point x="370" y="23"/>
      <point x="206" y="154"/>
      <point x="205.8" y="381.96732026142666" type="curve" smooth="yes"/>
      <point x="205.8" y="391.96732026142666" type="line"/>
      <point x="158.96339869286666" y="391.96732026142666" type="line"/>
    </contour>
  </outline>
</glyph>
<glyph name="four" format="2">
  <advance width="1145"/>
  <unicode hex="0034"/>
  <outline>
    <contour>
      <point x="794.2006535947601" y="0.0" type="line"/>
      <point x="843.1875816994168" y="0.0" type="line"/>
      <point x="843.1875816994168" y="1456.0" type="line"/>
      <point x="813.49934640524" y="1456.0" type="line"/>
      <point x="81.49738562095999" y="440.23529411761336" type="line"/>
      <point x="81.49738562095999" y="370.3830065359533" type="line"/>
      <point x="1053.7124183005835" y="370.3830065359533" type="line"/>
      <point x="1053.7124183005835" y="422.2679738561867" type="line"/>
      <point x="815.59869281048" y="422.2679738561867" type="line"/>
      <point x="804.2620915032032" y="422.2679738561867" type="line"/>
      <point x="131.05424836608333" y="422.2679738561867" type="line"/>
      <point x="787.9339869280933" y="1316.72352941179" type="line"/>
      <point x="794.2006535947601" y="1316.72352941179" type="line"/>
      <point x="794.2006535947601" y="399.1333333333333" type="line"/>
      <point x="794.2006535947601" y="390.8333333333333" type="line"/>
    </contour>
  </outline>
</glyph>
<glyph name="five" format="2">
  <advance width="1145"/>
  <unicode hex="0035"/>
  <outline>
    <contour>
      <point x="150.2967320262" y="362.66732026142665" type="line" smooth="yes"/>
      <point x="150" y="107"/>
      <point x="377" y="-30"/>
      <point x="578.00261437904" y="-30.0" type="curve" smooth="yes"/>
      <point x="829" y="-30"/>
      <point x="987" y="157"/>
      <point x="987.1424836601168" y="465.0" type="curve" smooth="yes"/>
      <point x="987" y="743"/>
      <point x="826" y="903"/>
      <point x="589.4882352941768" y="902.5666666666667" type="curve" smooth="yes"/>
      <point x="458" y="903"/>
      <point x="290" y="810"/>
      <point x="240.98496732023335" y="713.9614379084433" type="curve"/>
      <point x="315.4516339869" y="1404.0313725490532" type="line"/>
      <point x="924.5058823529835" y="1404.0313725490532" type="line"/>
      <point x="924.5058823529835" y="1456.0" type="line"/>
      <point x="273.09869281048" y="1456.0" type="line"/>
      <point x="198.36535947714665" y="703.6660130719067" type="line"/>
      <point x="252.17254901965" y="678.1633986928666" type="line"/>
      <point x="307" y="759"/>
      <point x="474" y="852"/>
      <point x="578.0856209149933" y="850.0483660131" type="curve" smooth="yes"/>
      <point x="803" y="850"/>
      <point x="939" y="717"/>
      <point x="939.1725490196501" y="465.0" type="curve" smooth="yes"/>
      <point x="939" y="184"/>
      <point x="803" y="23"/>
      <point x="578.00261437904" y="22.951633986900006" type="curve" smooth="yes"/>
      <point x="351" y="23"/>
      <point x="197" y="153"/>
      <point x="196.56666666666666" y="366.96732026142666" type="curve" smooth="yes"/>
      <point x="196.56666666666666" y="376.96732026142666" type="line"/>
      <point x="150.2967320262" y="376.96732026142666" type="line"/>
    </contour>
  </outline>
</glyph>
<glyph name="six" format="2">
  <advance width="1145"/>
  <unicode hex="0036"/>
  <outline>
    <contour>
      <point x="150.49411764701668" y="614.0" type="line" smooth="yes"/>
      <point x="150" y="201"/>
      <point x="337" y="-30"/>
      <point x="617.90196078428" y="-30.0" type="curve" smooth="yes"/>
      <point x="873" y="-30"/>
      <point x="1025" y="169"/>
      <point x="1025.1248366013099" y="464.0" type="curve" smooth="yes"/>
      <point x="1025" y="736"/>
      <point x="883" y="916"/>
      <point x="625.25359477118" y="916.15032679738" type="curve" smooth="yes"/>
      <point x="370" y="916"/>
      <point x="163" y="728"/>
      <point x="162.72941176477332" y="464.0" type="curve"/>
      <point x="190.46405228762666" y="464.0" type="line"/>
      <point x="190" y="683"/>
      <point x="389" y="863"/>
      <point x="624.0849673202333" y="863.19869281048" type="curve" smooth="yes"/>
      <point x="855" y="863"/>
      <point x="977" y="719"/>
      <point x="977.1549019608433" y="464.0" type="curve" smooth="yes"/>
      <point x="977" y="183"/>
      <point x="857" y="23"/>
      <point x="616.9183006535667" y="22.951633986900006" type="curve" smooth="yes"/>
      <point x="378" y="23"/>
      <point x="196" y="178"/>
      <point x="196.46405228762666" y="604.0" type="curve" smooth="yes"/>
      <point x="196.46405228762666" y="654.0" type="line" smooth="yes"/>
      <point x="196" y="1140"/>
      <point x="479" y="1432"/>
      <point x="806.1660130719067" y="1432.0647058823868" type="curve" smooth="yes"/>
      <point x="826.3666666666667" y="1432.0647058823868" type="line"/>
      <point x="826.3666666666667" y="1486.0" type="line"/>
      <point x="806.1660130719067" y="1486.0" type="line" smooth="yes"/>
      <point x="443" y="1486"/>
      <point x="150" y="1161"/>
      <point x="150.49411764701668" y="644.0" type="curve" smooth="yes"/>
    </contour>
  </outline>
</glyph>
<glyph name="seven" format="2">
  <advance width="1145"/>
  <unicode hex="0037"/>
  <outline>
    <contour>
      <point x="344.68169934643333" y="0.0" type="line"/>
      <point x="402.05228758166004" y="0.0" type="line"/>
      <point x="1003.3751633986901" y="1395.9810457516735" type="line"/>
      <point x="1003.3751633986901" y="1456.0" type="line"/>
      <point x="98.56470588238666" y="1456.0" type="line"/>
      <point x="98.56470588238666" y="1407.715686274527" type="line"/>
      <point x="954.3372549018934" y="1407.715686274527" type="line"/>
    </contour>
  </outline>
</glyph>
<glyph name="eight" format="2">
  <advance width="1129"/>
  <unicode hex="0038"/>
  <outline>
    <contour>
      <point x="136.51339869286664" y="375.96666666666664" type="curve" smooth="yes"/>
      <point x="137" y="116"/>
      <point x="317" y="-30"/>
      <point x="562.6189542483266" y="-30.0" type="curve" smooth="yes"/>
      <point x="809" y="-30"/>
      <point x="995" y="116"/>
      <point x="994.9254901960699" y="375.96666666666664" type="curve" smooth="yes"/>
      <point x="995" y="575"/>
      <point x="874" y="702"/>
      <point x="691.1640522876266" y="741.9656862745267" type="curve"/>
      <point x="691.1640522876266" y="745.9656862745267" type="line"/>
      <point x="853" y="790"/>
      <point x="948" y="932"/>
      <point x="948.4398692810768" y="1097.0333333333333" type="curve" smooth="yes"/>
      <point x="948" y="1326"/>
      <point x="783" y="1486"/>
      <point x="562.6189542483266" y="1486.0" type="curve" smooth="yes"/>
      <point x="342" y="1486"/>
      <point x="182" y="1332"/>
      <point x="182.01535947714666" y="1097.0333333333333" type="curve" smooth="yes"/>
      <point x="182" y="932"/>
      <point x="278" y="788"/>
      <point x="436.55751633988336" y="745.9656862745267" type="curve"/>
      <point x="436.55751633988336" y="741.9656862745267" type="line"/>
      <point x="263" y="691"/>
      <point x="137" y="572"/>
    </contour>
    <contour>
      <point x="185.35" y="375.85032679738" type="curve" smooth="yes"/>
      <point x="185" y="580"/>
      <point x="329" y="717"/>
      <point x="562.6189542483266" y="719.19934640524" type="curve" smooth="yes"/>
      <point x="796" y="719"/>
      <point x="945" y="579"/>
      <point x="945.0222222222701" y="375.85032679738" type="curve" smooth="yes"/>
      <point x="945" y="146"/>
      <point x="796" y="22"/>
      <point x="562.6189542483266" y="21.967973856186674" type="curve" smooth="yes"/>
      <point x="329" y="20"/>
      <point x="185" y="166"/>
    </contour>
    <contour>
      <point x="229.71862745094666" y="1097.14967320262" type="curve" smooth="yes"/>
      <point x="230" y="1295"/>
      <point x="358" y="1436"/>
      <point x="562.6189542483266" y="1434.0320261438133" type="curve" smooth="yes"/>
      <point x="767" y="1434"/>
      <point x="901" y="1295"/>
      <point x="900.7366013071334" y="1097.14967320262" type="curve" smooth="yes"/>
      <point x="901" y="907"/>
      <point x="767" y="771"/>
      <point x="562.6189542483266" y="770.80065359476" type="curve" smooth="yes"/>
      <point x="358" y="773"/>
      <point x="230" y="907"/>
    </contour>
  </outline>
</glyph>
<glyph name="nine" format="2">
  <advance width="1145"/>
  <unicode hex="0039"/>
  <outline>
    <contour>
      <point x="120.09673202619999" y="987.6666666666666" type="curve" smooth="yes"/>
      <point x="120" y="715"/>
      <point x="263" y="531"/>
      <point x="518.9843137254734" y="531.1830065359534" type="curve" smooth="yes"/>
      <point x="774" y="531"/>
      <point x="984" y="721"/>
      <point x="983.5588235294033" y="987.6666666666666" type="curve"/>
      <point x="953.77385620917" y="987.6666666666666" type="line"/>
      <point x="954" y="764"/>
      <point x="756" y="584"/>
      <point x="520.15294117642" y="584.1346405228534" type="curve" smooth="yes"/>
      <point x="290" y="584"/>
      <point x="169" y="729"/>
      <point x="169.13333333333333" y="987.6666666666666" type="curve" smooth="yes"/>
      <point x="169" y="1271"/>
      <point x="300" y="1433"/>
      <point x="540.2196078430867" y="1433.0483660131001" type="curve" smooth="yes"/>
      <point x="780" y="1433"/>
      <point x="948" y="1278"/>
      <point x="947.77385620917" y="852.0" type="curve" smooth="yes"/>
      <point x="947.77385620917" y="802.0" type="line" smooth="yes"/>
      <point x="948" y="316"/>
      <point x="666" y="24"/>
      <point x="339.05555555560335" y="23.93529411761334" type="curve" smooth="yes"/>
      <point x="317.87124183013" y="23.93529411761334" type="line"/>
      <point x="317.87124183013" y="-30.0" type="line"/>
      <point x="339.05555555560335" y="-30.0" type="line" smooth="yes"/>
      <point x="687" y="-30"/>
      <point x="995" y="295"/>
      <point x="994.7274509803499" y="812.0" type="curve" smooth="yes"/>
      <point x="994.7274509803499" y="842.0" type="line" smooth="yes"/>
      <point x="995" y="1255"/>
      <point x="822" y="1486"/>
      <point x="540.2196078430867" y="1486.0" type="curve" smooth="yes"/>
      <point x="285" y="1486"/>
      <point x="120" y="1285"/>
    </contour>
  </outline>
</glyph>
<glyph name="colon" format="2">
  <advance width="448"/>
  <unicode hex="003A"/>
  <outline>
    <contour>
      <point x="176.0" y="54.81764705880667" type="curve" smooth="yes"/>
      <point x="176" y="1"/>
      <point x="200" y="-22"/>
      <point x="224.68496732023334" y="-22.0" type="curve" smooth="yes"/>
      <point x="250" y="-22"/>
      <point x="272" y="1"/>
      <point x="271.93660130713334" y="54.81764705880667" type="curve" smooth="yes"/>
      <point x="272" y="109"/>
      <point x="250" y="132"/>
      <point x="224.68496732023334" y="131.63529411761334" type="curve" smooth="yes"/>
      <point x="199" y="132"/>
      <point x="176" y="109"/>
    </contour>
    <contour>
      <point x="176.0" y="991.1823529411934" type="curve" smooth="yes"/>
      <point x="176" y="937"/>
      <point x="200" y="914"/>
      <point x="224.68496732023334" y="914.3647058823867" type="curve" smooth="yes"/>
      <point x="250" y="914"/>
      <point x="272" y="937"/>
      <point x="271.93660130713334" y="991.1823529411934" type="curve" smooth="yes"/>
      <point x="272" y="1047"/>
      <point x="250" y="1068"/>
      <point x="224.68496732023334" y="1068.0" type="curve" smooth="yes"/>
      <point x="199" y="1068"/>
      <point x="176" y="1047"/>
    </contour>
  </outline>
</glyph>
<glyph name="semicolon" format="2">
  <advance width="448"/>
  <unicode hex="003B"/>
  <outline>
    <contour>
      <point x="171.99066666666664" y="-131.8793202614267" type="curve"/>
      <point x="219.3056339869" y="-160.85330718952" type="line"/>
      <point x="258" y="-106"/>
      <point x="275" y="-48"/>
      <point x="275.24394771237337" y="43.609986928093335" type="curve" smooth="yes"/>
      <point x="275.24394771237337" y="134.88096732023334" type="line"/>
      <point x="211.36065359475998" y="134.88096732023334" type="line"/>
      <point x="211.36065359475998" y="42.54332026142667" type="line" smooth="yes"/>
      <point x="211" y="-29"/>
      <point x="199" y="-82"/>
    </contour>
    <contour>
      <point x="176.0" y="991.1823529411934" type="curve" smooth="yes"/>
      <point x="176" y="937"/>
      <point x="200" y="914"/>
      <point x="224.68496732023334" y="914.3647058823867" type="curve" smooth="yes"/>
      <point x="250" y="914"/>
      <point x="272" y="937"/>
      <point x="271.93660130713334" y="991.1823529411934" type="curve" smooth="yes"/>
      <point x="272" y="1047"/>
      <point x="250" y="1068"/>
      <point x="224.68496732023334" y="1068.0" type="curve" smooth="yes"/>
      <point x="199" y="1068"/>
      <point x="176" y="1047"/>
    </contour>
  </outline>
</glyph>
<glyph name="less" format="2">
  <advance width="1571"/>
  <unicode hex="003C"/>
  <outline>
    <contour>
      <point x="1209.10818300655" y="261.15301960786" type="line"/>
      <point x="1209.10818300655" y="289.6767320262" type="line"/>
      <point x="379.32475816986994" y="666.54901960786" type="line"/>
      <point x="1209.10818300655" y="1043.4213071895201" type="line"/>
      <point x="1209.10818300655" y="1096.7816209149933" type="line"/>
      <point x="348.8562091503633" y="710.8489673202332" type="line"/>
      <point x="348.8562091503633" y="647.0856732026199" type="line"/>
    </contour>
  </outline>
</glyph>
<glyph name="equal" format="2">
  <advance width="1573"/>
  <unicode hex="003D"/>
  <outline>
    <contour>
      <point x="457.28771241834" y="474.98062745094666" type="line"/>
      <point x="1115.89796078428" y="474.98062745094666" type="line"/>
      <point x="1115.89796078428" y="515.0352941176134" type="line"/>
      <point x="457.28771241834" y="515.0352941176134" type="line"/>
    </contour>
    <contour>
      <point x="457.28771241834" y="887.6052287582233" type="line"/>
      <point x="1115.89796078428" y="887.6052287582233" type="line"/>
      <point x="1115.89796078428" y="927.6598954248899" type="line"/>
      <point x="457.28771241834" y="927.6598954248899" type="line"/>
    </contour>
  </outline>
</glyph>
<glyph name="greater" format="2">
  <advance width="1571"/>
  <unicode hex="003E"/>
  <outline>
    <contour>
      <point x="361.82352941179" y="261.15301960786" type="line"/>
      <point x="1222.0755032679767" y="647.0856732026199" type="line"/>
      <point x="1222.0755032679767" y="710.8489673202332" type="line"/>
      <point x="361.82352941179" y="1096.7816209149933" type="line"/>
      <point x="361.82352941179" y="1068.2579084967965" type="line"/>
      <point x="1191.6069542483265" y="691.3856209149933" type="line"/>
      <point x="361.82352941179" y="314.5133333333333" type="line"/>
    </contour>
  </outline>
</glyph>
<glyph name="question" format="2">
  <advance width="696"/>
  <unicode hex="003F"/>
  <outline>
    <contour>
      <point x="245.42130718952" y="54.932313725473335" type="curve" smooth="yes"/>
      <point x="245" y="13"/>
      <point x="263" y="-22"/>
      <point x="294.68860130713335" y="-22.0" type="curve" smooth="yes"/>
      <point x="325" y="-22"/>
      <point x="342" y="13"/>
      <point x="341.90556862751" y="54.932313725473335" type="curve" smooth="yes"/>
      <point x="342" y="97"/>
      <point x="324" y="132"/>
      <point x="293.6219346404667" y="131.86462745094667" type="curve" smooth="yes"/>
      <point x="263" y="132"/>
      <point x="245" y="97"/>
    </contour>
    <contour>
      <point x="41.96831372547334" y="1092.0490196078601" type="line"/>
      <point x="91.3685751634633" y="1092.0490196078601" type="line"/>
      <point x="91.3685751634633" y="1112.0490196078601" type="line" smooth="yes"/>
      <point x="91" y="1309"/>
      <point x="176" y="1425"/>
      <point x="335.52724183013" y="1424.5613594771469" type="curve" smooth="yes"/>
      <point x="496" y="1425"/>
      <point x="574" y="1307"/>
      <point x="573.6002483660834" y="1148.89934640524" type="curve" smooth="yes"/>
      <point x="574" y="989"/>
      <point x="535" y="907"/>
      <point x="429.53579084963667" y="783.8403398692866" type="curve" smooth="yes"/>
      <point x="330" y="666"/>
      <point x="268" y="569"/>
      <point x="268.4049673202333" y="421.96732026142666" type="curve" smooth="yes"/>
      <point x="268.4049673202333" y="411.96732026142666" type="line"/>
      <point x="317.74456209155665" y="411.96732026142666" type="line"/>
      <point x="317.74456209155665" y="421.96732026142666" type="line" smooth="yes"/>
      <point x="318" y="530"/>
      <point x="349" y="614"/>
      <point x="466.83233986928667" y="751.92465359476" type="curve" smooth="yes"/>
      <point x="583" y="886"/>
      <point x="622" y="963"/>
      <point x="621.95618300655" y="1148.89934640524" type="curve" smooth="yes"/>
      <point x="622" y="1334"/>
      <point x="515" y="1476"/>
      <point x="335.52724183013" y="1476.0" type="curve" smooth="yes"/>
      <point x="152" y="1476"/>
      <point x="42" y="1332"/>
      <point x="41.96831372547334" y="1112.0490196078601" type="curve" smooth="yes"/>
    </contour>
  </outline>
</glyph>
<glyph name="at" format="2">
  <advance width="1937"/>
  <unicode hex="0040"/>
  <outline>
    <contour>
      <point x="639.8825359477433" y="400.0" type="curve" smooth="yes"/>
      <point x="640" y="159"/>
      <point x="729" y="0"/>
      <point x="870.7655686275099" y="0.0" type="curve" smooth="yes"/>
      <point x="982" y="0"/>
      <point x="1077" y="70"/>
      <point x="1115.2322091503634" y="189.74666666666667" type="curve"/>
      <point x="1157" y="73"/>
      <point x="1250" y="0"/>
      <point x="1390.4080522876266" y="0.0" type="curve" smooth="yes"/>
      <point x="1632" y="0"/>
      <point x="1823" y="261"/>
      <point x="1823.075581699417" y="650.0" type="curve" smooth="yes"/>
      <point x="1823" y="1119"/>
      <point x="1513" y="1486"/>
      <point x="1014.6164183005833" y="1486.0" type="curve" smooth="yes"/>
      <point x="511" y="1486"/>
      <point x="114" y="1023"/>
      <point x="114.0" y="460.0" type="curve" smooth="yes"/>
      <point x="114" y="-103"/>
      <point x="461" y="-446"/>
      <point x="909.9621699346435" y="-446.0" type="curve" smooth="yes"/>
      <point x="1105" y="-446"/>
      <point x="1229" y="-415"/>
      <point x="1328.7451764705966" y="-356.0" type="curve"/>
      <point x="1328.7451764705966" y="-304.71335947714664" type="line"/>
      <point x="1236" y="-353"/>
      <point x="1105" y="-395"/>
      <point x="909.9621699346435" y="-394.71335947714664" type="curve" smooth="yes"/>
      <point x="479" y="-395"/>
      <point x="160" y="-89"/>
      <point x="160.31160784308668" y="460.0" type="curve" smooth="yes"/>
      <point x="160" y="1000"/>
      <point x="527" y="1435"/>
      <point x="1014.6164183005833" y="1434.7133594771465" type="curve" smooth="yes"/>
      <point x="1501" y="1435"/>
      <point x="1779" y="1067"/>
      <point x="1778.5923137254733" y="650.0" type="curve" smooth="yes"/>
      <point x="1779" y="292"/>
      <point x="1624" y="51"/>
      <point x="1400.0747189542933" y="50.86298039214" type="curve" smooth="yes"/>
      <point x="1242" y="51"/>
      <point x="1121" y="124"/>
      <point x="1168.7608366013098" y="350.0" type="curve" smooth="yes"/>
      <point x="1295.3793986928665" y="946.0" type="line"/>
      <point x="1270.3921830065499" y="946.0" type="line"/>
      <point x="1233" y="988"/>
      <point x="1147" y="1052"/>
      <point x="1060.2430849672498" y="1052.0" type="curve" smooth="yes"/>
      <point x="822" y="1052"/>
      <point x="640" y="775"/>
    </contour>
    <contour>
      <point x="684.96781699345" y="400.0" type="curve" smooth="yes"/>
      <point x="685" y="746"/>
      <point x="845" y="1000"/>
      <point x="1065.1417385621535" y="1000.0520261438134" type="curve" smooth="yes"/>
      <point x="1132" y="1000"/>
      <point x="1210" y="976"/>
      <point x="1252.5061307189235" y="937.4920261438134" type="curve"/>
      <point x="1132.7595294117898" y="391.96732026142666" type="line" smooth="yes"/>
      <point x="1075" y="141"/>
      <point x="991" y="50"/>
      <point x="877.3928627451234" y="50.302980392140014" type="curve" smooth="yes"/>
      <point x="752" y="50"/>
      <point x="685" y="170"/>
    </contour>
  </outline>
</glyph>
<glyph name="A" format="2">
  <advance width="1063"/>
  <unicode hex="0041"/>
  <outline>
    <contour>
      <point x="0.0" y="0.0" type="line"/>
      <point x="46.23725490189332" y="0.0" type="line"/>
      <point x="456.26928104570663" y="1286.09803921572" type="line" smooth="yes"/>
      <point x="481" y="1355"/>
      <point x="505" y="1414"/>
      <point x="523.0104575163033" y="1473.0614379084432" type="curve"/>
      <point x="532.8444444443966" y="1473.0614379084432" type="line"/>
      <point x="551" y="1414"/>
      <point x="572" y="1355"/>
      <point x="598.4359477123734" y="1286.09803921572" type="curve" smooth="yes"/>
      <point x="1009.4679738561866" y="0.0" type="line"/>
      <point x="1062.72287581703" y="0.0" type="line"/>
      <point x="593.2339869280934" y="1466.0" type="line"/>
      <point x="468.9562091503634" y="1466.0" type="line"/>
    </contour>
    <contour>
      <point x="163.17385620917" y="436.96535947714665" type="line"/>
      <point x="175.59346405225668" y="482.38366013071334" type="line"/>
      <point x="882.0954248365366" y="482.38366013071334" type="line"/>
      <point x="894.49869281048" y="436.96535947714665" type="line"/>
    </contour>
  </outline>
</glyph>
<glyph name="B" format="2">
  <advance width="1029"/>
  <unicode hex="0042"/>
  <outline>
    <contour>
      <point x="170.0" y="0.0" type="line"/>
      <point x="556.81618300655" y="0.0" type="line" smooth="yes"/>
      <point x="787" y="0"/>
      <point x="928" y="131"/>
      <point x="928.1357254902466" y="390.57599999999996" type="curve" smooth="yes"/>
      <point x="928" y="597"/>
      <point x="836" y="729"/>
      <point x="691.7639346404667" y="762.0506666666666" type="curve"/>
      <point x="691.7639346404667" y="766.0506666666666" type="line"/>
      <point x="804" y="798"/>
      <point x="882" y="919"/>
      <point x="881.9404313724901" y="1094.4586666666667" type="curve" smooth="yes"/>
      <point x="882" y="1356"/>
      <point x="751" y="1456"/>
      <point x="521.04687581703" y="1456.0" type="curve" smooth="yes"/>
      <point x="170.0" y="1456.0" type="line"/>
    </contour>
    <contour>
      <point x="217.17393464046663" y="51.337307189520004" type="line"/>
      <point x="217.17393464046663" y="731.8233464052399" type="line"/>
      <point x="556.81618300655" y="731.8233464052399" type="line" smooth="yes"/>
      <point x="781" y="732"/>
      <point x="880" y="601"/>
      <point x="880.0224575163033" y="392.62632679738" type="curve" smooth="yes"/>
      <point x="880" y="170"/>
      <point x="781" y="51"/>
      <point x="556.81618300655" y="51.337307189520004" type="curve" smooth="yes"/>
    </contour>
    <contour>
      <point x="217.17393464046663" y="784.1766535947601" type="line"/>
      <point x="217.17393464046663" y="1404.6626928104802" type="line"/>
      <point x="521.04687581703" y="1404.6626928104802" type="line" smooth="yes"/>
      <point x="744" y="1405"/>
      <point x="834" y="1307"/>
      <point x="833.82716339869" y="1093.4750065359533" type="curve" smooth="yes"/>
      <point x="834" y="898"/>
      <point x="744" y="784"/>
      <point x="521.04687581703" y="784.1766535947601" type="curve" smooth="yes"/>
    </contour>
  </outline>
</glyph>
<glyph name="C" format="2">
  <advance width="998"/>
  <unicode hex="0043"/>
  <outline>
    <contour>
      <point x="115.0" y="703.6349019608433" type="line" smooth="yes"/>
      <point x="115" y="174"/>
      <point x="302" y="-30"/>
      <point x="602.1914379084434" y="-30.0" type="curve" smooth="yes"/>
      <point x="873" y="-30"/>
      <point x="1032" y="140"/>
      <point x="1032.9999215685602" y="457.96732026142666" type="curve" smooth="yes"/>
      <point x="1032.9332549018934" y="467.96732026142666" type="line"/>
      <point x="984.9413202614267" y="467.96732026142666" type="line"/>
      <point x="985.0079869280933" y="457.96732026142666" type="line" smooth="yes"/>
      <point x="978" y="281"/>
      <point x="886" y="22"/>
      <point x="601.1247712417767" y="22.472967320233323" type="curve" smooth="yes"/>
      <point x="335" y="22"/>
      <point x="162" y="216"/>
      <point x="161.80393464046665" y="660.9682352941767" type="curve" smooth="yes"/>
      <point x="161.80393464046665" y="796.09843137249" type="line" smooth="yes"/>
      <point x="162" y="1163"/>
      <point x="311" y="1434"/>
      <point x="602.1914379084434" y="1433.5270326797668" type="curve" smooth="yes"/>
      <point x="870" y="1434"/>
      <point x="932" y="1174"/>
      <point x="982.2743267973801" y="998.0326797385733" type="curve" smooth="yes"/>
      <point x="984.9413202614267" y="988.0326797385733" type="line"/>
      <point x="1032.9332549018934" y="988.0326797385733" type="line"/>
      <point x="1030.2662614378467" y="998.0326797385733" type="line" smooth="yes"/>
      <point x="956" y="1312"/>
      <point x="873" y="1486"/>
      <point x="602.1914379084434" y="1486.0" type="curve" smooth="yes"/>
      <point x="305" y="1486"/>
      <point x="115" y="1276"/>
      <point x="115.0" y="752.3650980391567" type="curve" smooth="yes"/>
    </contour>
  </outline>
</glyph>
<glyph name="D" format="2">
  <advance width="1134"/>
  <unicode hex="0044"/>
  <outline>
    <contour>
      <point x="170.0" y="0.0" type="line"/>
      <point x="470.81691503275005" y="0.0" type="line" smooth="yes"/>
      <point x="799" y="0"/>
      <point x="1019" y="219"/>
      <point x="1019.0119869280935" y="703.6349019608433" type="curve" smooth="yes"/>
      <point x="1019.0119869280935" y="752.3650980391567" type="line" smooth="yes"/>
      <point x="1019" y="1238"/>
      <point x="799" y="1456"/>
      <point x="470.81691503275005" y="1456.0" type="curve" smooth="yes"/>
      <point x="170.0" y="1456.0" type="line"/>
    </contour>
    <contour>
      <point x="216.9312679738" y="52.32096732023335" type="line"/>
      <point x="216.9312679738" y="1403.6790326797666" type="line"/>
      <point x="470.81691503275005" y="1403.6790326797666" type="line" smooth="yes"/>
      <point x="778" y="1404"/>
      <point x="971" y="1209"/>
      <point x="971.14138562096" y="752.3650980391567" type="curve" smooth="yes"/>
      <point x="971.14138562096" y="703.6349019608433" type="line" smooth="yes"/>
      <point x="971" y="247"/>
      <point x="778" y="52"/>
      <point x="470.81691503275005" y="52.32096732023335" type="curve" smooth="yes"/>
    </contour>
  </outline>
</glyph>
<glyph name="E" format="2">
  <advance width="942"/>
  <unicode hex="0045"/>
  <outline>
    <contour>
      <point x="170.0" y="0.0" type="line"/>
      <point x="874.1234771241634" y="0.0" type="line"/>
      <point x="874.1234771241634" y="52.32096732023335" type="line"/>
      <point x="216.9312679738" y="52.32096732023335" type="line"/>
      <point x="216.9312679738" y="724.7980130719067" type="line"/>
      <point x="753.6025620915566" y="724.7980130719067" type="line"/>
      <point x="753.6025620915566" y="777.2019869280933" type="line"/>
      <point x="216.9312679738" y="777.2019869280933" type="line"/>
      <point x="216.9312679738" y="1403.6790326797666" type="line"/>
      <point x="862.6811503267833" y="1403.6790326797666" type="line"/>
      <point x="862.6811503267833" y="1456.0" type="line"/>
      <point x="170.0" y="1456.0" type="line"/>
    </contour>
  </outline>
</glyph>
<glyph name="F" format="2">
  <advance width="907"/>
  <unicode hex="0046"/>
  <outline>
    <contour>
      <point x="170.0" y="0.0" type="line"/>
      <point x="216.9312679738" y="0.0" type="line"/>
      <point x="216.9312679738" y="693.9136993464334" type="line"/>
      <point x="758.09524183013" y="693.9136993464334" type="line"/>
      <point x="758.09524183013" y="745.168" type="line"/>
      <point x="216.9312679738" y="745.168" type="line"/>
      <point x="216.9312679738" y="1403.6790326797666" type="line"/>
      <point x="848.0258300653568" y="1403.6790326797666" type="line"/>
      <point x="848.0258300653568" y="1456.0" type="line"/>
      <point x="170.0" y="1456.0" type="line"/>
    </contour>
  </outline>
</glyph>
<glyph name="G" format="2">
  <advance width="985"/>
  <unicode hex="0047"/>
  <outline>
    <contour>
      <point x="115.0" y="703.6349019608433" type="line" smooth="yes"/>
      <point x="115" y="151"/>
      <point x="313" y="-30"/>
      <point x="605.9607450981067" y="-30.0" type="curve" smooth="yes"/>
      <point x="831" y="-30"/>
      <point x="938" y="38"/>
      <point x="1027.5462483660835" y="120.07398692809335" type="curve"/>
      <point x="1027.5462483660835" y="672.2869803921399" type="line"/>
      <point x="609.5964313724901" y="672.2869803921399" type="line"/>
      <point x="609.5964313724901" y="618.89934640524" type="line"/>
      <point x="984.4936470588066" y="618.89934640524" type="line"/>
      <point x="984.4936470588066" y="142.15830065356667" type="line"/>
      <point x="893" y="61"/>
      <point x="777" y="22"/>
      <point x="611.2940784314401" y="22.472967320233323" type="curve" smooth="yes"/>
      <point x="328" y="22"/>
      <point x="162" y="211"/>
      <point x="161.80393464046665" y="660.9682352941767" type="curve" smooth="yes"/>
      <point x="161.80393464046665" y="795.0317647058233" type="line" smooth="yes"/>
      <point x="162" y="1254"/>
      <point x="325" y="1434"/>
      <point x="570.60450980393" y="1433.5270326797668" type="curve" smooth="yes"/>
      <point x="857" y="1434"/>
      <point x="935" y="1280"/>
      <point x="976.1536601307132" y="1038.0326797385733" type="curve" smooth="yes"/>
      <point x="979.5543137254732" y="1028.0326797385733" type="line"/>
      <point x="1027.5462483660835" y="1028.0326797385733" type="line"/>
      <point x="1025.5625882352265" y="1035.2990196078601" type="line" smooth="yes"/>
      <point x="986" y="1330"/>
      <point x="875" y="1486"/>
      <point x="565.6371895425034" y="1486.0" type="curve" smooth="yes"/>
      <point x="319" y="1486"/>
      <point x="115" y="1270"/>
      <point x="115.0" y="752.3650980391567" type="curve" smooth="yes"/>
    </contour>
  </outline>
</glyph>
<glyph name="H" format="2">
  <advance width="1220"/>
  <unicode hex="0048"/>
  <outline>
    <contour>
      <point x="170.0" y="0.0" type="line"/>
      <point x="217.3" y="0.0" type="line"/>
      <point x="217.3" y="724.3" type="line"/>
      <point x="1004.0666666666666" y="724.3" type="line"/>
      <point x="1004.0666666666666" y="0.0" type="line"/>
      <point x="1049.9333333333334" y="0.0" type="line"/>
      <point x="1049.9333333333334" y="1456.0" type="line"/>
      <point x="1004.0666666666666" y="1456.0" type="line"/>
      <point x="1004.0666666666666" y="777.7" type="line"/>
      <point x="217.3" y="777.7" type="line"/>
      <point x="217.3" y="1456.0" type="line"/>
      <point x="170.0" y="1456.0" type="line"/>
    </contour>
  </outline>
</glyph>
<glyph name="J" format="2">
  <advance width="847"/>
  <unicode hex="004A"/>
  <outline>
    <contour>
      <point x="25.0" y="440.97647058821" type="line" smooth="yes"/>
      <point x="25" y="99"/>
      <point x="152" y="-30"/>
      <point x="359.4052287582233" y="-30.0" type="curve" smooth="yes"/>
      <point x="566" y="-30"/>
      <point x="691" y="111"/>
      <point x="691.3104575163032" y="465.97647058821" type="curve" smooth="yes"/>
      <point x="691.3104575163032" y="1456.0" type="line"/>
      <point x="646.2575163398834" y="1456.0" type="line"/>
      <point x="646.2575163398834" y="433.97647058821" type="line" smooth="yes"/>
      <point x="646" y="149"/>
      <point x="544" y="22"/>
      <point x="359.4052287582233" y="21.784967320233335" type="curve" smooth="yes"/>
      <point x="174" y="22"/>
      <point x="73" y="134"/>
      <point x="72.55294117642" y="408.97647058821" type="curve" smooth="yes"/>
      <point x="72.55294117642" y="450.97647058821" type="line"/>
      <point x="25.0" y="450.97647058821" type="line"/>
    </contour>
  </outline>
</glyph>
<glyph name="K" format="2">
  <advance width="1058"/>
  <unicode hex="004B"/>
  <outline>
    <contour>
      <point x="170.0" y="0.0" type="line"/>
      <point x="216.9312679738" y="0.0" type="line"/>
      <point x="216.9312679738" y="574.2141699346435" type="line"/>
      <point x="1073.6516862745268" y="1456.0" type="line"/>
      <point x="1011.1838431372635" y="1456.0" type="line"/>
      <point x="215.66993464046666" y="627.9235294117901" type="line"/>
      <point x="215.66993464046666" y="1456.0" type="line"/>
      <point x="170.0" y="1456.0" type="line"/>
    </contour>
    <contour>
      <point x="1020.9618039215432" y="0.0" type="line"/>
      <point x="1077.1776470588068" y="0.0" type="line"/>
      <point x="433.3901960784567" y="823.744" type="line"/>
      <point x="402.4982745097533" y="793.8233202614266" type="line"/>
    </contour>
  </outline>
</glyph>
<glyph name="L" format="2">
  <advance width="791"/>
  <unicode hex="004C"/>
  <outline>
    <contour>
      <point x="170.0" y="0.0" type="line"/>
      <point x="841.91850980393" y="0.0" type="line"/>
      <point x="841.91850980393" y="52.32096732023335" type="line"/>
      <point x="216.9312679738" y="52.32096732023335" type="line"/>
      <point x="216.9312679738" y="1456.0" type="line"/>
      <point x="170.0" y="1456.0" type="line"/>
    </contour>
  </outline>
</glyph>
<glyph name="M" format="2">
  <advance width="1561"/>
  <unicode hex="004D"/>
  <outline>
    <contour>
      <point x="170.0" y="0.0" type="line"/>
      <point x="213.20196078428" y="0.0" type="line"/>
      <point x="213.20196078428" y="1211.0607843136831" type="line" smooth="yes"/>
      <point x="213" y="1260"/>
      <point x="202" y="1323"/>
      <point x="202.80130718952" y="1370.5941176470167" type="curve"/>
      <point x="211.80130718952" y="1370.5941176470167" type="line"/>
      <point x="220" y="1323"/>
      <point x="242" y="1260"/>
      <point x="259.73660130713336" y="1211.0607843136831" type="curve" smooth="yes"/>
      <point x="748.4784313724899" y="0.0" type="line"/>
      <point x="807.2339869280934" y="0.0" type="line"/>
      <point x="1293.3928104574966" y="1212.4941176470165" type="line" smooth="yes"/>
      <point x="1311" y="1261"/>
      <point x="1334" y="1325"/>
      <point x="1343.5444444443967" y="1372.0274509803498" type="curve"/>
      <point x="1352.5444444443967" y="1372.0274509803498" type="line"/>
      <point x="1353" y="1325"/>
      <point x="1342" y="1261"/>
      <point x="1342.0607843136831" y="1212.4941176470165" type="curve" smooth="yes"/>
      <point x="1342.0607843136831" y="0.0" type="line"/>
      <point x="1390.3307189542934" y="0.0" type="line"/>
      <point x="1390.3307189542934" y="1456.0" type="line"/>
      <point x="1335.62614379083" y="1456.0" type="line"/>
      <point x="826.1673202614267" y="165.47647058821002" type="line" smooth="yes"/>
      <point x="809" y="118"/>
      <point x="793" y="82"/>
      <point x="782.39869281048" y="40.84836601309999" type="curve"/>
      <point x="776.5320261438134" y="40.84836601309999" type="line"/>
      <point x="767" y="82"/>
      <point x="748" y="117"/>
      <point x="730.7117647058233" y="164.40980392154336" type="curve" smooth="yes"/>
      <point x="230.07124183013" y="1456.0" type="line"/>
      <point x="170.0" y="1456.0" type="line"/>
    </contour>
  </outline>
</glyph>
<glyph name="N" format="2">
  <advance width="1211"/>
  <unicode hex="004E"/>
  <outline>
    <contour>
      <point x="170.0" y="0.0" type="line"/>
      <point x="210.2686274509467" y="0.0" type="line"/>
      <point x="210.2686274509467" y="1307.5633986928667" type="line" smooth="yes"/>
      <point x="210" y="1353"/>
      <point x="207" y="1414"/>
      <point x="194.96732026142666" y="1463.34640522882" type="curve"/>
      <point x="206.20098039214" y="1463.34640522882" type="line"/>
      <point x="206" y="1427"/>
      <point x="247" y="1370"/>
      <point x="265.02026143784667" y="1327.5633986928667" type="curve" smooth="yes"/>
      <point x="954.3457516339167" y="0.0" type="line"/>
      <point x="1041.1716601307132" y="0.0" type="line"/>
      <point x="1041.1716601307132" y="1456.0" type="line"/>
      <point x="997.5477124183402" y="1456.0" type="line"/>
      <point x="997.5477124183402" y="126.36928104570671" type="line" smooth="yes"/>
      <point x="998" y="83"/>
      <point x="998" y="43"/>
      <point x="1006.0490196078601" y="-4.5803921569133195" type="curve"/>
      <point x="997.5490196078601" y="-4.5803921569133195" type="line"/>
      <point x="981" y="39"/>
      <point x="951" y="105"/>
      <point x="937.2633986928666" y="140.03594771237334" type="curve" smooth="yes"/>
      <point x="255.60392156856" y="1456.0" type="line"/>
      <point x="170.0" y="1456.0" type="line"/>
    </contour>
  </outline>
</glyph>
<glyph name="O" format="2">
  <advance width="1209"/>
  <unicode hex="004F"/>
  <outline>
    <contour>
      <point x="115.0" y="703.6349019608433" type="line" smooth="yes"/>
      <point x="115" y="191"/>
      <point x="310" y="-30"/>
      <point x="604.2630980391567" y="-30.0" type="curve" smooth="yes"/>
      <point x="899" y="-30"/>
      <point x="1092" y="191"/>
      <point x="1092.4595294117898" y="703.6349019608433" type="curve" smooth="yes"/>
      <point x="1092.4595294117898" y="752.3650980391567" type="line" smooth="yes"/>
      <point x="1092" y="1264"/>
      <point x="899" y="1486"/>
      <point x="604.2630980391567" y="1486.0" type="curve" smooth="yes"/>
      <point x="308" y="1486"/>
      <point x="115" y="1264"/>
      <point x="115.0" y="752.3650980391567" type="curve" smooth="yes"/>
    </contour>
    <contour>
      <point x="161.80393464046665" y="671.6349019608433" type="curve" smooth="yes"/>
      <point x="161.80393464046665" y="785.4317647058233" type="line" smooth="yes"/>
      <point x="162" y="1240"/>
      <point x="332" y="1434"/>
      <point x="604.2630980391567" y="1433.5270326797668" type="curve" smooth="yes"/>
      <point x="876" y="1434"/>
      <point x="1045" y="1240"/>
      <point x="1044.5889281045133" y="785.4317647058233" type="curve" smooth="yes"/>
      <point x="1044.5889281045133" y="671.6349019608433" type="line" smooth="yes"/>
      <point x="1045" y="217"/>
      <point x="876" y="22"/>
      <point x="604.2630980391567" y="22.472967320233323" type="curve" smooth="yes"/>
      <point x="332" y="22"/>
      <point x="162" y="217"/>
    </contour>
  </outline>
</glyph>
<glyph name="P" format="2">
  <advance width="980"/>
  <unicode hex="0050"/>
  <outline>
    <contour>
      <point x="170.0" y="0.0" type="line"/>
      <point x="216.9312679738" y="0.0" type="line"/>
      <point x="216.9312679738" y="616.9320261438133" type="line"/>
      <point x="519.0335424836966" y="616.9320261438133" type="line" smooth="yes"/>
      <point x="784" y="617"/>
      <point x="903" y="751"/>
      <point x="902.7164052288199" y="1035.53301960786" type="curve" smooth="yes"/>
      <point x="903" y="1323"/>
      <point x="784" y="1456"/>
      <point x="519.0335424836966" y="1456.0" type="curve" smooth="yes"/>
      <point x="170.0" y="1456.0" type="line"/>
    </contour>
    <contour>
      <point x="216.9312679738" y="669.3359999999999" type="line"/>
      <point x="216.9312679738" y="1403.6790326797666" type="line"/>
      <point x="519.0335424836966" y="1403.6790326797666" type="line" smooth="yes"/>
      <point x="768" y="1404"/>
      <point x="855" y="1268"/>
      <point x="854.72447058821" y="1035.53301960786" type="curve" smooth="yes"/>
      <point x="855" y="806"/>
      <point x="768" y="669"/>
      <point x="519.0335424836966" y="669.3359999999999" type="curve" smooth="yes"/>
    </contour>
  </outline>
</glyph>
<glyph name="Q" format="2">
  <advance width="1209"/>
  <unicode hex="0051"/>
  <outline>
    <contour>
      <point x="115.0" y="703.6349019608433" type="line" smooth="yes"/>
      <point x="115" y="192"/>
      <point x="310" y="-30"/>
      <point x="604.2630980391567" y="-30.0" type="curve" smooth="yes"/>
      <point x="899" y="-30"/>
      <point x="1092" y="192"/>
      <point x="1092.4595294117898" y="703.6349019608433" type="curve" smooth="yes"/>
      <point x="1092.4595294117898" y="752.3650980391567" type="line" smooth="yes"/>
      <point x="1092" y="1264"/>
      <point x="899" y="1486"/>
      <point x="604.2630980391567" y="1486.0" type="curve" smooth="yes"/>
      <point x="308" y="1486"/>
      <point x="115" y="1264"/>
      <point x="115.0" y="752.3650980391567" type="curve" smooth="yes"/>
    </contour>
    <contour>
      <point x="161.80393464046665" y="660.9682352941767" type="curve" smooth="yes"/>
      <point x="161.80393464046665" y="795.0317647058233" type="line" smooth="yes"/>
      <point x="162" y="1250"/>
      <point x="332" y="1434"/>
      <point x="604.2630980391567" y="1433.5270326797668" type="curve" smooth="yes"/>
      <point x="876" y="1434"/>
      <point x="1045" y="1250"/>
      <point x="1044.5889281045133" y="795.0317647058233" type="curve" smooth="yes"/>
      <point x="1044.5889281045133" y="660.9682352941767" type="line" smooth="yes"/>
      <point x="1045" y="206"/>
      <point x="876" y="22"/>
      <point x="604.2630980391567" y="22.472967320233323" type="curve" smooth="yes"/>
      <point x="332" y="22"/>
      <point x="162" y="206"/>
    </contour>
    <contour>
      <point x="1109.2630065359535" y="-210.8473202614267" type="line"/>
      <point x="1150.1422483660833" y="-170.83069281048" type="line"/>
      <point x="541.8762222222699" y="328.86630065356667" type="line"/>
      <point x="501.0693071895199" y="289.96" type="line"/>
    </contour>
  </outline>
</glyph>
<glyph name="R" format="2">
  <advance width="991"/>
  <unicode hex="0052"/>
  <outline>
    <contour>
      <point x="170.0" y="0.0" type="line"/>
      <point x="216.9312679738" y="0.0" type="line"/>
      <point x="216.9312679738" y="645.7963660131" type="line"/>
      <point x="509.5912156863167" y="645.7963660131" type="line" smooth="yes"/>
      <point x="768" y="646"/>
      <point x="888" y="767"/>
      <point x="888.2317516339167" y="1050.4823529411935" type="curve" smooth="yes"/>
      <point x="888" y="1334"/>
      <point x="768" y="1456"/>
      <point x="509.5912156863167" y="1456.0" type="curve" smooth="yes"/>
      <point x="170.0" y="1456.0" type="line"/>
    </contour>
    <contour>
      <point x="216.9312679738" y="699.1333333333333" type="line"/>
      <point x="216.9312679738" y="1403.7296993464333" type="line"/>
      <point x="509.5912156863167" y="1403.7296993464333" type="line" smooth="yes"/>
      <point x="756" y="1404"/>
      <point x="840" y="1274"/>
      <point x="840.23981699345" y="1050.4823529411935" type="curve" smooth="yes"/>
      <point x="840" y="829"/>
      <point x="756" y="699"/>
      <point x="509.5912156863167" y="699.1333333333333" type="curve" smooth="yes"/>
    </contour>
    <contour>
      <point x="883.8411764705968" y="0.0" type="line"/>
      <point x="949.9143790850069" y="0.0" type="line"/>
      <point x="572.8766797385733" y="672.0" type="line"/>
      <point x="513.5601307189232" y="672.0" type="line"/>
    </contour>
  </outline>
</glyph>
<glyph name="S" format="2">
  <advance width="977"/>
  <unicode hex="0053"/>
  <outline>
    <contour>
      <point x="90.0" y="379.5539869280933" type="line" smooth="yes"/>
      <point x="90" y="97"/>
      <point x="250" y="-30"/>
      <point x="497.82083660131" y="-30.0" type="curve" smooth="yes"/>
      <point x="745" y="-30"/>
      <point x="897" y="100"/>
      <point x="897.24101960786" y="351.7243137254733" type="curve" smooth="yes"/>
      <point x="897" y="559"/>
      <point x="787" y="656"/>
      <point x="524.0287581698699" y="769.2706405228532" type="curve" smooth="yes"/>
      <point x="238" y="889"/>
      <point x="164" y="1004"/>
      <point x="164.30057516346332" y="1134.3910457516733" type="curve" smooth="yes"/>
      <point x="164" y="1302"/>
      <point x="259" y="1434"/>
      <point x="488.28250980393" y="1433.5270326797668" type="curve" smooth="yes"/>
      <point x="711" y="1434"/>
      <point x="823" y="1281"/>
      <point x="823.0157647058234" y="1082.4460130719067" type="curve" smooth="yes"/>
      <point x="823.0157647058234" y="1059.77934640524" type="line"/>
      <point x="868.9633725490534" y="1059.77934640524" type="line"/>
      <point x="868.9633725490534" y="1082.4460130719067" type="line" smooth="yes"/>
      <point x="869" y="1307"/>
      <point x="723" y="1486"/>
      <point x="488.28250980393" y="1486.0" type="curve" smooth="yes"/>
      <point x="256" y="1486"/>
      <point x="117" y="1357"/>
      <point x="117.24797385618666" y="1119.25934640524" type="curve" smooth="yes"/>
      <point x="117" y="920"/>
      <point x="243" y="816"/>
      <point x="512.6709019608433" y="709.9160261438133" type="curve" smooth="yes"/>
      <point x="815" y="592"/>
      <point x="851" y="517"/>
      <point x="851.17207843144" y="349.7569934640466" type="curve" smooth="yes"/>
      <point x="851" y="167"/>
      <point x="728" y="22"/>
      <point x="497.82083660131" y="22.472967320233323" type="curve" smooth="yes"/>
      <point x="268" y="22"/>
      <point x="137" y="155"/>
      <point x="136.9312679738" y="379.5539869280933" type="curve" smooth="yes"/>
      <point x="136.9312679738" y="402.22065359476" type="line"/>
      <point x="90.0" y="402.22065359476" type="line"/>
    </contour>
  </outline>
</glyph>
<glyph name="T" format="2">
  <advance width="977"/>
  <unicode hex="0054"/>
  <outline>
    <contour>
      <point x="24.0" y="1403.6790326797666" type="line"/>
      <point x="466.2268496732167" y="1403.6790326797666" type="line"/>
      <point x="466.2268496732167" y="0.0" type="line"/>
      <point x="511.1077908496367" y="0.0" type="line"/>
      <point x="511.1077908496367" y="1403.6790326797666" type="line"/>
      <point x="953.4176470588066" y="1403.6790326797666" type="line"/>
      <point x="953.4176470588066" y="1456.0" type="line"/>
      <point x="24.0" y="1456.0" type="line"/>
    </contour>
  </outline>
</glyph>
<glyph name="U" format="2">
  <advance width="1125"/>
  <unicode hex="0055"/>
  <outline>
    <contour>
      <point x="155.0" y="510.97647058821" type="line" smooth="yes"/>
      <point x="155" y="120"/>
      <point x="322" y="-30"/>
      <point x="561.8078431372634" y="-30.0" type="curve" smooth="yes"/>
      <point x="803" y="-30"/>
      <point x="969" y="120"/>
      <point x="968.5326797385733" y="510.97647058821" type="curve" smooth="yes"/>
      <point x="968.5326797385733" y="1456.0" type="line"/>
      <point x="921.6014117647735" y="1456.0" type="line"/>
      <point x="921.6014117647735" y="468.30980392154333" type="line" smooth="yes"/>
      <point x="922" y="166"/>
      <point x="774" y="22"/>
      <point x="562.7915032679767" y="22.472967320233323" type="curve" smooth="yes"/>
      <point x="347" y="22"/>
      <point x="200" y="164"/>
      <point x="199.88094117642" y="468.30980392154333" type="curve" smooth="yes"/>
      <point x="199.88094117642" y="1456.0" type="line"/>
      <point x="155.0" y="1456.0" type="line"/>
    </contour>
  </outline>
</glyph>
<glyph name="V" format="2">
  <advance width="1013"/>
  <unicode hex="0056"/>
  <outline>
    <contour>
      <point x="0.0" y="1456.0" type="line"/>
      <point x="447.7222222222701" y="-10.0" type="line"/>
      <point x="563.4666666666667" y="-10.0" type="line"/>
      <point x="1012.6222222222699" y="1456.0" type="line"/>
      <point x="969.7189542483266" y="1456.0" type="line"/>
      <point x="580.00392156856" y="179.36862745094666" type="line" smooth="yes"/>
      <point x="560" y="118"/>
      <point x="529" y="26"/>
      <point x="514.5284313724899" y="-45.86601307190665" type="curve"/>
      <point x="508.76209150320324" y="-45.86601307190665" type="line"/>
      <point x="493" y="26"/>
      <point x="459" y="118"/>
      <point x="439.48627450975334" y="179.36862745094666" type="curve" smooth="yes"/>
      <point x="49.47124183013" y="1456.0" type="line"/>
    </contour>
  </outline>
</glyph>
<glyph name="W" format="2">
  <advance width="1670"/>
  <unicode hex="0057"/>
  <outline>
    <contour>
      <point x="415.2196078430867" y="-10.0" type="line"/>
      <point x="476.0104575163033" y="-10.0" type="line"/>
      <point x="803.7349673202333" y="1310.1915032679767" type="line" smooth="yes"/>
      <point x="814" y="1359"/>
      <point x="822" y="1405"/>
      <point x="824.4369281045133" y="1432.6346405228533" type="curve"/>
      <point x="831.9369281045133" y="1432.6346405228533" type="line"/>
      <point x="835" y="1405"/>
      <point x="843" y="1359"/>
      <point x="854.6892156863167" y="1310.1915032679767" type="curve" smooth="yes"/>
      <point x="1193.60065359476" y="-10.0" type="line"/>
      <point x="1256.52483660131" y="-10.0" type="line"/>
      <point x="1620.6777777777302" y="1456.0" type="line"/>
      <point x="1575.5738562091701" y="1456.0" type="line"/>
      <point x="1271.57549019607" y="159.77843137249002" type="line" smooth="yes"/>
      <point x="1262" y="111"/>
      <point x="1256" y="76"/>
      <point x="1247.5735294117899" y="27.10522875822332" type="curve"/>
      <point x="1242.8071895425035" y="27.10522875822332" type="line"/>
      <point x="1229" y="76"/>
      <point x="1222" y="111"/>
      <point x="1209.9549019608432" y="159.77843137249002" type="curve" smooth="yes"/>
      <point x="881.4117647058233" y="1456.0" type="line"/>
      <point x="796.55098039214" y="1456.0" type="line"/>
      <point x="469.20718954250344" y="159.77843137249002" type="line" smooth="yes"/>
      <point x="459" y="111"/>
      <point x="451" y="76"/>
      <point x="441.72156862751007" y="27.10522875822332" type="curve"/>
      <point x="439.6888888889367" y="27.10522875822332" type="line"/>
      <point x="429" y="76"/>
      <point x="419" y="111"/>
      <point x="408.20228758166" y="159.77843137249002" type="curve" smooth="yes"/>
      <point x="101.40522875822333" y="1456.0" type="line"/>
      <point x="50.0" y="1456.0" type="line"/>
    </contour>
  </outline>
</glyph>
<glyph name="X" format="2">
  <advance width="1133"/>
  <unicode hex="0058"/>
  <outline>
    <contour>
      <point x="25.0" y="0.0" type="line"/>
      <point x="81.98219607845664" y="0.0" type="line"/>
      <point x="574.6030718954867" y="714.044" type="line"/>
      <point x="582.7456862745266" y="714.044" type="line"/>
      <point x="1080.85814379083" y="1456.0" type="line"/>
      <point x="1022.89228758166" y="1456.0" type="line"/>
      <point x="559.8850457516734" y="761.956" type="line"/>
      <point x="549.6090980391567" y="761.956" type="line"/>
    </contour>
    <contour>
      <point x="51.50264052285334" y="1456.0" type="line"/>
      <point x="548.54843137249" y="714.044" type="line"/>
      <point x="549.6014248365367" y="714.044" type="line"/>
      <point x="1036.9899738561865" y="0.0" type="line"/>
      <point x="1106.3771241829702" y="0.0" type="line"/>
      <point x="584.87301960786" y="761.956" type="line"/>
      <point x="582.8363660131" y="761.956" type="line"/>
      <point x="119.82312418296999" y="1456.0" type="line"/>
    </contour>
  </outline>
</glyph>
<glyph name="Y" format="2">
  <advance width="1017"/>
  <unicode hex="0059"/>
  <outline>
    <contour>
      <point x="484.4178300653566" y="0.0" type="line"/>
      <point x="530.3654379084433" y="0.0" type="line"/>
      <point x="530.3654379084433" y="597.7636862745268" type="line"/>
      <point x="1000.7669281045135" y="1456.0" type="line"/>
      <point x="947.7077124183401" y="1456.0" type="line"/>
      <point x="583.6137254902467" y="779.39934640524" type="line" smooth="yes"/>
      <point x="562" y="739"/>
      <point x="541" y="665"/>
      <point x="516.1437908496366" y="614.2617647058232" type="curve"/>
      <point x="504.16013071892326" y="614.2617647058232" type="line"/>
      <point x="479" y="665"/>
      <point x="453" y="739"/>
      <point x="432.3901960784567" y="779.39934640524" type="curve" smooth="yes"/>
      <point x="72.62352941179" y="1456.0" type="line"/>
      <point x="15.0" y="1456.0" type="line"/>
      <point x="484.4178300653566" y="597.7636862745268" type="line"/>
    </contour>
  </outline>
</glyph>
<glyph name="Z" format="2">
  <advance width="894"/>
  <unicode hex="005A"/>
  <outline>
    <contour>
      <point x="-43.276143790830005" y="0.0" type="line"/>
      <point x="940.37524183013" y="0.0" type="line"/>
      <point x="940.37524183013" y="52.32096732023335" type="line"/>
      <point x="29.372000000000014" y="52.32096732023335" type="line"/>
      <point x="902.6059346404666" y="1422.6626928104802" type="line"/>
      <point x="902.6059346404666" y="1456.0" type="line"/>
      <point x="-28.62082352940334" y="1456.0" type="line"/>
      <point x="-28.62082352940334" y="1403.6790326797666" type="line"/>
      <point x="829.9577908496367" y="1403.6790326797666" type="line"/>
      <point x="-43.276143790830005" y="33.337307189520004" type="line"/>
    </contour>
  </outline>
</glyph>
<glyph name="bracketleft" format="2">
  <advance width="390"/>
  <unicode hex="005B"/>
  <outline>
    <contour>
      <point x="144.0" y="-310.0" type="line"/>
      <point x="504.7432156863166" y="-310.0" type="line"/>
      <point x="504.7432156863166" y="-258.61202614381335" type="line"/>
      <point x="191.43294117641997" y="-258.61202614381335" type="line"/>
      <point x="191.43294117641997" y="1404.6120261438132" type="line"/>
      <point x="504.7432156863166" y="1404.6120261438132" type="line"/>
      <point x="504.7432156863166" y="1456.0" type="line"/>
      <point x="144.0" y="1456.0" type="line"/>
    </contour>
  </outline>
</glyph>
<glyph name="backslash" format="2">
  <advance width="492"/>
  <unicode hex="005C"/>
  <outline>
    <contour>
      <point x="-120.16993464046666" y="1456.0" type="line"/>
      <point x="523.02745098035" y="-125.0" type="line"/>
      <point x="612.7705882352267" y="-125.0" type="line"/>
      <point x="-31.777124182970013" y="1456.0" type="line"/>
    </contour>
  </outline>
</glyph>
<glyph name="bracketright" format="2">
  <advance width="390"/>
  <unicode hex="005D"/>
  <outline>
    <contour>
      <point x="245.23359477118004" y="-310.0" type="line"/>
      <point x="245.23359477118004" y="1456.0" type="line"/>
      <point x="-116.49328104570668" y="1456.0" type="line"/>
      <point x="-116.49328104570668" y="1404.6120261438132" type="line"/>
      <point x="196.81699346404667" y="1404.6120261438132" type="line"/>
      <point x="196.81699346404667" y="-258.61202614381335" type="line"/>
      <point x="-116.49328104570668" y="-258.61202614381335" type="line"/>
      <point x="-116.49328104570668" y="-310.0" type="line"/>
    </contour>
  </outline>
</glyph>
<glyph name="asciicircum" format="2">
  <advance width="1088"/>
  <unicode hex="005E"/>
  <outline>
    <contour>
      <point x="25.0" y="720.0" type="line"/>
      <point x="90.38392156855997" y="720.0" type="line"/>
      <point x="543.9881699346433" y="1392.8225882352267" type="line"/>
      <point x="997.5924183005834" y="720.0" type="line"/>
      <point x="1062.9763398692867" y="720.0" type="line"/>
      <point x="561.6801307189234" y="1456.0" type="line"/>
      <point x="526.2962091503633" y="1456.0" type="line"/>
    </contour>
  </outline>
</glyph>
<glyph name="underscore" format="2">
  <advance width="719"/>
  <unicode hex="005F"/>
  <outline>
    <contour>
      <point x="0.0" y="221.1810457516733" type="line"/>
      <point x="719.0385620915567" y="221.1810457516733" type="line"/>
      <point x="719.0385620915567" y="257.64705882358" type="line"/>
      <point x="0.0" y="257.64705882358" type="line"/>
    </contour>
  </outline>
</glyph>
<glyph name="a" format="2">
  <advance width="940"/>
  <unicode hex="0061"/>
  <outline>
    <contour>
      <point x="90.0" y="286.7" type="curve" smooth="yes"/>
      <point x="90" y="53"/>
      <point x="202" y="-20"/>
      <point x="383.48954248369665" y="-20.0" type="curve" smooth="yes"/>
      <point x="563" y="-20"/>
      <point x="694" y="80"/>
      <point x="745.9045751634634" y="164.8" type="curve"/>
      <point x="753" y="104"/>
      <point x="770" y="37"/>
      <point x="793.1901960784568" y="0.0" type="curve"/>
      <point x="833.1261437908299" y="0.0" type="line"/>
      <point x="833.1261437908299" y="16.0" type="line"/>
      <point x="806" y="75"/>
      <point x="791" y="153"/>
      <point x="790.6241830065501" y="240.0" type="curve" smooth="yes"/>
      <point x="790.6241830065501" y="749.0" type="line" smooth="yes"/>
      <point x="791" y="1004"/>
      <point x="679" y="1111"/>
      <point x="483.44771241833996" y="1111.0" type="curve" smooth="yes"/>
      <point x="274" y="1111"/>
      <point x="163" y="994"/>
      <point x="162.88692810451334" y="788.0163398692866" type="curve" smooth="yes"/>
      <point x="162.88692810451334" y="783.0163398692866" type="line"/>
      <point x="204.87320261441" y="783.0163398692866" type="line"/>
      <point x="204.87320261441" y="788.0163398692866" type="line" smooth="yes"/>
      <point x="205" y="947"/>
      <point x="282" y="1059"/>
      <point x="477.09738562096" y="1059.3653594771467" type="curve" smooth="yes"/>
      <point x="674" y="1059"/>
      <point x="744" y="936"/>
      <point x="743.7875816994167" y="749.0" type="curve" smooth="yes"/>
      <point x="743.7875816994167" y="614.10065359476" type="line"/>
      <point x="454.9294117647733" y="614.10065359476" type="line" smooth="yes"/>
      <point x="225" y="614"/>
      <point x="90" y="506"/>
    </contour>
    <contour>
      <point x="135.85294117642002" y="276.0" type="curve" smooth="yes"/>
      <point x="136" y="480"/>
      <point x="255" y="563"/>
      <point x="477.09738562096" y="562.69934640524" type="curve" smooth="yes"/>
      <point x="743.7875816994167" y="562.69934640524" type="line"/>
      <point x="743.7875816994167" y="316.15098039214" type="line"/>
      <point x="744" y="144"/>
      <point x="572" y="32"/>
      <point x="396.12614379083004" y="31.63464052285333" type="curve" smooth="yes"/>
      <point x="223" y="32"/>
      <point x="136" y="91"/>
    </contour>
  </outline>
</glyph>
<glyph name="b" format="2">
  <advance width="1001"/>
  <unicode hex="0062"/>
  <outline>
    <contour>
      <point x="148.0" y="0.0" type="line"/>
      <point x="193.4526013071333" y="0.0" type="line"/>
      <point x="193.57226143784666" y="142.63490196084334" type="line"/>
      <point x="189.09861437904001" y="142.63490196084334" type="line"/>
      <point x="256" y="54"/>
      <point x="386" y="-20"/>
      <point x="545.30567320262" y="-20.0" type="curve" smooth="yes"/>
      <point x="783" y="-20"/>
      <point x="915" y="208"/>
      <point x="914.7711111110633" y="524.5" type="curve" smooth="yes"/>
      <point x="914.7711111110633" y="556.5" type="line" smooth="yes"/>
      <point x="915" y="873"/>
      <point x="783" y="1101"/>
      <point x="545.30567320262" y="1101.0" type="curve" smooth="yes"/>
      <point x="386" y="1101"/>
      <point x="272" y="1039"/>
      <point x="194.31160784308668" y="951.3650980391567" type="curve"/>
      <point x="194.31160784308668" y="1536.0" type="line"/>
      <point x="148.0" y="1536.0" type="line"/>
    </contour>
    <contour>
      <point x="194.31160784308668" y="215.48653594774333" type="curve"/>
      <point x="194.31160784308668" y="865.5134640522567" type="line"/>
      <point x="240" y="953"/>
      <point x="369" y="1047"/>
      <point x="525.1450718954867" y="1046.7807058823867" type="curve" smooth="yes"/>
      <point x="761" y="1047"/>
      <point x="868" y="881"/>
      <point x="867.7185098039299" y="588.5" type="curve" smooth="yes"/>
      <point x="867.7185098039299" y="492.5" type="line" smooth="yes"/>
      <point x="868" y="200"/>
      <point x="763" y="34"/>
      <point x="520.87840522882" y="34.219294117613344" type="curve" smooth="yes"/>
      <point x="360" y="34"/>
      <point x="246" y="117"/>
    </contour>
  </outline>
</glyph>
<glyph name="c" format="2">
  <advance width="780"/>
  <unicode hex="0063"/>
  <outline>
    <contour>
      <point x="85.0" y="524.5" type="line" smooth="yes"/>
      <point x="85" y="168"/>
      <point x="240" y="-30"/>
      <point x="477.51503267976665" y="-30.0" type="curve" smooth="yes"/>
      <point x="721" y="-30"/>
      <point x="829" y="132"/>
      <point x="828.6098039215433" y="343.96732026142666" type="curve" smooth="yes"/>
      <point x="828.6098039215433" y="348.96732026142666" type="line"/>
      <point x="785.8901960784567" y="348.96732026142666" type="line"/>
      <point x="785.8901960784567" y="343.96732026142666" type="line" smooth="yes"/>
      <point x="786" y="161"/>
      <point x="700" y="24"/>
      <point x="475.3816993464333" y="23.751633986900003" type="curve" smooth="yes"/>
      <point x="250" y="24"/>
      <point x="131" y="195"/>
      <point x="130.55294117642" y="492.5" type="curve" smooth="yes"/>
      <point x="130.55294117642" y="588.5" type="line" smooth="yes"/>
      <point x="131" y="884"/>
      <point x="247" y="1056"/>
      <point x="484.98169934643334" y="1056.1816993464333" type="curve" smooth="yes"/>
      <point x="707" y="1056"/>
      <point x="786" y="920"/>
      <point x="785.8901960784567" y="737.0326797385733" type="curve" smooth="yes"/>
      <point x="785.8901960784567" y="732.0326797385733" type="line"/>
      <point x="828.6098039215433" y="732.0326797385733" type="line"/>
      <point x="828.6098039215433" y="737.0326797385733" type="line" smooth="yes"/>
      <point x="829" y="949"/>
      <point x="718" y="1111"/>
      <point x="486.0483660131" y="1111.0" type="curve" smooth="yes"/>
      <point x="237" y="1111"/>
      <point x="85" y="912"/>
      <point x="85.0" y="556.5" type="curve" smooth="yes"/>
    </contour>
  </outline>
</glyph>
<glyph name="d" format="2">
  <advance width="1001"/>
  <unicode hex="0064"/>
  <outline>
    <contour>
      <point x="85.0" y="524.5" type="line" smooth="yes"/>
      <point x="85" y="208"/>
      <point x="217" y="-20"/>
      <point x="454.4654379084433" y="-20.0" type="curve" smooth="yes"/>
      <point x="615" y="-20"/>
      <point x="744" y="54"/>
      <point x="809.68883660131" y="142.63490196084334" type="curve"/>
      <point x="806.1988496732167" y="142.63490196084334" type="line"/>
      <point x="807.3021699346433" y="0.0" type="line"/>
      <point x="852.7547712417767" y="0.0" type="line"/>
      <point x="852.7547712417767" y="1536.0" type="line"/>
      <point x="805.4595032679767" y="1536.0" type="line"/>
      <point x="805.4595032679767" y="951.3650980391567" type="line"/>
      <point x="729" y="1039"/>
      <point x="615" y="1101"/>
      <point x="454.4654379084433" y="1101.0" type="curve" smooth="yes"/>
      <point x="217" y="1101"/>
      <point x="85" y="873"/>
      <point x="85.0" y="556.5" type="curve" smooth="yes"/>
    </contour>
    <contour>
      <point x="131.06894117642" y="492.5" type="curve" smooth="yes"/>
      <point x="131.06894117642" y="588.5" type="line" smooth="yes"/>
      <point x="131" y="881"/>
      <point x="239" y="1047"/>
      <point x="477.9090457516733" y="1046.7807058823867" type="curve" smooth="yes"/>
      <point x="640" y="1047"/>
      <point x="755" y="963"/>
      <point x="805.4595032679767" y="865.5134640522567" type="curve"/>
      <point x="805.4595032679767" y="215.48653594774333" type="line"/>
      <point x="755" y="118"/>
      <point x="640" y="34"/>
      <point x="477.9090457516733" y="34.219294117613344" type="curve" smooth="yes"/>
      <point x="239" y="34"/>
      <point x="131" y="200"/>
    </contour>
  </outline>
</glyph>
<glyph name="e" format="2">
  <advance width="893"/>
  <unicode hex="0065"/>
  <outline>
    <contour>
      <point x="85.0" y="524.5" type="line" smooth="yes"/>
      <point x="85" y="168"/>
      <point x="234" y="-30"/>
      <point x="507.2326797385733" y="-30.0" type="curve" smooth="yes"/>
      <point x="660" y="-30"/>
      <point x="768" y="25"/>
      <point x="835.1588235294032" y="133.7" type="curve"/>
      <point x="783.0738562091701" y="163.15294117642003" type="line"/>
      <point x="714" y="75"/>
      <point x="638" y="25"/>
      <point x="496.5660130719067" y="24.735294117613336" type="curve" smooth="yes"/>
      <point x="233" y="25"/>
      <point x="125" y="178"/>
      <point x="125.38562091499335" y="492.5" type="curve" smooth="yes"/>
      <point x="125.38562091499335" y="588.5" type="line" smooth="yes"/>
      <point x="125" y="917"/>
      <point x="252" y="1056"/>
      <point x="453.27843137248993" y="1056.2647058823866" type="curve" smooth="yes"/>
      <point x="716" y="1056"/>
      <point x="783" y="915"/>
      <point x="783.1238562091701" y="571.1254901960699" type="curve" smooth="yes"/>
      <point x="783.1238562091701" y="597.60065359476" type="line"/>
      <point x="85.98300653595334" y="597.60065359476" type="line"/>
      <point x="85.98300653595334" y="546.4156862745267" type="line"/>
      <point x="831.7934640522566" y="546.4156862745267" type="line"/>
      <point x="831.7934640522566" y="574.5" type="line" smooth="yes"/>
      <point x="832" y="956"/>
      <point x="705" y="1111"/>
      <point x="475.14771241834" y="1111.0" type="curve" smooth="yes"/>
      <point x="239" y="1111"/>
      <point x="85" y="912"/>
      <point x="85.0" y="556.5" type="curve" smooth="yes"/>
    </contour>
  </outline>
</glyph>
<glyph name="f" format="2">
  <advance width="530"/>
  <unicode hex="0066"/>
  <outline>
    <contour>
      <point x="228.73568627452664" y="0.0" type="line"/>
      <point x="274.06363398689996" y="0.0" type="line"/>
      <point x="274.06363398689996" y="1049.8486797385733" type="line"/>
      <point x="274.06363398689996" y="1060.1526797385734" type="line"/>
      <point x="274.06363398689996" y="1167.2188235294034" type="line" smooth="yes"/>
      <point x="274" y="1395"/>
      <point x="355" y="1509"/>
      <point x="495.9263006535666" y="1508.6120261438132" type="curve" smooth="yes"/>
      <point x="536" y="1509"/>
      <point x="580" y="1501"/>
      <point x="605.7921830065501" y="1492.6720261438134" type="curve"/>
      <point x="616.62650980393" y="1540.0" type="line"/>
      <point x="582" y="1548"/>
      <point x="537" y="1556"/>
      <point x="497.91665359476" y="1556.0" type="curve" smooth="yes"/>
      <point x="330" y="1556"/>
      <point x="229" y="1421"/>
      <point x="228.73568627452664" y="1167.2188235294034" type="curve" smooth="yes"/>
    </contour>
    <contour>
      <point x="25.0" y="1027.03403921572" type="line"/>
      <point x="540.9185882352267" y="1027.03403921572" type="line"/>
      <point x="540.9185882352267" y="1081.0" type="line"/>
      <point x="256.8103006535667" y="1081.0" type="line"/>
      <point x="243.1043660131" y="1081.0" type="line"/>
      <point x="25.0" y="1081.0" type="line"/>
    </contour>
  </outline>
</glyph>
<glyph name="g" format="2">
  <advance width="1001"/>
  <unicode hex="0067"/>
  <outline>
    <contour>
      <point x="127.47126797380001" y="-334.8666666666667" type="line"/>
      <point x="209" y="-397"/>
      <point x="323" y="-436"/>
      <point x="462.99505882358005" y="-436.0" type="curve" smooth="yes"/>
      <point x="695" y="-436"/>
      <point x="853" y="-274"/>
      <point x="852.7547712417767" y="23.934640522853332" type="curve" smooth="yes"/>
      <point x="852.7547712417767" y="1081.0" type="line"/>
      <point x="807.3021699346433" y="1081.0" type="line"/>
      <point x="806.1988496732167" y="938.3650980391567" type="line"/>
      <point x="809.68883660131" y="938.3650980391567" type="line"/>
      <point x="744" y="1027"/>
      <point x="615" y="1101"/>
      <point x="454.4654379084433" y="1101.0" type="curve" smooth="yes"/>
      <point x="217" y="1101"/>
      <point x="85" y="873"/>
      <point x="85.0" y="556.5" type="curve" smooth="yes"/>
      <point x="85.0" y="524.5" type="line" smooth="yes"/>
      <point x="85" y="194"/>
      <point x="207" y="-20"/>
      <point x="440.59877124177666" y="-20.0" type="curve" smooth="yes"/>
      <point x="620" y="-20"/>
      <point x="729" y="42"/>
      <point x="805.4595032679767" y="129.63490196084334" type="curve"/>
      <point x="805.4595032679767" y="23.934640522853332" type="line" smooth="yes"/>
      <point x="805" y="-236"/>
      <point x="673" y="-385"/>
      <point x="457.7657254902466" y="-384.5613594771467" type="curve" smooth="yes"/>
      <point x="327" y="-385"/>
      <point x="201" y="-346"/>
      <point x="135.52065359475998" y="-287.79202614381336" type="curve"/>
    </contour>
    <contour>
      <point x="131.06894117642" y="488.23333333333335" type="curve" smooth="yes"/>
      <point x="131.06894117642" y="584.2333333333333" type="line" smooth="yes"/>
      <point x="131" y="876"/>
      <point x="236" y="1047"/>
      <point x="485.37571241833996" y="1046.7807058823867" type="curve" smooth="yes"/>
      <point x="648" y="1047"/>
      <point x="761" y="947"/>
      <point x="805.4595032679767" y="865.5134640522567" type="curve"/>
      <point x="805.4595032679767" y="215.48653594774333" type="line"/>
      <point x="765" y="118"/>
      <point x="647" y="34"/>
      <point x="470.4423790850067" y="34.219294117613344" type="curve" smooth="yes"/>
      <point x="237" y="34"/>
      <point x="131" y="196"/>
    </contour>
  </outline>
</glyph>
<glyph name="h" format="2">
  <advance width="962"/>
  <unicode hex="0068"/>
  <outline>
    <contour>
      <point x="148.0" y="0.0" type="line"/>
      <point x="194.31160784308668" y="0.0" type="line"/>
      <point x="194.31160784308668" y="822.2785620915568" type="line"/>
      <point x="256" y="943"/>
      <point x="369" y="1049"/>
      <point x="530.4067450981066" y="1048.7296993464333" type="curve" smooth="yes"/>
      <point x="696" y="1049"/>
      <point x="777" y="959"/>
      <point x="776.81694117642" y="778.4320261438133" type="curve" smooth="yes"/>
      <point x="776.81694117642" y="0.0" type="line"/>
      <point x="824.1122091503635" y="0.0" type="line"/>
      <point x="824.1122091503635" y="776.4320261438133" type="line" smooth="yes"/>
      <point x="824" y="995"/>
      <point x="725" y="1101"/>
      <point x="526.3674117647734" y="1101.0" type="curve" smooth="yes"/>
      <point x="358" y="1101"/>
      <point x="270" y="1032"/>
      <point x="194.31160784308668" y="896.08287581703" type="curve"/>
      <point x="194.31160784308668" y="1536.0" type="line"/>
      <point x="148.0" y="1536.0" type="line"/>
    </contour>
  </outline>
</glyph>
<glyph name="i" format="2">
  <advance width="360"/>
  <unicode hex="0069"/>
  <outline>
    <contour>
      <point x="157.0" y="0.0" type="line"/>
      <point x="203.31160784308668" y="0.0" type="line"/>
      <point x="203.31160784308668" y="1081.0" type="line"/>
      <point x="157.0" y="1081.0" type="line"/>
    </contour>
    <contour>
      <point x="152.93464052285333" y="1415.1183529411935" type="curve" smooth="yes"/>
      <point x="153" y="1384"/>
      <point x="164" y="1362"/>
      <point x="180.64763398690002" y="1361.6550065359534" type="curve" smooth="yes"/>
      <point x="196" y="1362"/>
      <point x="206" y="1384"/>
      <point x="206.39330718952" y="1415.1183529411935" type="curve" smooth="yes"/>
      <point x="206" y="1445"/>
      <point x="196" y="1469"/>
      <point x="179.66397385618666" y="1468.5816993464334" type="curve" smooth="yes"/>
      <point x="163" y="1469"/>
      <point x="153" y="1445"/>
    </contour>
  </outline>
</glyph>
<glyph name="j" format="2">
  <advance width="360"/>
  <unicode hex="006A"/>
  <outline>
    <contour>
      <point x="-136.7202614378467" y="-415.73333333333335" type="line"/>
      <point x="-113" y="-423"/>
      <point x="-79" y="-436"/>
      <point x="-38.48169934643333" y="-436.0" type="curve" smooth="yes"/>
      <point x="120" y="-436"/>
      <point x="203" y="-331"/>
      <point x="202.85294117642002" y="-90.0" type="curve" smooth="yes"/>
      <point x="202.85294117642002" y="1081.0" type="line"/>
      <point x="157.0" y="1081.0" type="line"/>
      <point x="157.0" y="-126.06535947714666" type="line" smooth="yes"/>
      <point x="157" y="-311"/>
      <point x="89" y="-385"/>
      <point x="-30.79607843144001" y="-384.59869281048" type="curve" smooth="yes"/>
      <point x="-66" y="-385"/>
      <point x="-111" y="-374"/>
      <point x="-136.7202614378467" y="-366.0320261438133" type="curve"/>
    </contour>
    <contour>
      <point x="152.93464052285333" y="1415.7490196078602" type="curve" smooth="yes"/>
      <point x="153" y="1384"/>
      <point x="164" y="1361"/>
      <point x="180.4183006535667" y="1361.4830065359536" type="curve" smooth="yes"/>
      <point x="195" y="1361"/>
      <point x="206" y="1384"/>
      <point x="205.93464052285333" y="1415.7490196078602" type="curve" smooth="yes"/>
      <point x="206" y="1444"/>
      <point x="195" y="1469"/>
      <point x="179.43464052285333" y="1468.5816993464334" type="curve" smooth="yes"/>
      <point x="163" y="1469"/>
      <point x="153" y="1444"/>
    </contour>
  </outline>
</glyph>
<glyph name="k" format="2">
  <advance width="891"/>
  <unicode hex="006B"/>
  <outline>
    <contour>
      <point x="148.0" y="0.0" type="line"/>
      <point x="193.85294117642002" y="0.0" type="line"/>
      <point x="193.85294117642002" y="516.7846405228534" type="line"/>
      <point x="853.0159084967968" y="1081.0" type="line"/>
      <point x="741.7379084967968" y="1081.0" type="line"/>
      <point x="194.31160784308668" y="599.0449934640467" type="line"/>
      <point x="194.31160784308668" y="1536.0" type="line"/>
      <point x="148.0" y="1536.0" type="line"/>
    </contour>
    <contour>
      <point x="819.4343790850068" y="0.0" type="line"/>
      <point x="906.4575163398832" y="0.0" type="line"/>
      <point x="411.59083660131" y="731.7379084967968" type="line"/>
      <point x="351.72564705880666" y="682.25822222227" type="line"/>
    </contour>
  </outline>
</glyph>
<glyph name="m" format="2">
  <advance width="1550"/>
  <unicode hex="006D"/>
  <outline>
    <contour>
      <point x="148.0" y="0.0" type="line"/>
      <point x="194.31160784308668" y="0.0" type="line"/>
      <point x="194.31160784308668" y="864.9452287582234" type="line"/>
      <point x="254" y="957"/>
      <point x="370" y="1049"/>
      <point x="507.60674509810667" y="1048.7296993464333" type="curve" smooth="yes"/>
      <point x="651" y="1049"/>
      <point x="754" y="975"/>
      <point x="755.7502745097532" y="799.7653594771466" type="curve" smooth="yes"/>
      <point x="755.7502745097532" y="0.0" type="line"/>
      <point x="804.1122091503635" y="0.0" type="line"/>
      <point x="804.1122091503635" y="864.9452287582234" type="line"/>
      <point x="858" y="957"/>
      <point x="960" y="1049"/>
      <point x="1113.1406797385735" y="1048.7296993464333" type="curve" smooth="yes"/>
      <point x="1272" y="1049"/>
      <point x="1363" y="975"/>
      <point x="1366.5345359477433" y="797.6320261438134" type="curve" smooth="yes"/>
      <point x="1366.5345359477433" y="0.0" type="line"/>
      <point x="1412.9291503267834" y="0.0" type="line"/>
      <point x="1412.9291503267834" y="828.69869281048" type="line" smooth="yes"/>
      <point x="1413" y="977"/>
      <point x="1298" y="1101"/>
      <point x="1134.2336339868998" y="1101.0" type="curve" smooth="yes"/>
      <point x="982" y="1101"/>
      <point x="852" y="1025"/>
      <point x="782.4976209149934" y="910.75879738559" type="curve"/>
      <point x="786.7419346404668" y="910.75879738559" type="line"/>
      <point x="755" y="1030"/>
      <point x="660" y="1101"/>
      <point x="525.7046666666668" y="1101.0" type="curve" smooth="yes"/>
      <point x="380" y="1101"/>
      <point x="275" y="1042"/>
      <point x="189.09861437904001" y="918.7301960784567" type="curve"/>
      <point x="193.57226143784666" y="918.7301960784567" type="line"/>
      <point x="193.4526013071333" y="1081.0" type="line"/>
      <point x="148.0" y="1081.0" type="line"/>
    </contour>
  </outline>
</glyph>
<glyph name="n" format="2">
  <advance width="962"/>
  <unicode hex="006E"/>
  <outline>
    <contour>
      <point x="148.0" y="0.0" type="line"/>
      <point x="194.31160784308668" y="0.0" type="line"/>
      <point x="194.31160784308668" y="854.2785620915568" type="line"/>
      <point x="253" y="952"/>
      <point x="357" y="1049"/>
      <point x="511.2067450981067" y="1048.7296993464333" type="curve" smooth="yes"/>
      <point x="691" y="1049"/>
      <point x="777" y="962"/>
      <point x="776.81694117642" y="761.3653594771466" type="curve" smooth="yes"/>
      <point x="776.81694117642" y="0.0" type="line"/>
      <point x="824.1122091503635" y="0.0" type="line"/>
      <point x="824.1122091503635" y="748.69869281048" type="line" smooth="yes"/>
      <point x="824" y="1004"/>
      <point x="716" y="1101"/>
      <point x="535.7046666666668" y="1101.0" type="curve" smooth="yes"/>
      <point x="386" y="1101"/>
      <point x="273" y="1043"/>
      <point x="189.09861437904001" y="918.7301960784567" type="curve"/>
      <point x="193.57226143784666" y="918.7301960784567" type="line"/>
      <point x="193.4526013071333" y="1081.0" type="line"/>
      <point x="148.0" y="1081.0" type="line"/>
    </contour>
  </outline>
</glyph>
<glyph name="o" format="2">
  <advance width="995"/>
  <unicode hex="006F"/>
  <outline>
    <contour>
      <point x="85.0" y="524.5" type="line" smooth="yes"/>
      <point x="85" y="168"/>
      <point x="246" y="-30"/>
      <point x="497.3156862745267" y="-30.0" type="curve" smooth="yes"/>
      <point x="749" y="-30"/>
      <point x="911" y="168"/>
      <point x="910.69803921572" y="524.5" type="curve" smooth="yes"/>
      <point x="910.69803921572" y="556.5" type="line" smooth="yes"/>
      <point x="911" y="912"/>
      <point x="749" y="1111"/>
      <point x="497.3156862745267" y="1111.0" type="curve" smooth="yes"/>
      <point x="246" y="1111"/>
      <point x="85" y="912"/>
      <point x="85.0" y="556.5" type="curve" smooth="yes"/>
    </contour>
    <contour>
      <point x="131.06894117642" y="588.5" type="line" smooth="yes"/>
      <point x="131" y="884"/>
      <point x="249" y="1057"/>
      <point x="497.3156862745267" y="1056.7807058823867" type="curve" smooth="yes"/>
      <point x="746" y="1057"/>
      <point x="865" y="891"/>
      <point x="864.6290980391567" y="588.5" type="curve" smooth="yes"/>
      <point x="864.6290980391567" y="492.5" type="line" smooth="yes"/>
      <point x="865" y="198"/>
      <point x="737" y="24"/>
      <point x="497.3156862745267" y="24.219294117613344" type="curve" smooth="yes"/>
      <point x="257" y="24"/>
      <point x="131" y="198"/>
      <point x="131.06894117642" y="492.5" type="curve" smooth="yes"/>
    </contour>
  </outline>
</glyph>
<glyph name="p" format="2">
  <advance width="1001"/>
  <unicode hex="0070"/>
  <outline>
    <contour>
      <point x="148.0" y="-416.0" type="line"/>
      <point x="194.31160784308668" y="-416.0" type="line"/>
      <point x="194.31160784308668" y="122.16823529417668" type="line"/>
      <point x="272" y="34"/>
      <point x="386" y="-20"/>
      <point x="545.30567320262" y="-20.0" type="curve" smooth="yes"/>
      <point x="783" y="-20"/>
      <point x="915" y="208"/>
      <point x="914.7711111110633" y="524.5" type="curve" smooth="yes"/>
      <point x="914.7711111110633" y="556.5" type="line" smooth="yes"/>
      <point x="915" y="873"/>
      <point x="783" y="1101"/>
      <point x="545.30567320262" y="1101.0" type="curve" smooth="yes"/>
      <point x="386" y="1101"/>
      <point x="257" y="1027"/>
      <point x="189.09861437904001" y="938.3650980391567" type="curve"/>
      <point x="193.57226143784666" y="938.3650980391567" type="line"/>
      <point x="193.4526013071333" y="1081.0" type="line"/>
      <point x="148.0" y="1081.0" type="line"/>
    </contour>
    <contour>
      <point x="194.31160784308668" y="202.68653594774335" type="curve"/>
      <point x="194.31160784308668" y="876.1801307189234" type="line"/>
      <point x="243" y="960"/>
      <point x="361" y="1047"/>
      <point x="526.2117385621534" y="1046.7807058823867" type="curve" smooth="yes"/>
      <point x="760" y="1047"/>
      <point x="868" y="881"/>
      <point x="867.7185098039299" y="588.5" type="curve" smooth="yes"/>
      <point x="867.7185098039299" y="492.5" type="line" smooth="yes"/>
      <point x="868" y="200"/>
      <point x="757" y="34"/>
      <point x="520.87840522882" y="34.219294117613344" type="curve" smooth="yes"/>
      <point x="346" y="34"/>
      <point x="238" y="130"/>
    </contour>
  </outline>
</glyph>
<glyph name="q" format="2">
  <advance width="1001"/>
  <unicode hex="0071"/>
  <outline>
    <contour>
      <point x="85.0" y="524.5" type="line" smooth="yes"/>
      <point x="85" y="208"/>
      <point x="217" y="-20"/>
      <point x="454.6947712417766" y="-20.0" type="curve" smooth="yes"/>
      <point x="615" y="-20"/>
      <point x="729" y="42"/>
      <point x="805.0581699346434" y="129.92156862751" type="curve"/>
      <point x="805.0581699346434" y="130.17156862751" type="line"/>
      <point x="805.0581699346434" y="-416.0" type="line"/>
      <point x="853.3281045751099" y="-416.0" type="line"/>
      <point x="853.3281045751099" y="1081.0" type="line"/>
      <point x="806.9581699346434" y="1081.0" type="line"/>
      <point x="806.6575163398834" y="938.07843137249" type="line"/>
      <point x="809.0581699346434" y="938.07843137249" type="line"/>
      <point x="744" y="1028"/>
      <point x="615" y="1101"/>
      <point x="454.6947712417766" y="1101.0" type="curve" smooth="yes"/>
      <point x="217" y="1101"/>
      <point x="85" y="873"/>
      <point x="85.0" y="556.5" type="curve" smooth="yes"/>
    </contour>
    <contour>
      <point x="131.06894117642" y="492.5" type="curve" smooth="yes"/>
      <point x="131.06894117642" y="588.5" type="line" smooth="yes"/>
      <point x="131" y="896"/>
      <point x="249" y="1047"/>
      <point x="488.57571241834" y="1046.7807058823867" type="curve" smooth="yes"/>
      <point x="654" y="1047"/>
      <point x="761" y="960"/>
      <point x="805.4595032679767" y="876.1801307189234" type="curve"/>
      <point x="805.4595032679767" y="215.48653594774333" type="line"/>
      <point x="755" y="118"/>
      <point x="640" y="34"/>
      <point x="477.9090457516733" y="34.219294117613344" type="curve" smooth="yes"/>
      <point x="239" y="34"/>
      <point x="131" y="200"/>
    </contour>
  </outline>
</glyph>
<glyph name="r" format="2">
  <advance width="623"/>
  <unicode hex="0072"/>
  <outline>
    <contour>
      <point x="148.0" y="0.0" type="line"/>
      <point x="194.31160784308668" y="0.0" type="line"/>
      <point x="194.31160784308668" y="857.3181699346433" type="line"/>
      <point x="253" y="970"/>
      <point x="361" y="1058"/>
      <point x="493.0797647058234" y="1058.2553725490534" type="curve" smooth="yes"/>
      <point x="532" y="1058"/>
      <point x="562" y="1052"/>
      <point x="593.3569934640466" y="1046.3567058823867" type="curve"/>
      <point x="593.3569934640466" y="1097.0" type="line"/>
      <point x="578" y="1102"/>
      <point x="537" y="1111"/>
      <point x="502.6180915032034" y="1111.0" type="curve" smooth="yes"/>
      <point x="359" y="1111"/>
      <point x="258" y="1031"/>
      <point x="189.09861437904001" y="938.48679738559" type="curve"/>
      <point x="193.57226143784666" y="938.48679738559" type="line"/>
      <point x="193.4526013071333" y="1081.0" type="line"/>
      <point x="148.0" y="1081.0" type="line"/>
    </contour>
  </outline>
</glyph>
<glyph name="s" format="2">
  <advance width="835"/>
  <unicode hex="0073"/>
  <outline>
    <contour>
      <point x="80.0" y="316.96732026142666" type="line"/>
      <point x="80.0" y="310.98366013071336" type="line" smooth="yes"/>
      <point x="80" y="90"/>
      <point x="188" y="-30"/>
      <point x="421.69477124177666" y="-30.0" type="curve" smooth="yes"/>
      <point x="646" y="-30"/>
      <point x="756" y="90"/>
      <point x="755.5228758170301" y="275.83398692809334" type="curve" smooth="yes"/>
      <point x="756" y="442"/>
      <point x="656" y="520"/>
      <point x="445.3797385621533" y="581.25098039214" type="curve" smooth="yes"/>
      <point x="233" y="642"/>
      <point x="188" y="720"/>
      <point x="187.79313725487668" y="852.74967320262" type="curve" smooth="yes"/>
      <point x="188" y="996"/>
      <point x="286" y="1062"/>
      <point x="450.01503267976665" y="1062.49869281048" type="curve" smooth="yes"/>
      <point x="615" y="1062"/>
      <point x="713" y="972"/>
      <point x="713.3385620915567" y="778.7630718954866" type="curve" smooth="yes"/>
      <point x="713.3385620915567" y="764.34803921572" type="line"/>
      <point x="759.6248366013101" y="764.34803921572" type="line"/>
      <point x="759.6248366013101" y="769.34803921572" type="line" smooth="yes"/>
      <point x="760" y="988"/>
      <point x="645" y="1111"/>
      <point x="450.01503267976665" y="1111.0" type="curve" smooth="yes"/>
      <point x="264" y="1111"/>
      <point x="139" y="1010"/>
      <point x="139.02320261441" y="837.49934640524" type="curve" smooth="yes"/>
      <point x="139" y="697"/>
      <point x="206" y="594"/>
      <point x="416.94444444439665" y="537.04901960786" type="curve" smooth="yes"/>
      <point x="628" y="480"/>
      <point x="699" y="407"/>
      <point x="699.05196078428" y="258.45032679738" type="curve" smooth="yes"/>
      <point x="699" y="103"/>
      <point x="601" y="19"/>
      <point x="421.69477124177666" y="18.501307189520006" type="curve" smooth="yes"/>
      <point x="246" y="19"/>
      <point x="126" y="114"/>
      <point x="125.85294117642002" y="310.98366013071336" type="curve" smooth="yes"/>
      <point x="125.85294117642002" y="316.96732026142666" type="line"/>
    </contour>
  </outline>
</glyph>
<glyph name="t" format="2">
  <advance width="588"/>
  <unicode hex="0074"/>
  <outline>
    <contour>
      <point x="0.0" y="1027.03403921572" type="line"/>
      <point x="538.2162352941767" y="1027.03403921572" type="line"/>
      <point x="538.2162352941767" y="1081.0" type="line"/>
      <point x="0.0" y="1081.0" type="line"/>
    </contour>
    <contour>
      <point x="218.0803660131" y="263.93464052285333" type="line" smooth="yes"/>
      <point x="218" y="60"/>
      <point x="289" y="-30"/>
      <point x="403.21683660131" y="-30.0" type="curve" smooth="yes"/>
      <point x="448" y="-30"/>
      <point x="485" y="-20"/>
      <point x="508.59267973857334" y="-9.746666666666666" type="curve"/>
      <point x="508.59267973857334" y="36.105307189520005" type="line"/>
      <point x="477" y="26"/>
      <point x="449" y="21"/>
      <point x="413.35947712416333" y="21.38797385618666" type="curve" smooth="yes"/>
      <point x="309" y="21"/>
      <point x="264" y="77"/>
      <point x="264.3919738561867" y="256.4679738561867" type="curve" smooth="yes"/>
      <point x="264.7" y="1322.0" type="line"/>
      <point x="217.66666666666669" y="1322.0" type="line"/>
      <point x="218.0803660131" y="1060.2540130719067" type="line"/>
      <point x="218.0803660131" y="1049.74734640524" type="line"/>
    </contour>
  </outline>
</glyph>
<glyph name="u" format="2">
  <advance width="962"/>
  <unicode hex="0075"/>
  <outline>
    <contour>
      <point x="138.0" y="332.30130718952" type="line" smooth="yes"/>
      <point x="138" y="77"/>
      <point x="251" y="-20"/>
      <point x="415.74087581703003" y="-20.0" type="curve" smooth="yes"/>
      <point x="591" y="-20"/>
      <point x="691" y="35"/>
      <point x="770.9632679738" y="140.93647058821" type="curve"/>
      <point x="768.6229542483268" y="140.93647058821" type="line"/>
      <point x="768.6596078430866" y="0.0" type="line"/>
      <point x="814.1122091503635" y="0.0" type="line"/>
      <point x="814.1122091503635" y="1081.0" type="line"/>
      <point x="766.81694117642" y="1081.0" type="line"/>
      <point x="766.81694117642" y="216.0547712417767" type="line"/>
      <point x="691" y="104"/>
      <point x="602" y="32"/>
      <point x="448.8551372548767" y="32.27030065356668" type="curve" smooth="yes"/>
      <point x="269" y="32"/>
      <point x="184" y="117"/>
      <point x="184.31160784308668" y="330.30130718952" type="curve" smooth="yes"/>
      <point x="184.31160784308668" y="1081.0" type="line"/>
      <point x="138.0" y="1081.0" type="line"/>
    </contour>
  </outline>
</glyph>
<glyph name="v" format="2">
  <advance width="910"/>
  <unicode hex="0076"/>
  <outline>
    <contour>
      <point x="0.0" y="1081.0" type="line"/>
      <point x="421.72679738559" y="0.0" type="line"/>
      <point x="488.87700653595334" y="0.0" type="line"/>
      <point x="909.5431372548766" y="1081.0" type="line"/>
      <point x="838.2875816994167" y="1081.0" type="line"/>
      <point x="505.43660130713334" y="207.13464052285332" type="line" smooth="yes"/>
      <point x="485" y="153"/>
      <point x="473" y="133"/>
      <point x="458.14673202619997" y="48.891503267976674" type="curve"/>
      <point x="450.71339869286663" y="48.891503267976674" type="line"/>
      <point x="436" y="133"/>
      <point x="425" y="153"/>
      <point x="403.42352941179" y="207.13464052285332" type="curve" smooth="yes"/>
      <point x="74.52352941179" y="1081.0" type="line"/>
    </contour>
  </outline>
</glyph>
<glyph name="w" format="2">
  <advance width="1462"/>
  <unicode hex="0077"/>
  <outline>
    <contour>
      <point x="25.0" y="1081.0" type="line"/>
      <point x="308.60261437904" y="0.0" type="line"/>
      <point x="414.13243137249" y="0.0" type="line"/>
      <point x="688.0111111110632" y="830.8686274509466" type="line" smooth="yes"/>
      <point x="706" y="884"/>
      <point x="714" y="923"/>
      <point x="727.3647058823867" y="976.5352941176134" type="curve"/>
      <point x="736.2313725490533" y="976.5352941176134" type="line"/>
      <point x="748" y="923"/>
      <point x="758" y="884"/>
      <point x="776.6516339869" y="830.8686274509466" type="curve" smooth="yes"/>
      <point x="1048.9143137254734" y="0.0" type="line"/>
      <point x="1153.8044705882098" y="0.0" type="line"/>
      <point x="1435.9964183005832" y="1081.0" type="line"/>
      <point x="1374.6558431372632" y="1081.0" type="line"/>
      <point x="1143.4588235294032" y="251.73137254905333" type="line" smooth="yes"/>
      <point x="1129" y="198"/>
      <point x="1093" y="88"/>
      <point x="1084.3869281045131" y="34.72156862751001" type="curve"/>
      <point x="1078.3869281045131" y="34.72156862751001" type="line"/>
      <point x="1070" y="88"/>
      <point x="1039" y="198"/>
      <point x="1024.5826797385732" y="251.73137254905333" type="curve" smooth="yes"/>
      <point x="771.1196078430867" y="1081.0" type="line"/>
      <point x="694.5777777777299" y="1081.0" type="line"/>
      <point x="422.0620915032033" y="251.73137254905333" type="line" smooth="yes"/>
      <point x="405" y="198"/>
      <point x="376" y="88"/>
      <point x="365.4411764705967" y="34.72156862751001" type="curve"/>
      <point x="358.0078431372633" y="34.72156862751001" type="line"/>
      <point x="349" y="88"/>
      <point x="322" y="198"/>
      <point x="306.9032679738" y="251.73137254905333" type="curve" smooth="yes"/>
      <point x="89.50721568631666" y="1081.0" type="line"/>
    </contour>
  </outline>
</glyph>
<glyph name="x" format="2">
  <advance width="912"/>
  <unicode hex="0078"/>
  <outline>
    <contour>
      <point x="20.0" y="0.0" type="line"/>
      <point x="76.17419607845667" y="0.0" type="line"/>
      <point x="454.65947712416323" y="529.3" type="line"/>
      <point x="471.1824052288201" y="529.8733333333333" type="line"/>
      <point x="870.3005751634633" y="1081.0" type="line"/>
      <point x="813.2890457516733" y="1081.0" type="line"/>
      <point x="441.42745098035005" y="565.7" type="line"/>
      <point x="427.32452287583664" y="565.1266666666667" type="line"/>
    </contour>
    <contour>
      <point x="43.63597385618667" y="1081.0" type="line"/>
      <point x="443.8208104574967" y="529.8733333333333" type="line"/>
      <point x="446.01307189548663" y="529.3" type="line"/>
      <point x="829.6147189542933" y="0.0" type="line"/>
      <point x="892.8698823529833" y="0.0" type="line"/>
      <point x="482.96535947714665" y="575.7333333333333" type="line"/>
      <point x="482.0117647058233" y="574.3" type="line"/>
      <point x="105.90747712416331" y="1081.0" type="line"/>
    </contour>
  </outline>
</glyph>
<glyph name="y" format="2">
  <advance width="1071"/>
  <unicode hex="0079"/>
  <outline>
    <contour>
      <point x="176.63660130713333" y="-416.0" type="line"/>
      <point x="213" y="-427"/>
      <point x="247" y="-436"/>
      <point x="301.9117647058233" y="-436.0" type="curve" smooth="yes"/>
      <point x="444" y="-436"/>
      <point x="465" y="-377"/>
      <point x="622.3784313724899" y="29.566666666666663" type="curve" smooth="yes"/>
      <point x="1068.87777777773" y="1081.0" type="line"/>
      <point x="1001.5555555556034" y="1081.0" type="line"/>
      <point x="633.9673202614267" y="172.63137254905334" type="line" smooth="yes"/>
      <point x="619" y="140"/>
      <point x="614" y="120"/>
      <point x="606.6637254902466" y="48.891503267976674" type="curve"/>
      <point x="599.2303921569134" y="48.891503267976674" type="line"/>
      <point x="588" y="120"/>
      <point x="583" y="140"/>
      <point x="567.2258169934499" y="172.63137254905334" type="curve" smooth="yes"/>
      <point x="222.42352941179" y="1081.0" type="line"/>
      <point x="145.03333333333333" y="1081.0" type="line"/>
      <point x="573.8104575163032" y="12.2016339869" type="line"/>
      <point x="564.0604575163032" y="-14.615032679766667" type="line"/>
      <point x="388" y="-455"/>
      <point x="397" y="-391"/>
      <point x="300.06078431368337" y="-390.63202614381333" type="curve" smooth="yes"/>
      <point x="264" y="-391"/>
      <point x="216" y="-380"/>
      <point x="176.63660130713333" y="-369.76535947714666" type="curve"/>
    </contour>
  </outline>
</glyph>
<glyph name="z" format="2">
  <advance width="878"/>
  <unicode hex="007A"/>
  <outline>
    <contour>
      <point x="54.0" y="0.0" type="line"/>
      <point x="828.9589019608433" y="0.0" type="line"/>
      <point x="828.9589019608433" y="54.219294117613344" type="line"/>
      <point x="118.84041830058334" y="54.219294117613344" type="line"/>
      <point x="794.8009411764201" y="1013.5336993464333" type="line"/>
      <point x="794.8009411764201" y="1081.0" type="line"/>
      <point x="63.588653594760004" y="1081.0" type="line"/>
      <point x="63.588653594760004" y="1026.7807058823867" type="line"/>
      <point x="729.6231895425033" y="1026.7807058823867" type="line"/>
      <point x="54.0" y="67.54230065356666" type="line"/>
    </contour>
  </outline>
</glyph>
<glyph name="braceleft" format="2">
  <advance width="561"/>
  <unicode hex="007B"/>
  <outline>
    <contour>
      <point x="548.8729673202333" y="-312.0" type="curve"/>
      <point x="548.8729673202333" y="-259.9000261438133" type="line"/>
      <point x="308" y="-260"/>
      <point x="204" y="-128"/>
      <point x="272.32230065356663" y="132.48052287583667" type="curve" smooth="yes"/>
      <point x="323.4492810457067" y="334.0" type="line" smooth="yes"/>
      <point x="352" y="446"/>
      <point x="304" y="542"/>
      <point x="175.1812549018933" y="574.0" type="curve"/>
      <point x="304" y="606"/>
      <point x="353" y="703"/>
      <point x="323.4492810457067" y="814.0" type="curve" smooth="yes"/>
      <point x="272.32230065356663" y="1015.5194771241632" type="line" smooth="yes"/>
      <point x="204" y="1276"/>
      <point x="308" y="1408"/>
      <point x="548.8729673202333" y="1407.9000261438132" type="curve"/>
      <point x="548.8729673202333" y="1460.0" type="line"/>
      <point x="297" y="1460"/>
      <point x="149" y="1302"/>
      <point x="223.88935947714666" y="1017.48679738559" type="curve" smooth="yes"/>
      <point x="274.03267973857334" y="815.9673202614267" type="line" smooth="yes"/>
      <point x="318" y="641"/>
      <point x="208" y="601"/>
      <point x="54.00350326797667" y="600.8473202614266" type="curve"/>
      <point x="54.00350326797667" y="547.1526797385734" type="line"/>
      <point x="208" y="547"/>
      <point x="318" y="507"/>
      <point x="274.03267973857334" y="332.03267973857334" type="curve" smooth="yes"/>
      <point x="223.88935947714666" y="130.51320261441" type="line" smooth="yes"/>
      <point x="149" y="-154"/>
      <point x="297" y="-312"/>
    </contour>
  </outline>
</glyph>
<glyph name="bar" format="2">
  <advance width="460"/>
  <unicode hex="007C"/>
  <outline>
    <contour>
      <point x="210.0" y="-416.0" type="line"/>
      <point x="249.96729411761328" y="-416.0" type="line"/>
      <point x="249.96729411761328" y="1257.3071895425035" type="line"/>
      <point x="210.0" y="1257.3071895425035" type="line"/>
    </contour>
  </outline>
</glyph>
<glyph name="braceright" format="2">
  <advance width="561"/>
  <unicode hex="007D"/>
  <outline>
    <contour>
      <point x="11.592653594759994" y="-312.0" type="line"/>
      <point x="263" y="-312"/>
      <point x="414" y="-154"/>
      <point x="337.55992156856" y="130.51320261441" type="curve" smooth="yes"/>
      <point x="286.43294117642006" y="332.03267973857334" type="line" smooth="yes"/>
      <point x="243" y="507"/>
      <point x="352" y="547"/>
      <point x="507.44577777773003" y="547.1526797385734" type="curve"/>
      <point x="507.44577777773003" y="600.8473202614266" type="line"/>
      <point x="352" y="601"/>
      <point x="243" y="641"/>
      <point x="286.43294117642006" y="815.9673202614267" type="curve" smooth="yes"/>
      <point x="337.55992156856" y="1017.48679738559" type="line" smooth="yes"/>
      <point x="414" y="1302"/>
      <point x="263" y="1460"/>
      <point x="11.592653594759994" y="1460.0" type="curve"/>
      <point x="11.592653594759994" y="1407.9000261438132" type="line"/>
      <point x="252" y="1408"/>
      <point x="358" y="1276"/>
      <point x="288.14332026142665" y="1015.5194771241632" type="curve" smooth="yes"/>
      <point x="238.0" y="814.0" type="line" smooth="yes"/>
      <point x="210" y="702"/>
      <point x="256" y="606"/>
      <point x="386.26802614381336" y="574.0" type="curve"/>
      <point x="256" y="542"/>
      <point x="210" y="446"/>
      <point x="238.0" y="334.0" type="curve" smooth="yes"/>
      <point x="288.14332026142665" y="132.48052287583667" type="line" smooth="yes"/>
      <point x="358" y="-128"/>
      <point x="252" y="-260"/>
      <point x="11.592653594759994" y="-259.9000261438133" type="curve"/>
    </contour>
  </outline>
</glyph>
<glyph name="asciitilde" format="2">
  <advance width="1737"/>
  <unicode hex="007E"/>
  <outline>
    <contour>
      <point x="594.2836601307133" y="620.8666666666667" type="line"/>
      <point x="625" y="661"/>
      <point x="662" y="676"/>
      <point x="720.6411764705966" y="676.4" type="curve" smooth="yes"/>
      <point x="666" y="676"/>
      <point x="834" y="652"/>
      <point x="913.7137254902466" y="638.4163398692866" type="curve" smooth="yes"/>
      <point x="961" y="643"/>
      <point x="1090" y="638"/>
      <point x="1025.82156862751" y="637.9" type="curve" smooth="yes"/>
      <point x="1085" y="638"/>
      <point x="1124" y="653"/>
      <point x="1152.0954248365365" y="680.4666666666667" type="curve"/>
      <point x="1152.0954248365365" y="735.8333333333334" type="line"/>
      <point x="1122" y="699"/>
      <point x="1086" y="679"/>
      <point x="1022.6882352941767" y="679.3" type="curve" smooth="yes"/>
      <point x="1078" y="679"/>
      <point x="929" y="697"/>
      <point x="866.9313725490533" y="699.5163398692866" type="curve" smooth="yes"/>
      <point x="801" y="707"/>
      <point x="653" y="717"/>
      <point x="716.37450980393" y="717.4333333333333" type="curve" smooth="yes"/>
      <point x="660" y="718"/>
      <point x="624" y="706"/>
      <point x="594.2836601307133" y="673.8" type="curve"/>
    </contour>
  </outline>
</glyph>
<glyph name="exclamdown" format="2">
  <advance width="458"/>
  <unicode hex="00A1"/>
  <outline>
    <contour>
      <point x="272.1" y="1095.2666666666667" type="curve" smooth="yes"/>
      <point x="272" y="1136"/>
      <point x="256" y="1169"/>
      <point x="228.33333333333331" y="1169.1333333333334" type="curve" smooth="yes"/>
      <point x="201" y="1169"/>
      <point x="186" y="1136"/>
      <point x="186.0" y="1095.2666666666667" type="curve" smooth="yes"/>
      <point x="186" y="1054"/>
      <point x="201" y="1021"/>
      <point x="228.33333333333331" y="1021.4" type="curve" smooth="yes"/>
      <point x="256" y="1021"/>
      <point x="272" y="1054"/>
    </contour>
    <contour>
      <point x="244.06666666666666" y="737.1333333333333" type="line"/>
      <point x="215.1" y="737.1333333333333" type="line"/>
      <point x="211.2" y="-308.8666666666667" type="line"/>
      <point x="246.53333333333333" y="-308.8666666666667" type="line"/>
    </contour>
  </outline>
</glyph>
<glyph name="cent" format="2">
  <advance width="885"/>
  <unicode hex="00A2"/>
  <outline>
    <contour>
      <point x="512.0" y="191.7" type="curve" smooth="yes"/>
      <point x="327" y="192"/>
      <point x="166" y="316"/>
      <point x="166.3" y="646.5666666666667" type="curve" smooth="yes"/>
      <point x="166.3" y="727.5666666666667" type="line" smooth="yes"/>
      <point x="166" y="1060"/>
      <point x="320" y="1181"/>
      <point x="521.6" y="1181.3666666666666" type="curve" smooth="yes"/>
      <point x="783" y="1181"/>
      <point x="825" y="1061"/>
      <point x="810.8" y="892.1333333333333" type="curve"/>
      <point x="860.7" y="892.1333333333333" type="line"/>
      <point x="875" y="1064"/>
      <point x="796" y="1236"/>
      <point x="522.6666666666666" y="1235.5666666666666" type="curve" smooth="yes"/>
      <point x="305" y="1236"/>
      <point x="115" y="1087"/>
      <point x="115.0" y="695.5666666666667" type="curve" smooth="yes"/>
      <point x="115.0" y="678.5666666666667" type="line" smooth="yes"/>
      <point x="115" y="287"/>
      <point x="308" y="139"/>
      <point x="514.1333333333333" y="138.56666666666666" type="curve" smooth="yes"/>
      <point x="835" y="139"/>
      <point x="877" y="311"/>
      <point x="860.7" y="527.0" type="curve"/>
      <point x="810.8" y="527.0" type="line"/>
      <point x="825" y="342"/>
      <point x="798" y="192"/>
    </contour>
    <contour>
      <point x="421.2" y="0.0" type="line"/>
      <point x="473.73333333333335" y="0.0" type="line"/>
      <point x="473.73333333333335" y="182.66666666666666" type="line"/>
      <point x="474.4666666666667" y="192.66666666666666" type="line"/>
      <point x="474.4666666666667" y="708.0" type="line"/>
      <point x="420.4666666666667" y="708.0" type="line"/>
      <point x="420.4666666666667" y="193.66666666666666" type="line"/>
      <point x="421.2" y="179.66666666666666" type="line"/>
    </contour>
    <contour>
      <point x="420.4666666666667" y="708.0" type="line"/>
      <point x="474.4666666666667" y="708.0" type="line"/>
      <point x="474.4666666666667" y="1179.0" type="line"/>
      <point x="473.73333333333335" y="1192.0" type="line"/>
      <point x="473.73333333333335" y="1402.0" type="line"/>
      <point x="421.2" y="1402.0" type="line"/>
      <point x="421.2" y="1192.0" type="line"/>
      <point x="420.4666666666667" y="1182.0" type="line"/>
    </contour>
  </outline>
</glyph>
<glyph name="sterling" format="2">
  <advance width="801"/>
  <unicode hex="00A3"/>
  <outline>
    <contour>
      <point x="792.3333333333333" y="0.0" type="line"/>
      <point x="792.3333333333333" y="47.03333333333333" type="line"/>
      <point x="234.56666666666666" y="47.03333333333333" type="line"/>
      <point x="328" y="102"/>
      <point x="396" y="237"/>
      <point x="376.6666666666667" y="419.1333333333333" type="curve" smooth="yes"/>
      <point x="312.76666666666665" y="1039.0" type="line" smooth="yes"/>
      <point x="282" y="1350"/>
      <point x="342" y="1441"/>
      <point x="513.9" y="1440.8666666666668" type="curve" smooth="yes"/>
      <point x="670" y="1441"/>
      <point x="725" y="1345"/>
      <point x="734.0666666666666" y="1160.3333333333333" type="curve" smooth="yes"/>
      <point x="734.0666666666666" y="1144.3333333333333" type="line"/>
      <point x="769.8333333333333" y="1144.3333333333333" type="line"/>
      <point x="769.8333333333333" y="1160.3333333333333" type="line" smooth="yes"/>
      <point x="770" y="1403"/>
      <point x="686" y="1489"/>
      <point x="511.9" y="1488.9" type="curve" smooth="yes"/>
      <point x="300" y="1489"/>
      <point x="217" y="1377"/>
      <point x="260.93333333333334" y="1039.0" type="curve" smooth="yes"/>
      <point x="347.4666666666667" y="406.8" type="line" smooth="yes"/>
      <point x="376" y="196"/>
      <point x="240" y="35"/>
      <point x="63.33333333333333" y="35.3" type="curve" smooth="yes"/>
      <point x="36.0" y="35.3" type="line"/>
      <point x="36.0" y="0.0" type="line"/>
    </contour>
    <contour>
      <point x="645.6666666666666" y="738.2" type="line"/>
      <point x="645.6666666666666" y="761.4" type="line"/>
      <point x="80.66666666666667" y="761.4" type="line"/>
      <point x="80.66666666666667" y="738.2" type="line"/>
    </contour>
  </outline>
</glyph>
<glyph name="currency" format="2">
  <advance width="1051"/>
  <unicode hex="00A4"/>
  <guideline x="0" y="901.0" angle="0" identifier="bRYxxRaQQf"/>
  <guideline x="0" y="555.0" angle="0" identifier="917FhrihjR"/>
  <outline>
    <contour>
      <point x="210.83333333333334" y="712.0" type="curve"/>
      <point x="211" y="925"/>
      <point x="318" y="1086"/>
      <point x="522.6666666666666" y="1086.2666666666667" type="curve" smooth="yes"/>
      <point x="726" y="1086"/>
      <point x="832" y="925"/>
      <point x="832.5" y="712.0" type="curve" smooth="yes"/>
      <point x="832" y="497"/>
      <point x="726" y="336"/>
      <point x="522.6666666666666" y="335.73333333333335" type="curve" smooth="yes"/>
      <point x="318" y="336"/>
      <point x="211" y="497"/>
    </contour>
    <contour>
      <point x="158.26666666666665" y="718.0" type="curve"/>
      <point x="158" y="477"/>
      <point x="295" y="292"/>
      <point x="521.6666666666666" y="292.1333333333333" type="curve" smooth="yes"/>
      <point x="749" y="292"/>
      <point x="885" y="477"/>
      <point x="885.0666666666666" y="718.0" type="curve" smooth="yes"/>
      <point x="885" y="958"/>
      <point x="749" y="1142"/>
      <point x="521.6666666666666" y="1141.8666666666666" type="curve" smooth="yes"/>
      <point x="295" y="1142"/>
      <point x="158" y="958"/>
    </contour>
    <contour>
      <point x="969.3333333333333" y="1221.8666666666666" type="line"/>
      <point x="934.7666666666667" y="1258.5666666666666" type="line"/>
      <point x="732.7666666666667" y="1052.5666666666666" type="line"/>
      <point x="767.3333333333333" y="1015.8666666666667" type="line"/>
    </contour>
    <contour>
      <point x="292.0" y="399.8666666666667" type="line"/>
      <point x="90.0" y="193.86666666666667" type="line"/>
      <point x="56.43333333333334" y="229.56666666666666" type="line"/>
      <point x="258.43333333333334" y="434.56666666666666" type="line"/>
    </contour>
    <contour>
      <point x="960.7666666666667" y="200.86666666666667" type="line"/>
      <point x="996.3333333333333" y="237.56666666666666" type="line"/>
      <point x="794.3333333333333" y="442.56666666666666" type="line"/>
      <point x="758.7666666666667" y="406.8666666666667" type="line"/>
    </contour>
    <contour>
      <point x="275.43333333333334" y="1029.8666666666666" type="line"/>
      <point x="73.43333333333334" y="1235.8666666666666" type="line"/>
      <point x="107.0" y="1271.5666666666666" type="line"/>
      <point x="309.0" y="1065.5666666666666" type="line"/>
    </contour>
  </outline>
</glyph>
<glyph name="yen" format="2">
  <advance width="969"/>
  <unicode hex="00A5"/>
  <outline>
    <contour>
      <point x="87.66666666666667" y="368.3333333333333" type="line"/>
      <point x="888.8666666666667" y="368.3333333333333" type="line"/>
      <point x="888.8666666666667" y="412.6666666666667" type="line"/>
      <point x="87.66666666666667" y="412.6666666666667" type="line"/>
    </contour>
    <contour>
      <point x="87.66666666666667" y="664.0" type="line"/>
      <point x="888.8666666666667" y="664.0" type="line"/>
      <point x="888.8666666666667" y="703.3333333333334" type="line"/>
      <point x="598.7333333333333" y="703.3333333333334" type="line"/>
      <point x="550.7333333333333" y="669.0" type="line"/>
      <point x="441.73333333333335" y="669.0" type="line"/>
      <point x="388.73333333333335" y="703.3333333333334" type="line"/>
      <point x="87.66666666666667" y="703.3333333333334" type="line"/>
    </contour>
    <contour>
      <point x="472.8333333333333" y="0.0" type="line"/>
      <point x="513.5" y="0.0" type="line"/>
      <point x="513.5" y="596.7333333333333" type="line"/>
      <point x="930.2" y="1456.0" type="line"/>
      <point x="872.5333333333333" y="1456.0" type="line"/>
      <point x="557.7333333333333" y="763.0" type="line" smooth="yes"/>
      <point x="537" y="723"/>
      <point x="550" y="754"/>
      <point x="503.73333333333335" y="679.0" type="curve"/>
      <point x="483.73333333333335" y="679.0" type="line"/>
      <point x="455" y="729"/>
      <point x="449" y="721"/>
      <point x="429.73333333333335" y="763.0" type="curve" smooth="yes"/>
      <point x="96.83333333333333" y="1456.0" type="line"/>
      <point x="38.333333333333336" y="1456.0" type="line"/>
      <point x="472.8333333333333" y="596.7333333333333" type="line"/>
    </contour>
  </outline>
</glyph>
<glyph name="section" format="2">
  <advance width="1256"/>
  <unicode hex="00A7"/>
  <guideline x="0" y="1658.0" angle="0" identifier="QzZ5gIiCyn"/>
  <guideline x="0" y="578.0" angle="0" identifier="9Hxjf2sdFw"/>
  <outline>
    <contour>
      <point x="729.7" y="137.3" type="curve"/>
      <point x="729.7" y="197.53333333333333" type="line"/>
      <point x="918" y="228"/>
      <point x="987" y="339"/>
      <point x="986.6666666666666" y="498.8333333333333" type="curve"/>
      <point x="987" y="643"/>
      <point x="986" y="728"/>
      <point x="653.3" y="807.1" type="curve" smooth="yes"/>
      <point x="334" y="888"/>
      <point x="282" y="1039"/>
      <point x="282.3" y="1154.8" type="curve" smooth="yes"/>
      <point x="282" y="1330"/>
      <point x="422" y="1490"/>
      <point x="625.8666666666667" y="1489.5666666666666" type="curve" smooth="yes"/>
      <point x="825" y="1489"/>
      <point x="962" y="1317"/>
      <point x="962.7333333333333" y="1110.0333333333333" type="curve"/>
      <point x="912.4" y="1110.0333333333333" type="line"/>
      <point x="912" y="1327"/>
      <point x="786" y="1444"/>
      <point x="625.8666666666667" y="1444.5" type="curve" smooth="yes"/>
      <point x="464" y="1444"/>
      <point x="343" y="1312"/>
      <point x="342.6666666666667" y="1150.0333333333333" type="curve" smooth="yes"/>
      <point x="343" y="1029"/>
      <point x="463" y="899"/>
      <point x="701.2" y="846.8333333333334" type="curve" smooth="yes"/>
      <point x="1028" y="765"/>
      <point x="1040" y="670"/>
      <point x="1040.1" y="492.3333333333333" type="curve" smooth="yes"/>
      <point x="1040" y="329"/>
      <point x="961" y="168"/>
    </contour>
    <contour>
      <point x="488.9" y="929.8333333333334" type="curve"/>
      <point x="489.3333333333333" y="873.5333333333333" type="line"/>
      <point x="327" y="845"/>
      <point x="261" y="725"/>
      <point x="261.1666666666667" y="559.8333333333334" type="curve" smooth="yes"/>
      <point x="261" y="410"/>
      <point x="288" y="319"/>
      <point x="603.0333333333333" y="238.16666666666669" type="curve" smooth="yes"/>
      <point x="949" y="146"/>
      <point x="949" y="17"/>
      <point x="948.8" y="-140.23333333333335" type="curve" smooth="yes"/>
      <point x="949" y="-356"/>
      <point x="830" y="-503"/>
      <point x="574.6333333333333" y="-503.26666666666665" type="curve" smooth="yes"/>
      <point x="307" y="-503"/>
      <point x="217" y="-314"/>
      <point x="217.3" y="-107.83333333333334" type="curve"/>
      <point x="269.5" y="-108.7" type="line"/>
      <point x="270" y="-258"/>
      <point x="327" y="-454"/>
      <point x="574.6333333333333" y="-453.9" type="curve" smooth="yes"/>
      <point x="812" y="-454"/>
      <point x="889" y="-303"/>
      <point x="889.4333333333333" y="-130.26666666666668" type="curve" smooth="yes"/>
      <point x="889" y="26"/>
      <point x="810" y="127"/>
      <point x="565.8" y="189.66666666666666" type="curve" smooth="yes"/>
      <point x="245" y="275"/>
      <point x="210" y="368"/>
      <point x="209.6" y="555.5" type="curve" smooth="yes"/>
      <point x="210" y="722"/>
      <point x="253" y="897"/>
    </contour>
  </outline>
</glyph>
<glyph name="dieresis" format="2">
  <advance width="1024"/>
  <unicode hex="00A8"/>
  <outline>
    <contour>
      <point x="274.1" y="1270.8666666666666" type="curve" smooth="yes"/>
      <point x="274" y="1234"/>
      <point x="296" y="1207"/>
      <point x="338.6666666666667" y="1207.0" type="curve" smooth="yes"/>
      <point x="382" y="1207"/>
      <point x="404" y="1234"/>
      <point x="404.23333333333335" y="1270.8666666666666" type="curve" smooth="yes"/>
      <point x="404" y="1306"/>
      <point x="382" y="1335"/>
      <point x="338.6666666666667" y="1334.8666666666666" type="curve" smooth="yes"/>
      <point x="296" y="1335"/>
      <point x="274" y="1306"/>
    </contour>
    <contour>
      <point x="619.7666666666667" y="1268.8666666666666" type="curve" smooth="yes"/>
      <point x="620" y="1232"/>
      <point x="643" y="1205"/>
      <point x="684.3333333333334" y="1205.0" type="curve" smooth="yes"/>
      <point x="727" y="1205"/>
      <point x="750" y="1232"/>
      <point x="749.9" y="1268.8666666666666" type="curve" smooth="yes"/>
      <point x="750" y="1304"/>
      <point x="727" y="1333"/>
      <point x="684.3333333333334" y="1332.8666666666666" type="curve" smooth="yes"/>
      <point x="643" y="1333"/>
      <point x="620" y="1304"/>
    </contour>
  </outline>
</glyph>
<glyph name="copyright" format="2">
  <advance width="1541"/>
  <unicode hex="00A9"/>
  <guideline x="0" y="901.0" angle="0" identifier="0Pjz0qKr8z"/>
  <guideline x="0" y="555.0" angle="0" identifier="sJo8BlDiJ7"/>
  <outline>
    <contour>
      <point x="1041.9666666666667" y="513.0333333333333" type="line"/>
      <point x="1042" y="378"/>
      <point x="960" y="240"/>
      <point x="787.2" y="240.16666666666669" type="curve" smooth="yes"/>
      <point x="570" y="240"/>
      <point x="474" y="441"/>
      <point x="474.06666666666666" y="695.5333333333333" type="curve" smooth="yes"/>
      <point x="474.06666666666666" y="681.0666666666666" type="line" smooth="yes"/>
      <point x="474" y="935"/>
      <point x="575" y="1135"/>
      <point x="791.1" y="1135.0" type="curve" smooth="yes"/>
      <point x="971" y="1135"/>
      <point x="1042" y="990"/>
      <point x="1041.5333333333333" y="859.1" type="curve"/>
      <point x="1083.0666666666666" y="859.1" type="line"/>
      <point x="1083" y="1022"/>
      <point x="985" y="1167"/>
      <point x="790.6666666666666" y="1167.1333333333334" type="curve" smooth="yes"/>
      <point x="549" y="1167"/>
      <point x="430" y="959"/>
      <point x="430.1333333333333" y="700.1333333333333" type="curve" smooth="yes"/>
      <point x="430.1333333333333" y="676.9" type="line" smooth="yes"/>
      <point x="430" y="422"/>
      <point x="536" y="205"/>
      <point x="798.0333333333333" y="205.0" type="curve" smooth="yes"/>
      <point x="1050" y="205"/>
      <point x="1084" y="384"/>
      <point x="1083.5" y="513.0333333333333" type="curve"/>
    </contour>
    <contour>
      <point x="112.56666666666666" y="687.0" type="curve" smooth="yes"/>
      <point x="113" y="1138"/>
      <point x="345" y="1450"/>
      <point x="771.4666666666667" y="1450.1333333333334" type="curve" smooth="yes"/>
      <point x="1196" y="1450"/>
      <point x="1428" y="1138"/>
      <point x="1427.9333333333334" y="687.0" type="curve" smooth="yes"/>
      <point x="1428" y="233"/>
      <point x="1196" y="-78"/>
      <point x="771.4666666666667" y="-77.7" type="curve" smooth="yes"/>
      <point x="345" y="-78"/>
      <point x="113" y="233"/>
    </contour>
    <contour>
      <point x="49.13333333333333" y="687.0" type="curve" smooth="yes"/>
      <point x="49" y="218"/>
      <point x="334" y="-133"/>
      <point x="770.4666666666667" y="-132.66666666666666" type="curve" smooth="yes"/>
      <point x="1206" y="-133"/>
      <point x="1492" y="218"/>
      <point x="1491.8" y="687.0" type="curve" smooth="yes"/>
      <point x="1492" y="1159"/>
      <point x="1206" y="1505"/>
      <point x="770.4666666666667" y="1504.6666666666667" type="curve" smooth="yes"/>
      <point x="334" y="1505"/>
      <point x="49" y="1159"/>
    </contour>
  </outline>
</glyph>
<glyph name="ordfeminine" format="2">
  <advance width="798"/>
  <unicode hex="00AA"/>
  <guideline x="0" y="1681.0" angle="0" identifier="3CJlALCfkl"/>
  <guideline x="0" y="909.0" angle="0" identifier="Zdl6NZVQAy"/>
  <outline>
    <contour>
      <point x="538.4" y="862.0" type="line"/>
      <point x="538" y="807"/>
      <point x="551" y="746"/>
      <point x="581.4" y="706.0" type="curve"/>
      <point x="618.9333333333334" y="706.0" type="line"/>
      <point x="600" y="764"/>
      <point x="593" y="821"/>
      <point x="592.9333333333334" y="887.0" type="curve" smooth="yes"/>
      <point x="592.9333333333334" y="1201.0" type="line" smooth="yes"/>
      <point x="593" y="1371"/>
      <point x="536" y="1477"/>
      <point x="398.93333333333334" y="1477.0" type="curve" smooth="yes"/>
      <point x="259" y="1477"/>
      <point x="200" y="1395"/>
      <point x="199.93333333333334" y="1246.6666666666667" type="curve" smooth="yes"/>
      <point x="199.93333333333334" y="1234.0" type="line"/>
      <point x="243.13333333333333" y="1234.0" type="line"/>
      <point x="243.13333333333333" y="1247.0" type="line" smooth="yes"/>
      <point x="243" y="1363"/>
      <point x="300" y="1425"/>
      <point x="400.93333333333334" y="1424.8333333333333" type="curve" smooth="yes"/>
      <point x="490" y="1425"/>
      <point x="538" y="1332"/>
      <point x="538.4" y="1202.0" type="curve" smooth="yes"/>
    </contour>
    <contour>
      <point x="584.6" y="1134.6666666666667" type="line"/>
      <point x="584.6" y="1070.6666666666667" type="line"/>
      <point x="412.93333333333334" y="1070.6666666666667" type="line" smooth="yes"/>
      <point x="304" y="1080"/>
      <point x="225" y="1041"/>
      <point x="225.43333333333334" y="922.0" type="curve" smooth="yes"/>
      <point x="225" y="815"/>
      <point x="295" y="743"/>
      <point x="360.93333333333334" y="743.1666666666666" type="curve" smooth="yes"/>
      <point x="516" y="743"/>
      <point x="564" y="867"/>
      <point x="564.0" y="977.6666666666666" type="curve"/>
      <point x="582.0" y="880.0" type="line"/>
      <point x="549" y="762"/>
      <point x="479" y="692"/>
      <point x="364.93333333333334" y="692.0" type="curve" smooth="yes"/>
      <point x="263" y="692"/>
      <point x="176" y="777"/>
      <point x="175.93333333333334" y="918.0" type="curve" smooth="yes"/>
      <point x="176" y="1059"/>
      <point x="273" y="1135"/>
      <point x="411.93333333333334" y="1134.6666666666667" type="curve" smooth="yes"/>
    </contour>
  </outline>
</glyph>
<glyph name="logicalnot" format="2">
  <advance width="943"/>
  <unicode hex="00AC"/>
  <outline>
    <contour>
      <point x="792.6666666666666" y="772.3333333333334" type="line"/>
      <point x="58.0" y="772.3333333333334" type="line"/>
      <point x="58.0" y="725.1" type="line"/>
      <point x="758.8333333333334" y="725.1" type="line"/>
      <point x="758.8333333333334" y="376.0" type="line"/>
      <point x="792.6666666666666" y="376.0" type="line"/>
    </contour>
  </outline>
</glyph>
<glyph name="registered" format="2">
  <advance width="1541"/>
  <unicode hex="00AE"/>
  <outline>
    <contour>
      <point x="49.13333333333333" y="687.0" type="curve" smooth="yes"/>
      <point x="49" y="218"/>
      <point x="334" y="-133"/>
      <point x="770.4666666666667" y="-132.66666666666666" type="curve" smooth="yes"/>
      <point x="1206" y="-133"/>
      <point x="1492" y="218"/>
      <point x="1491.8" y="687.0" type="curve" smooth="yes"/>
      <point x="1492" y="1159"/>
      <point x="1206" y="1505"/>
      <point x="770.4666666666667" y="1504.6666666666667" type="curve" smooth="yes"/>
      <point x="334" y="1505"/>
      <point x="49" y="1159"/>
    </contour>
    <contour>
      <point x="112.56666666666666" y="687.0" type="curve" smooth="yes"/>
      <point x="113" y="1138"/>
      <point x="345" y="1450"/>
      <point x="771.4666666666667" y="1450.1333333333334" type="curve" smooth="yes"/>
      <point x="1196" y="1450"/>
      <point x="1428" y="1138"/>
      <point x="1427.9333333333334" y="687.0" type="curve" smooth="yes"/>
      <point x="1428" y="233"/>
      <point x="1196" y="-78"/>
      <point x="771.4666666666667" y="-77.7" type="curve" smooth="yes"/>
      <point x="345" y="-78"/>
      <point x="113" y="233"/>
    </contour>
    <contour>
      <point x="861.5333333333333" y="612.7666666666667" type="line"/>
      <point x="1010.9666666666667" y="225.0" type="line"/>
      <point x="1056.6666666666667" y="225.0" type="line"/>
      <point x="1056.6666666666667" y="243.0" type="line"/>
      <point x="964.3666666666667" y="515.6666666666666" type="line" smooth="yes"/>
      <point x="948" y="561"/>
      <point x="912" y="603"/>
      <point x="895.6666666666666" y="633.7666666666667" type="curve"/>
      <point x="982" y="656"/>
      <point x="1058" y="760"/>
      <point x="1058.4666666666667" y="892.7666666666667" type="curve" smooth="yes"/>
      <point x="1058" y="1052"/>
      <point x="974" y="1158"/>
      <point x="764.4666666666667" y="1158.0" type="curve" smooth="yes"/>
      <point x="524.4666666666667" y="1158.0" type="line"/>
      <point x="524.4666666666667" y="225.0" type="line"/>
      <point x="577.6666666666666" y="225.0" type="line"/>
      <point x="577.6666666666666" y="612.7666666666667" type="line"/>
    </contour>
    <contour>
      <point x="765.4666666666667" y="1103.0333333333333" type="line" smooth="yes"/>
      <point x="875" y="1104"/>
      <point x="1011" y="1008"/>
      <point x="1010.7666666666667" y="890.5333333333333" type="curve" smooth="yes"/>
      <point x="1011" y="765"/>
      <point x="979" y="669"/>
      <point x="790.4666666666667" y="669.2" type="curve" smooth="yes"/>
      <point x="577.6666666666666" y="669.2" type="line"/>
      <point x="577.6666666666666" y="1103.0333333333333" type="line"/>
    </contour>
  </outline>
</glyph>
<glyph name="macron" format="2">
  <advance width="1024"/>
  <unicode hex="00AF"/>
  <outline>
    <contour>
      <point x="744.0" y="1332.5333333333333" type="line"/>
      <point x="280.0" y="1332.5333333333333" type="line"/>
      <point x="280.0" y="1278.0" type="line"/>
      <point x="744.0" y="1278.0" type="line"/>
    </contour>
  </outline>
</glyph>
<glyph name="degree" format="2">
  <advance width="765"/>
  <unicode hex="00B0"/>
  <outline>
    <contour>
      <point x="170.33333333333334" y="1248.5333333333333" type="curve"/>
      <point x="170" y="1115"/>
      <point x="258" y="1023"/>
      <point x="384.56666666666666" y="1023.0666666666667" type="curve" smooth="yes"/>
      <point x="508" y="1023"/>
      <point x="595" y="1115"/>
      <point x="594.8" y="1248.5333333333333" type="curve" smooth="yes"/>
      <point x="595" y="1383"/>
      <point x="508" y="1477"/>
      <point x="384.56666666666666" y="1477.0" type="curve" smooth="yes"/>
      <point x="259" y="1477"/>
      <point x="170" y="1383"/>
    </contour>
    <contour>
      <point x="237.0" y="1248.5333333333333" type="curve"/>
      <point x="237" y="1342"/>
      <point x="299" y="1408"/>
      <point x="384.56666666666666" y="1407.7666666666667" type="curve" smooth="yes"/>
      <point x="469" y="1408"/>
      <point x="528" y="1342"/>
      <point x="528.1333333333333" y="1248.5333333333333" type="curve" smooth="yes"/>
      <point x="528" y="1159"/>
      <point x="469" y="1092"/>
      <point x="384.56666666666666" y="1092.3" type="curve" smooth="yes"/>
      <point x="299" y="1092"/>
      <point x="237" y="1159"/>
    </contour>
  </outline>
</glyph>
<glyph name="plusminus" format="2">
  <advance width="1024"/>
  <unicode hex="00B1"/>
  <outline>
    <contour>
      <point x="84.73333333333333" y="670.4666666666667" type="line"/>
      <point x="939.2666666666667" y="670.4666666666667" type="line"/>
      <point x="939.2666666666667" y="718.4" type="line"/>
      <point x="84.73333333333333" y="718.4" type="line"/>
    </contour>
    <contour>
      <point x="496.5" y="248.0" type="line"/>
      <point x="533.2333333333333" y="248.0" type="line"/>
      <point x="533.2333333333333" y="1160.0" type="line"/>
      <point x="496.5" y="1160.0" type="line"/>
    </contour>
    <contour>
      <point x="84.73333333333333" y="1.0" type="line"/>
      <point x="939.2666666666667" y="1.0" type="line"/>
      <point x="939.2666666666667" y="53.2" type="line"/>
      <point x="84.73333333333333" y="53.2" type="line"/>
    </contour>
  </outline>
</glyph>
<glyph name="twosuperior" format="2">
  <advance width="612"/>
  <unicode hex="00B2"/>
  <outline>
    <contour>
      <point x="106.2" y="697.0" type="line"/>
      <point x="524.1" y="697.0" type="line"/>
      <point x="524.1" y="744.6666666666666" type="line"/>
      <point x="119.33333333333331" y="744.6666666666666" type="line"/>
      <point x="276.76666666666665" y="932.3" type="line" smooth="yes"/>
      <point x="395" y="1065"/>
      <point x="507" y="1176"/>
      <point x="507.43333333333334" y="1285.4" type="curve" smooth="yes"/>
      <point x="507" y="1416"/>
      <point x="441" y="1487"/>
      <point x="296.43333333333334" y="1487.0" type="curve" smooth="yes"/>
      <point x="160" y="1487"/>
      <point x="86" y="1424"/>
      <point x="89.63333333333333" y="1241.0" type="curve"/>
      <point x="124.73333333333333" y="1241.0" type="line"/>
      <point x="121" y="1384"/>
      <point x="174" y="1441"/>
      <point x="297.56666666666666" y="1441.2" type="curve" smooth="yes"/>
      <point x="409" y="1441"/>
      <point x="465" y="1373"/>
      <point x="465.03333333333336" y="1286.2666666666667" type="curve" smooth="yes"/>
      <point x="465" y="1181"/>
      <point x="349" y="1106"/>
      <point x="271.43333333333334" y="1007.2333333333333" type="curve" smooth="yes"/>
      <point x="106.2" y="776.3333333333334" type="line"/>
    </contour>
  </outline>
</glyph>
<glyph name="threesuperior" format="2">
  <advance width="624"/>
  <unicode hex="00B3"/>
  <outline>
    <contour>
      <point x="112.83333333333333" y="929.0" type="line"/>
      <point x="113" y="787"/>
      <point x="185" y="686"/>
      <point x="325.8" y="686.0" type="curve" smooth="yes"/>
      <point x="487" y="686"/>
      <point x="540" y="780"/>
      <point x="539.6" y="917.0" type="curve" smooth="yes"/>
      <point x="540" y="1005"/>
      <point x="466" y="1101"/>
      <point x="371.2" y="1118.0666666666666" type="curve"/>
      <point x="455" y="1136"/>
      <point x="517" y="1181"/>
      <point x="517.1333333333333" y="1297.4" type="curve" smooth="yes"/>
      <point x="517" y="1419"/>
      <point x="462" y="1487"/>
      <point x="333.4" y="1487.0" type="curve" smooth="yes"/>
      <point x="157" y="1487"/>
      <point x="124" y="1388"/>
      <point x="123.83333333333333" y="1247.0" type="curve"/>
      <point x="161.86666666666667" y="1247.0" type="line"/>
      <point x="162" y="1369"/>
      <point x="189" y="1446"/>
      <point x="330.6666666666667" y="1446.0666666666666" type="curve" smooth="yes"/>
      <point x="411" y="1446"/>
      <point x="489" y="1396"/>
      <point x="488.6333333333333" y="1283.6666666666667" type="curve" smooth="yes"/>
      <point x="489" y="1185"/>
      <point x="452" y="1135"/>
      <point x="336.3" y="1132.7666666666667" type="curve" smooth="yes"/>
      <point x="285.73333333333335" y="1132.7666666666667" type="line"/>
      <point x="285.73333333333335" y="1093.1" type="line"/>
      <point x="336.3" y="1093.1" type="line" smooth="yes"/>
      <point x="453" y="1097"/>
      <point x="507" y="1010"/>
      <point x="507.3666666666667" y="910.6666666666666" type="curve" smooth="yes"/>
      <point x="507" y="800"/>
      <point x="434" y="731"/>
      <point x="330.8" y="731.2333333333333" type="curve" smooth="yes"/>
      <point x="188" y="731"/>
      <point x="151" y="790"/>
      <point x="150.86666666666667" y="929.0" type="curve"/>
    </contour>
  </outline>
</glyph>
<glyph name="micro" format="2">
  <advance width="1064"/>
  <unicode hex="00B5"/>
  <outline>
    <contour>
      <point x="311.5333333333333" y="1052.0" type="line"/>
      <point x="27.53333333333333" y="-416.0" type="line"/>
      <point x="61.66666666666666" y="-416.0" type="line"/>
      <point x="176.9" y="176.73333333333335" type="line"/>
      <point x="156" y="51"/>
      <point x="227" y="-20"/>
      <point x="356.56666666666666" y="-20.0" type="curve" smooth="yes"/>
      <point x="425" y="-20"/>
      <point x="539" y="35"/>
      <point x="696.6666666666666" y="213.83333333333331" type="curve"/>
      <point x="702.6666666666666" y="213.83333333333331" type="line"/>
      <point x="664.6" y="0.0" type="line"/>
      <point x="689.2666666666667" y="0.0" type="line"/>
      <point x="893.2666666666667" y="1052.0" type="line"/>
      <point x="850.6" y="1052.0" type="line"/>
      <point x="706.6" y="308.0" type="line"/>
      <point x="566" y="104"/>
      <point x="449" y="31"/>
      <point x="332.1333333333333" y="31.36666666666666" type="curve" smooth="yes"/>
      <point x="204" y="31"/>
      <point x="174" y="163"/>
      <point x="213.66666666666666" y="371.0" type="curve" smooth="yes"/>
      <point x="345.66666666666663" y="1052.0" type="line"/>
    </contour>
  </outline>
</glyph>
<glyph name="paragraph" format="2">
  <advance width="881"/>
  <unicode hex="00B6"/>
  <guideline x="0" y="901.0" angle="0" identifier="27539Lsr1A"/>
  <guideline x="0" y="555.0" angle="0" identifier="e34wUdCmXR"/>
  <outline>
    <contour>
      <point x="384.1" y="-146.0" type="line"/>
      <point x="384.1" y="1456.0" type="line"/>
      <point x="289.4666666666667" y="1456.0" type="line" smooth="yes"/>
      <point x="211" y="1456"/>
      <point x="142" y="1349"/>
      <point x="141.96666666666667" y="1191.3" type="curve" smooth="yes"/>
      <point x="142" y="1034"/>
      <point x="211" y="927"/>
      <point x="289.4666666666667" y="926.6" type="curve" smooth="yes"/>
      <point x="352.1" y="926.6" type="line"/>
      <point x="352.1" y="-146.0" type="line"/>
    </contour>
    <contour>
      <point x="669.4333333333334" y="1459.0" type="line"/>
      <point x="669.4333333333334" y="-146.0" type="line"/>
      <point x="701.4333333333334" y="-146.0" type="line"/>
      <point x="701.4333333333334" y="1459.0" type="line"/>
    </contour>
  </outline>
</glyph>
<glyph name="onesuperior" format="2">
  <advance width="446"/>
  <unicode hex="00B9"/>
  <outline>
    <contour>
      <point x="61.36666666666667" y="1311.3333333333333" type="line"/>
      <point x="234.06666666666666" y="1389.1333333333332" type="line"/>
      <point x="234.06666666666666" y="697.0" type="line"/>
      <point x="285.7" y="697.0" type="line"/>
      <point x="285.7" y="1486.0" type="line"/>
      <point x="268.9333333333333" y="1486.0" type="line"/>
      <point x="61.36666666666667" y="1370.0" type="line"/>
    </contour>
  </outline>
</glyph>
<glyph name="ordmasculine" format="2">
  <advance width="859"/>
  <unicode hex="00BA"/>
  <guideline x="0" y="1975.0" angle="0" identifier="Jnt0R9CyOf"/>
  <outline>
    <contour>
      <point x="162.8" y="1043.0" type="line"/>
      <point x="163" y="814"/>
      <point x="229" y="691"/>
      <point x="431.8" y="691.0" type="curve" smooth="yes"/>
      <point x="630" y="691"/>
      <point x="697" y="814"/>
      <point x="696.8" y="1043.0" type="curve"/>
      <point x="696.8" y="1124.0" type="line"/>
      <point x="697" y="1353"/>
      <point x="630" y="1477"/>
      <point x="429.8" y="1477.0" type="curve" smooth="yes"/>
      <point x="230" y="1477"/>
      <point x="163" y="1353"/>
      <point x="162.8" y="1124.0" type="curve"/>
    </contour>
    <contour>
      <point x="216.86666666666667" y="1124.0" type="line"/>
      <point x="217" y="1338"/>
      <point x="300" y="1425"/>
      <point x="429.8" y="1424.8666666666668" type="curve" smooth="yes"/>
      <point x="560" y="1425"/>
      <point x="642" y="1338"/>
      <point x="642.3" y="1124.0" type="curve"/>
      <point x="642.3" y="1043.0" type="line"/>
      <point x="642" y="831"/>
      <point x="560" y="740"/>
      <point x="431.8" y="739.7" type="curve" smooth="yes"/>
      <point x="303" y="740"/>
      <point x="217" y="831"/>
      <point x="216.86666666666667" y="1043.0" type="curve"/>
    </contour>
  </outline>
</glyph>
<glyph name="guillemotright" format="2">
  <advance width="1031"/>
  <unicode hex="00BB"/>
  <guideline x="0" y="98.0" angle="0" identifier="MTEldNnfdj"/>
  <guideline x="0" y="443.0" angle="0" identifier="G9bQni2n1K"/>
  <outline>
    <contour>
      <point x="138.3" y="153.0" type="line"/>
      <point x="212.86666666666667" y="153.0" type="line"/>
      <point x="454.5333333333333" y="535.2666666666667" type="line"/>
      <point x="454.5333333333333" y="565.6" type="line"/>
      <point x="212.86666666666667" y="949.0" type="line"/>
      <point x="138.3" y="949.0" type="line"/>
      <point x="406.0333333333333" y="551.0" type="line"/>
    </contour>
    <contour>
      <point x="578.3" y="153.0" type="line"/>
      <point x="652.8666666666667" y="153.0" type="line"/>
      <point x="894.5333333333333" y="535.2666666666667" type="line"/>
      <point x="894.5333333333333" y="565.6" type="line"/>
      <point x="652.8666666666667" y="949.0" type="line"/>
      <point x="578.3" y="949.0" type="line"/>
      <point x="846.0333333333333" y="551.0" type="line"/>
    </contour>
  </outline>
</glyph>
<glyph name="questiondown" format="2">
  <advance width="951"/>
  <unicode hex="00BF"/>
  <guideline x="0" y="-181.0" angle="0" identifier="apukwP5ffL"/>
  <guideline x="0" y="921.0" angle="0" identifier="5ZPZZL8Rim"/>
  <outline>
    <contour>
      <point x="546.3333333333334" y="1096.1333333333334" type="curve" smooth="yes"/>
      <point x="546" y="1137"/>
      <point x="530" y="1170"/>
      <point x="502.56666666666666" y="1170.0" type="curve" smooth="yes"/>
      <point x="475" y="1170"/>
      <point x="460" y="1137"/>
      <point x="459.8666666666667" y="1096.1333333333334" type="curve" smooth="yes"/>
      <point x="460" y="1055"/>
      <point x="476" y="1022"/>
      <point x="503.6333333333333" y="1022.2666666666667" type="curve" smooth="yes"/>
      <point x="530" y="1022"/>
      <point x="546" y="1055"/>
    </contour>
    <contour>
      <point x="697.8333333333333" y="53.0" type="line"/>
      <point x="660.4" y="53.0" type="line"/>
      <point x="660.4" y="33.0" type="line" smooth="yes"/>
      <point x="660" y="-172"/>
      <point x="592" y="-280"/>
      <point x="465.43333333333334" y="-280.26666666666665" type="curve" smooth="yes"/>
      <point x="338" y="-280"/>
      <point x="276" y="-168"/>
      <point x="276.4" y="-2.866666666666667" type="curve" smooth="yes"/>
      <point x="276" y="158"/>
      <point x="303" y="242"/>
      <point x="389.93333333333334" y="363.23333333333335" type="curve" smooth="yes"/>
      <point x="478" y="492"/>
      <point x="524" y="583"/>
      <point x="524.3333333333334" y="728.0" type="curve" smooth="yes"/>
      <point x="524.3333333333334" y="738.0" type="line"/>
      <point x="485.9" y="738.0" type="line"/>
      <point x="485.9" y="728.0" type="line" smooth="yes"/>
      <point x="486" y="624"/>
      <point x="463" y="529"/>
      <point x="370.4" y="398.1" type="curve" smooth="yes"/>
      <point x="269" y="263"/>
      <point x="238" y="187"/>
      <point x="237.96666666666667" y="-2.866666666666667" type="curve" smooth="yes"/>
      <point x="238" y="-195"/>
      <point x="322" y="-328"/>
      <point x="465.43333333333334" y="-328.0" type="curve" smooth="yes"/>
      <point x="610" y="-328"/>
      <point x="698" y="-194"/>
      <point x="697.8333333333333" y="33.0" type="curve" smooth="yes"/>
    </contour>
  </outline>
</glyph>
<glyph name="AE" format="2">
  <advance width="1458"/>
  <unicode hex="00C6"/>
  <outline>
    <contour>
      <point x="268.56666666666666" y="461.1333333333333" type="line"/>
      <point x="289.73333333333335" y="476.1333333333333" type="line"/>
      <point x="800.7666666666667" y="476.1333333333333" type="line"/>
      <point x="800.7666666666667" y="461.1333333333333" type="line"/>
    </contour>
    <contour>
      <point x="22.5" y="0.0" type="line"/>
      <point x="18.03333333333333" y="0.0" type="line"/>
      <point x="804.7" y="1442.8" type="line"/>
      <point x="804.7" y="0.0" type="line"/>
      <point x="1391.3333333333335" y="0.0" type="line"/>
      <point x="1391.3333333333335" y="48.03333333333333" type="line"/>
      <point x="841.9666666666667" y="48.03333333333333" type="line"/>
      <point x="841.9666666666667" y="727.1666666666666" type="line"/>
      <point x="1283.6" y="727.1666666666666" type="line"/>
      <point x="1283.6" y="774.8333333333334" type="line"/>
      <point x="841.9666666666667" y="774.8333333333334" type="line"/>
      <point x="841.9666666666667" y="1407.9666666666667" type="line"/>
      <point x="1381.3333333333335" y="1407.9666666666667" type="line"/>
      <point x="1381.3333333333335" y="1456.0" type="line"/>
      <point x="776.5666666666666" y="1456.0" type="line"/>
    </contour>
  </outline>
</glyph>
<glyph name="multiply" format="2">
  <advance width="901"/>
  <unicode hex="00D7"/>
  <outline>
    <contour>
      <point x="209.36666666666667" y="334.4666666666667" type="line"/>
      <point x="736.0666666666666" y="960.9" type="line"/>
      <point x="695.4333333333334" y="999.3666666666667" type="line"/>
      <point x="168.73333333333335" y="373.3666666666667" type="line"/>
    </contour>
    <contour>
      <point x="720.4" y="312.9666666666667" type="line"/>
      <point x="756.2666666666667" y="348.53333333333336" type="line"/>
      <point x="183.23333333333335" y="1020.8666666666667" type="line"/>
      <point x="145.93333333333334" y="987.1666666666666" type="line"/>
    </contour>
  </outline>
</glyph>
<glyph name="Thorn" format="2">
  <advance width="886"/>
  <unicode hex="00DE"/>
  <guideline x="0" y="901.0" angle="0" identifier="i9jYwjBDP4"/>
  <guideline x="0" y="555.0" angle="0" identifier="T8KKW8oxop"/>
  <outline>
    <contour>
      <point x="170.0" y="1456.0" type="line"/>
      <point x="170.0" y="0.0" type="line"/>
      <point x="217.76666666666668" y="0.0" type="line"/>
      <point x="217.76666666666668" y="310.8" type="line"/>
      <point x="478.33333333333337" y="310.8" type="line" smooth="yes"/>
      <point x="709" y="312"/>
      <point x="808" y="467"/>
      <point x="808.4666666666667" y="745.5" type="curve" smooth="yes"/>
      <point x="808" y="1022"/>
      <point x="711" y="1169"/>
      <point x="478.33333333333337" y="1169.4333333333334" type="curve" smooth="yes"/>
      <point x="216.70000000000002" y="1169.4333333333334" type="line"/>
      <point x="216.70000000000002" y="1456.0" type="line"/>
    </contour>
    <contour>
      <point x="478.33333333333337" y="1110.9" type="line" smooth="yes"/>
      <point x="703" y="1109"/>
      <point x="759" y="943"/>
      <point x="759.2666666666667" y="748.5" type="curve" smooth="yes"/>
      <point x="759" y="553"/>
      <point x="703" y="370"/>
      <point x="478.33333333333337" y="370.4" type="curve" smooth="yes"/>
      <point x="217.76666666666668" y="370.4" type="line"/>
      <point x="217.76666666666668" y="1110.9" type="line"/>
    </contour>
  </outline>
</glyph>
<glyph name="germandbls" format="2">
  <advance width="1177"/>
  <unicode hex="00DF"/>
  <outline>
    <contour>
      <point x="298.0" y="1092.0" type="line" name="hr00"/>
      <point x="298" y="1338"/>
      <point x="399" y="1482"/>
      <point x="579.6666666666666" y="1481.9" type="curve" smooth="yes"/>
      <point x="745" y="1482"/>
      <point x="807" y="1378"/>
      <point x="806.6666666666666" y="1212.6" type="curve" smooth="yes"/>
      <point x="807" y="1160"/>
      <point x="785" y="1087"/>
      <point x="724.6666666666666" y="1004.5" type="curve" smooth="yes"/>
      <point x="682" y="946"/>
      <point x="635" y="889"/>
      <point x="634.6666666666666" y="799.8666666666667" type="curve" smooth="yes"/>
      <point x="635" y="684"/>
      <point x="750" y="599"/>
      <point x="848.7333333333333" y="526.3333333333334" type="curve" smooth="yes"/>
      <point x="981" y="428"/>
      <point x="992" y="352"/>
      <point x="992.0" y="302.0" type="curve" smooth="yes"/>
      <point x="992" y="131"/>
      <point x="906" y="32"/>
      <point x="755.0" y="32.099999999999994" type="curve" smooth="yes"/>
      <point x="632" y="32"/>
      <point x="555" y="132"/>
      <point x="554.6666666666666" y="283.53333333333336" type="curve" smooth="yes"/>
      <point x="554.6666666666666" y="304.0" type="line"/>
      <point x="492.0" y="304.0" type="line"/>
      <point x="492.0" y="289.46666666666664" type="line" smooth="yes"/>
      <point x="492" y="107"/>
      <point x="573" y="-20"/>
      <point x="753.0" y="-20.0" type="curve" smooth="yes"/>
      <point x="975" y="-20"/>
      <point x="1041" y="84"/>
      <point x="1040.8666666666668" y="282.0" type="curve" smooth="yes"/>
      <point x="1041" y="405"/>
      <point x="1005" y="473"/>
      <point x="865.7333333333333" y="577.4333333333333" type="curve" smooth="yes"/>
      <point x="755" y="659"/>
      <point x="678" y="744"/>
      <point x="677.7666666666667" y="802.7666666666667" type="curve" smooth="yes"/>
      <point x="678" y="849"/>
      <point x="734" y="928"/>
      <point x="774.9" y="978.7333333333333" type="curve" smooth="yes"/>
      <point x="836" y="1057"/>
      <point x="856" y="1151"/>
      <point x="855.5333333333333" y="1215.0" type="curve" smooth="yes"/>
      <point x="856" y="1426"/>
      <point x="778" y="1534"/>
      <point x="583.6666666666666" y="1534.0" type="curve" smooth="yes"/>
      <point x="373" y="1534"/>
      <point x="256" y="1383"/>
      <point x="255.5" y="1092.0" type="curve" smooth="yes"/>
      <point x="255.5" y="0.0" type="line"/>
      <point x="298.0" y="0.0" type="line"/>
    </contour>
  </outline>
</glyph>
<glyph name="ae" format="2">
  <advance width="1212"/>
  <unicode hex="00E6"/>
  <outline>
    <contour>
      <point x="127.0" y="268.5" type="curve" smooth="yes"/>
      <point x="127" y="456"/>
      <point x="218" y="528"/>
      <point x="384.6333333333333" y="528.1666666666666" type="curve" smooth="yes"/>
      <point x="580.5" y="528.1666666666666" type="line"/>
      <point x="580.5" y="308.2" type="line"/>
      <point x="580" y="139"/>
      <point x="449" y="28"/>
      <point x="317.43333333333334" y="27.700000000000003" type="curve" smooth="yes"/>
      <point x="191" y="28"/>
      <point x="127" y="99"/>
    </contour>
    <contour>
      <point x="90.0" y="294.2" type="curve" smooth="yes"/>
      <point x="90" y="58"/>
      <point x="171" y="-20"/>
      <point x="314.6333333333333" y="-20.0" type="curve" smooth="yes"/>
      <point x="403" y="-20"/>
      <point x="524" y="39"/>
      <point x="633.9333333333334" y="187.63333333333333" type="curve"/>
      <point x="693" y="68"/>
      <point x="764" y="-30"/>
      <point x="917.8666666666667" y="-30.0" type="curve" smooth="yes"/>
      <point x="1032" y="-30"/>
      <point x="1111" y="25"/>
      <point x="1167.1" y="133.7" type="curve"/>
      <point x="1119.9333333333334" y="154.3" type="line"/>
      <point x="1064" y="68"/>
      <point x="1014" y="19"/>
      <point x="907.2" y="18.83333333333333" type="curve" smooth="yes"/>
      <point x="706" y="19"/>
      <point x="628" y="182"/>
      <point x="627.5" y="478.0" type="curve" smooth="yes"/>
      <point x="627.5" y="574.0" type="line" smooth="yes"/>
      <point x="628" y="883"/>
      <point x="716" y="1033"/>
      <point x="895.2" y="1033.1666666666667" type="curve" smooth="yes"/>
      <point x="1046" y="1033"/>
      <point x="1123" y="888"/>
      <point x="1120.7333333333333" y="584.7333333333333" type="curve"/>
      <point x="1122.2333333333333" y="581.1333333333333" type="line"/>
      <point x="595.9666666666667" y="581.1333333333333" type="line"/>
      <point x="595.9666666666667" y="534.8666666666667" type="line"/>
      <point x="1159.8" y="534.8666666666667" type="line"/>
      <point x="1159.8" y="560.0" type="line" smooth="yes"/>
      <point x="1160" y="933"/>
      <point x="1064" y="1082"/>
      <point x="890.7" y="1082.0" type="curve" smooth="yes"/>
      <point x="849" y="1082"/>
      <point x="745" y="1077"/>
      <point x="611.4666666666667" y="954.4333333333333" type="curve"/>
      <point x="515" y="1098"/>
      <point x="429" y="1082"/>
      <point x="390.0" y="1082.0" type="curve" smooth="yes"/>
      <point x="231" y="1082"/>
      <point x="152" y="958"/>
      <point x="152.06666666666666" y="770.0" type="curve" smooth="yes"/>
      <point x="152.06666666666666" y="765.0" type="line"/>
      <point x="185.2" y="765.0" type="line"/>
      <point x="185.2" y="770.0" type="line" smooth="yes"/>
      <point x="185" y="912"/>
      <point x="242" y="1034"/>
      <point x="384.6333333333333" y="1034.3" type="curve" smooth="yes"/>
      <point x="529" y="1034"/>
      <point x="580" y="910"/>
      <point x="580.5" y="720.0" type="curve" smooth="yes"/>
      <point x="580.5" y="577.0666666666666" type="line"/>
      <point x="366.4" y="577.0666666666666" type="line" smooth="yes"/>
      <point x="189" y="577"/>
      <point x="90" y="475"/>
    </contour>
  </outline>
</glyph>
<glyph name="eth" format="2">
  <advance width="798"/>
  <unicode hex="00F0"/>
  <outline>
    <contour>
      <point x="159.86666666666667" y="1547.0666666666666" type="line"/>
      <point x="587.5946666666666" y="1432.2286666666669"/>
      <point x="670.0" y="1110.3873333333333"/>
      <point x="670.0" y="635.0" type="curve" smooth="yes"/>
      <point x="670.0" y="535.0" type="line" smooth="yes"/>
      <point x="670.0" y="239.21733333333327"/>
      <point x="584.3153333333335" y="16.733333333333334"/>
      <point x="407.0333333333333" y="16.733333333333334" type="curve" smooth="yes"/>
      <point x="221.93466666666663" y="16.733333333333334"/>
      <point x="126.63333333333333" y="199.464"/>
      <point x="126.63333333333333" y="468.0" type="curve" smooth="yes"/>
      <point x="126.63333333333333" y="730.0146666666667"/>
      <point x="212.55733333333333" y="929.1666666666666"/>
      <point x="377.4666666666667" y="929.1666666666666" type="curve" smooth="yes"/>
      <point x="479.262" y="929.1666666666666"/>
      <point x="655.5666666666666" y="828.8913333333334"/>
      <point x="655.5666666666666" y="614.0" type="curve"/>
      <point x="721.7" y="613.0" type="line"/>
      <point x="721.7" y="793.9"/>
      <point x="607.2266666666667" y="978.0"/>
      <point x="380.76666666666665" y="978.0" type="curve" smooth="yes"/>
      <point x="177.84599999999998" y="978.0"/>
      <point x="85.0" y="762.7553333333334"/>
      <point x="85.0" y="468.0" type="curve" smooth="yes"/>
      <point x="85.0" y="176.7733333333333"/>
      <point x="186.93599999999998" y="-20.0"/>
      <point x="403.0333333333333" y="-20.0" type="curve" smooth="yes"/>
      <point x="616.0933333333332" y="-20.0"/>
      <point x="713.0666666666666" y="213.04266666666666"/>
      <point x="713.0666666666666" y="535.0" type="curve"/>
      <point x="713.0666666666666" y="633.0" type="line"/>
      <point x="713.0666666666666" y="1145.4606666666666"/>
      <point x="578.2946666666667" y="1467.0106666666668"/>
      <point x="170.66666666666669" y="1581.0" type="curve"/>
    </contour>
    <contour>
      <point x="605.3" y="1427.0" type="line"/>
      <point x="576.7666666666667" y="1471.4666666666667" type="line"/>
      <point x="229.56666666666666" y="1162.3666666666666" type="line"/>
      <point x="259.5333333333333" y="1118.3333333333333" type="line"/>
    </contour>
  </outline>
</glyph>
<glyph name="divide" format="2">
  <advance width="917"/>
  <unicode hex="00F7"/>
  <outline>
    <contour>
      <point x="400.03333333333336" y="1001.9333333333333" type="curve" smooth="yes"/>
      <point x="400.03333333333336" y="970.086"/>
      <point x="420.68266666666665" y="945.0"/>
      <point x="457.6666666666667" y="945.0" type="curve" smooth="yes"/>
      <point x="497.152" y="945.0"/>
      <point x="516.3" y="970.086"/>
      <point x="516.3" y="1001.9333333333333" type="curve" smooth="yes"/>
      <point x="516.3" y="1032.6193333333333"/>
      <point x="497.152" y="1059.0"/>
      <point x="457.6666666666667" y="1059.0" type="curve" smooth="yes"/>
      <point x="420.68266666666665" y="1059.0"/>
      <point x="400.03333333333336" y="1032.6193333333333"/>
    </contour>
    <contour>
      <point x="400.03333333333336" y="353.93333333333334" type="curve" smooth="yes"/>
      <point x="400.03333333333336" y="322.086"/>
      <point x="420.68266666666665" y="297.43333333333334"/>
      <point x="457.6666666666667" y="297.43333333333334" type="curve" smooth="yes"/>
      <point x="497.152" y="297.43333333333334"/>
      <point x="516.3" y="322.086"/>
      <point x="516.3" y="353.93333333333334" type="curve" smooth="yes"/>
      <point x="516.3" y="385.2"/>
      <point x="497.152" y="411.0"/>
      <point x="457.6666666666667" y="411.0" type="curve" smooth="yes"/>
      <point x="420.68266666666665" y="411.0"/>
      <point x="400.03333333333336" y="385.2"/>
    </contour>
    <contour>
      <point x="57.0" y="659.6666666666666" type="line"/>
      <point x="860.3333333333334" y="659.6666666666666" type="line"/>
      <point x="860.3333333333334" y="704.9333333333333" type="line"/>
      <point x="57.0" y="704.9333333333333" type="line"/>
    </contour>
  </outline>
</glyph>
<glyph name="thorn" format="2">
  <advance width="828"/>
  <unicode hex="00FE"/>
  <outline>
    <contour>
      <point x="159.46666666666667" y="-416.0" type="line"/>
      <point x="197.96666666666667" y="-416.0" type="line"/>
      <point x="185.96666666666667" y="118.2" type="line"/>
      <point x="179.96666666666664" y="118.2" type="line"/>
      <point x="249.91466666666668" y="27.70533333333333"/>
      <point x="340.87399999999997" y="-20.0"/>
      <point x="457.76666666666665" y="-20.0" type="curve" smooth="yes"/>
      <point x="644.0266666666666" y="-20.0"/>
      <point x="742.8666666666667" y="201.79999999999995"/>
      <point x="742.8666666666667" y="510.0" type="curve" smooth="yes"/>
      <point x="742.8666666666667" y="542.0" type="line" smooth="yes"/>
      <point x="742.8666666666667" y="850.2"/>
      <point x="644.0266666666666" y="1072.0"/>
      <point x="457.76666666666665" y="1072.0" type="curve" smooth="yes"/>
      <point x="340.87399999999997" y="1072.0"/>
      <point x="222.34733333333332" y="986.2073333333333"/>
      <point x="179.33333333333334" y="904.3333333333334" type="curve"/>
      <point x="179.33333333333334" y="1536.0" type="line"/>
      <point x="159.46666666666667" y="1536.0" type="line"/>
    </contour>
    <contour>
      <point x="196.46666666666667" y="183.3" type="curve"/>
      <point x="196.46666666666667" y="866.5666666666666" type="line"/>
      <point x="232.33399999999997" y="943.2593333333333"/>
      <point x="322.51733333333334" y="1023.1666666666666"/>
      <point x="448.56666666666666" y="1023.1666666666666" type="curve" smooth="yes"/>
      <point x="622.1413333333334" y="1023.1666666666666"/>
      <point x="704.7333333333333" y="846.9580000000001"/>
      <point x="704.7333333333333" y="574.0" type="curve" smooth="yes"/>
      <point x="704.7333333333333" y="478.0" type="line" smooth="yes"/>
      <point x="704.7333333333333" y="205.04199999999997"/>
      <point x="619.6666666666666" y="28.83333333333333"/>
      <point x="443.23333333333335" y="28.83333333333333" type="curve" smooth="yes"/>
      <point x="307.17866666666663" y="28.83333333333333"/>
      <point x="228.046" y="118.04200000000002"/>
    </contour>
  </outline>
</glyph>
<glyph name="kgreenlandic" format="2">
  <advance width="724"/>
  <unicode hex="0138"/>
  <outline>
    <contour>
      <point x="185.6" y="1007.0" type="line"/>
      <point x="144.96666666666667" y="1007.0" type="line"/>
      <point x="144.96666666666667" y="0.0" type="line"/>
      <point x="185.6" y="0.0" type="line"/>
    </contour>
    <contour>
      <point x="645.2666666666667" y="1007.0" type="line"/>
      <point x="603.9333333333334" y="1007.0" type="line"/>
      <point x="321.6333333333333" y="565.2666666666667" type="line"/>
      <point x="179.76666666666665" y="565.2666666666667" type="line"/>
      <point x="179.76666666666665" y="529.3333333333334" type="line"/>
      <point x="330.0" y="529.3333333333334" type="line"/>
    </contour>
    <contour>
      <point x="684.2666666666667" y="0.0" type="line"/>
      <point x="739.8666666666667" y="0.0" type="line"/>
      <point x="342.1" y="576.7" type="line"/>
      <point x="324.1" y="530.1333333333333" type="line"/>
    </contour>
  </outline>
</glyph>
<glyph name="OE" format="2">
  <advance width="1491"/>
  <unicode hex="0152"/>
  <outline>
    <contour>
      <point x="550.9" y="1489.9" type="curve" smooth="yes"/>
      <point x="245.514" y="1489.9"/>
      <point x="115.0" y="1223.523333333333"/>
      <point x="115.0" y="767.7" type="curve" smooth="yes"/>
      <point x="115.0" y="689.1666666666666" type="line" smooth="yes"/>
      <point x="115.0" y="238.5693333333333"/>
      <point x="237.73133333333334" y="-33.9"/>
      <point x="568.6666666666666" y="-33.9" type="curve" smooth="yes"/>
      <point x="676.2686666666667" y="-33.9"/>
      <point x="757.5853333333333" y="-18.983333333333334"/>
      <point x="832.0" y="0.0" type="curve"/>
      <point x="1424.6" y="0.0" type="line"/>
      <point x="1424.6" y="49.53333333333333" type="line"/>
      <point x="887.2333333333333" y="49.53333333333333" type="line"/>
      <point x="887.2333333333333" y="725.6666666666666" type="line"/>
      <point x="1316.8666666666668" y="725.6666666666666" type="line"/>
      <point x="1316.8666666666668" y="774.8333333333334" type="line"/>
      <point x="887.2333333333333" y="774.8333333333334" type="line"/>
      <point x="887.2333333333333" y="1407.9666666666667" type="line"/>
      <point x="1414.6" y="1407.9666666666667" type="line"/>
      <point x="1414.6" y="1456.0" type="line"/>
      <point x="875.0" y="1456.0" type="line"/>
      <point x="796.744" y="1470.561333333333"/>
      <point x="691.1533333333333" y="1489.9"/>
    </contour>
    <contour>
      <point x="150.26666666666668" y="689.1666666666666" type="curve" smooth="yes"/>
      <point x="150.26666666666668" y="766.8333333333334" type="line" smooth="yes"/>
      <point x="150.26666666666668" y="1192.462"/>
      <point x="267.8113333333333" y="1432.5"/>
      <point x="549.1666666666666" y="1432.5" type="curve" smooth="yes"/>
      <point x="659.3146666666667" y="1432.5"/>
      <point x="737.6113333333333" y="1424.0706666666665"/>
      <point x="851.4666666666667" y="1403.1666666666667" type="curve"/>
      <point x="851.4666666666667" y="57.0" type="line"/>
      <point x="712.1959999999999" y="35.51533333333333"/>
      <point x="649.8633333333333" y="24.799999999999997"/>
      <point x="550.0333333333333" y="24.799999999999997" type="curve" smooth="yes"/>
      <point x="265.77466666666663" y="24.799999999999997"/>
      <point x="150.26666666666668" y="268.18333333333334"/>
    </contour>
  </outline>
</glyph>
<glyph name="oe" format="2">
  <advance width="1305"/>
  <unicode hex="0153"/>
  <outline>
    <contour>
      <point x="121.69999999999999" y="574.0" type="line" smooth="yes"/>
      <point x="121.69999999999999" y="850.9780000000001"/>
      <point x="208.4473333333333" y="1033.1666666666667"/>
      <point x="399.93333333333334" y="1033.1666666666667" type="curve" smooth="yes"/>
      <point x="591.4193333333334" y="1033.1666666666667"/>
      <point x="679.2333333333333" y="856.1146666666666"/>
      <point x="679.2333333333333" y="574.0" type="curve" smooth="yes"/>
      <point x="679.2333333333333" y="478.0" type="line" smooth="yes"/>
      <point x="679.2333333333333" y="203.03199999999998"/>
      <point x="582.8433333333335" y="18.83333333333333"/>
      <point x="399.93333333333334" y="18.83333333333333" type="curve" smooth="yes"/>
      <point x="217.0233333333333" y="18.83333333333333"/>
      <point x="121.69999999999999" y="201.022"/>
      <point x="121.69999999999999" y="478.0" type="curve" smooth="yes"/>
    </contour>
    <contour>
      <point x="702.2333333333333" y="825.8666666666667" type="curve"/>
      <point x="569.216" y="1079.3053333333332"/>
      <point x="452.46066666666667" y="1083.5"/>
      <point x="417.93333333333334" y="1083.5" type="curve" smooth="yes"/>
      <point x="203.53333333333333" y="1083.5"/>
      <point x="85.0" y="889.5066666666667"/>
      <point x="85.0" y="542.0" type="curve" smooth="yes"/>
      <point x="85.0" y="510.0" type="line" smooth="yes"/>
      <point x="85.0" y="162.49333333333328"/>
      <point x="192.34333333333333" y="-30.0"/>
      <point x="444.93333333333334" y="-30.0" type="curve" smooth="yes"/>
      <point x="461.37066666666675" y="-30.0"/>
      <point x="585.374" y="9.884666666666647"/>
      <point x="697.8" y="225.13333333333333" type="curve"/>
      <point x="806.8760000000001" y="11.894666666666666"/>
      <point x="925.8373333333334" y="-30.0"/>
      <point x="974.1666666666666" y="-30.0" type="curve" smooth="yes"/>
      <point x="1130.7233333333334" y="-30.0"/>
      <point x="1198.4413333333332" y="25.249333333333325"/>
      <point x="1254.9" y="133.7" type="curve"/>
      <point x="1207.7333333333333" y="154.3" type="line"/>
      <point x="1151.6766666666667" y="67.64666666666666"/>
      <point x="1116.7533333333336" y="18.83333333333333"/>
      <point x="1010.0" y="18.83333333333333" type="curve" smooth="yes"/>
      <point x="808.866" y="18.83333333333333"/>
      <point x="715.3" y="183.9593333333333"/>
      <point x="715.3" y="478.0" type="curve" smooth="yes"/>
      <point x="715.3" y="574.0" type="line" smooth="yes"/>
      <point x="715.3" y="881.396"/>
      <point x="809.5413333333333" y="1033.1666666666667"/>
      <point x="966.5" y="1033.1666666666667" type="curve" smooth="yes"/>
      <point x="1139.7173333333333" y="1033.1666666666667"/>
      <point x="1210.5433333333333" y="887.7073333333334"/>
      <point x="1208.5333333333333" y="584.7333333333333" type="curve"/>
      <point x="1210.0333333333333" y="581.1333333333333" type="line"/>
      <point x="683.7666666666667" y="581.1333333333333" type="line"/>
      <point x="683.7666666666667" y="534.8666666666667" type="line"/>
      <point x="1247.6" y="534.8666666666667" type="line"/>
      <point x="1247.6" y="560.0" type="line" smooth="yes"/>
      <point x="1247.6" y="933.2346666666667"/>
      <point x="1165.9973333333332" y="1082.0"/>
      <point x="936.5" y="1082.0" type="curve" smooth="yes"/>
      <point x="906.484" y="1082.0"/>
      <point x="828.0593333333334" y="1069.2553333333333"/>
    </contour>
  </outline>
</glyph>
<glyph name="Schwa" format="2">
  <advance width="1297"/>
  <unicode hex="018F"/>
  <outline>
    <contour>
      <point x="122.76666666666667" y="1166.0333333333333" type="curve"/>
      <point x="157.0" y="1138.9" type="line"/>
      <point x="292.92066666666665" y="1371.8366666666666"/>
      <point x="453.39" y="1461.0"/>
      <point x="584.9333333333333" y="1461.0" type="curve" smooth="yes"/>
      <point x="953.344" y="1461.0"/>
      <point x="1105.1739999999998" y="1216.432"/>
      <point x="1105.9333333333334" y="763.3333333333334" type="curve" smooth="yes"/>
      <point x="1108.6133333333335" y="338.4193333333333"/>
      <point x="947.634" y="35.36666666666667"/>
      <point x="625.9" y="35.36666666666667" type="curve" smooth="yes"/>
      <point x="369.37933333333336" y="35.36666666666667"/>
      <point x="209.13333333333333" y="220.68133333333333"/>
      <point x="209.13333333333333" y="512.5333333333333" type="curve" smooth="yes"/>
      <point x="209.13333333333333" y="591.8333333333334" type="line"/>
      <point x="590.3333333333334" y="606.4333333333334" type="line"/>
      <point x="1078.6666666666667" y="598.4333333333334" type="line"/>
      <point x="1078.6666666666667" y="657.3333333333334" type="line"/>
      <point x="167.93333333333334" y="657.3333333333334" type="line"/>
      <point x="167.93333333333334" y="578.0" type="line" smooth="yes"/>
      <point x="167.93333333333334" y="185.7373333333333"/>
      <point x="326.42733333333337" y="-30.0"/>
      <point x="620.2" y="-30.0" type="curve" smooth="yes"/>
      <point x="974.228" y="-30.0"/>
      <point x="1146.4333333333334" y="303.0713333333333"/>
      <point x="1146.4333333333334" y="789.0" type="curve" smooth="yes"/>
      <point x="1146.4333333333334" y="1224.5893333333333"/>
      <point x="998.2986666666666" y="1519.0"/>
      <point x="594.3333333333334" y="1519.0" type="curve" smooth="yes"/>
      <point x="458.9933333333333" y="1519.0"/>
      <point x="245.466" y="1387.4906666666666"/>
    </contour>
  </outline>
</glyph>
<glyph name="florin" format="2">
  <advance width="478"/>
  <unicode hex="0192"/>
  <outline>
    <contour>
      <point x="321.1333333333333" y="877.7333333333333" type="line"/>
      <point x="146.83333333333331" y="877.7333333333333" type="line"/>
      <point x="146.83333333333331" y="1124.5666666666666" type="line" smooth="yes"/>
      <point x="141.116" y="1336.5546666666667"/>
      <point x="202.288" y="1443.2666666666667"/>
      <point x="349.8666666666667" y="1443.2666666666667" type="curve" smooth="yes"/>
      <point x="367.2866666666667" y="1443.2666666666667"/>
      <point x="379.58599999999996" y="1446.9533333333336"/>
      <point x="402.5" y="1449.6333333333332" type="curve"/>
      <point x="383.16666666666663" y="1500.0333333333333" type="line"/>
      <point x="321.66066666666666" y="1521.786"/>
      <point x="329.73" y="1487.0"/>
      <point x="341.56666666666666" y="1487.0" type="curve" smooth="yes"/>
      <point x="179.2033333333333" y="1487.0"/>
      <point x="99.43333333333334" y="1362.9080000000001"/>
      <point x="99.43333333333334" y="1124.5666666666666" type="curve" smooth="yes"/>
      <point x="99.43333333333334" y="877.7333333333333" type="line"/>
      <point x="-20.066666666666663" y="877.7333333333333" type="line"/>
      <point x="-20.066666666666663" y="834.5666666666666" type="line"/>
      <point x="99.43333333333334" y="834.5666666666666" type="line"/>
      <point x="99.43333333333334" y="111.0" type="line" smooth="yes"/>
      <point x="93.71600000000002" y="-188.53466666666668"/>
      <point x="68.50666666666666" y="-384.3333333333333"/>
      <point x="-124.9" y="-384.3333333333333" type="curve" smooth="yes"/>
      <point x="-143.66" y="-384.3333333333333"/>
      <point x="-202.8" y="-379.37333333333333"/>
      <point x="-222.9" y="-371.3333333333333" type="curve"/>
      <point x="-236.9" y="-420.0" type="line"/>
      <point x="-199.38" y="-433.4"/>
      <point x="-166.44" y="-437.0"/>
      <point x="-124.9" y="-437.0" type="curve" smooth="yes"/>
      <point x="51.89066666666665" y="-437.0"/>
      <point x="146.83333333333331" y="-286.31"/>
      <point x="146.83333333333331" y="111.0" type="curve" smooth="yes"/>
      <point x="146.83333333333331" y="834.5666666666666" type="line"/>
      <point x="321.1333333333333" y="834.5666666666666" type="line"/>
    </contour>
  </outline>
</glyph>
<glyph name="schwa" format="2">
  <advance width="764"/>
  <unicode hex="0259"/>
  <outline>
    <contour>
      <point x="678.9666666666667" y="542.0" type="line" smooth="yes"/>
      <point x="678.9666666666667" y="892.3653333333334"/>
      <point x="551.3233333333334" y="1082.0"/>
      <point x="318.83333333333337" y="1082.0" type="curve" smooth="yes"/>
      <point x="225.92666666666665" y="1082.0"/>
      <point x="142.18666666666667" y="1045.6306666666667"/>
      <point x="60.0" y="930.0333333333333" type="curve"/>
      <point x="95.43333333333334" y="892.3666666666667" type="line"/>
      <point x="172.92999999999998" y="996.172"/>
      <point x="244.95466666666664" y="1028.9"/>
      <point x="318.83333333333337" y="1028.9" type="curve" smooth="yes"/>
      <point x="527.114" y="1028.9"/>
      <point x="633.7333333333333" y="852.344"/>
      <point x="633.7333333333333" y="542.0" type="curve" smooth="yes"/>
      <point x="633.7333333333333" y="510.0" type="line" smooth="yes"/>
      <point x="633.7333333333333" y="197.73533333333336"/>
      <point x="526.4146666666667" y="23.099999999999994"/>
      <point x="353.73333333333335" y="23.099999999999994" type="curve" smooth="yes"/>
      <point x="193.37999999999997" y="23.099999999999994"/>
      <point x="99.386" y="143.23666666666662"/>
      <point x="99.96666666666667" y="461.93333333333334" type="curve"/>
      <point x="99.53333333333333" y="468.73333333333335" type="line"/>
      <point x="661.0" y="468.73333333333335" type="line"/>
      <point x="661.0" y="519.2666666666667" type="line"/>
      <point x="53.43333333333333" y="519.2666666666667" type="line"/>
      <point x="53.43333333333333" y="492.0" type="line" smooth="yes"/>
      <point x="53.43333333333333" y="130.2"/>
      <point x="158.468" y="-30.0"/>
      <point x="350.26666666666665" y="-30.0" type="curve" smooth="yes"/>
      <point x="567.838" y="-30.0"/>
      <point x="678.9666666666667" y="159.6346666666666"/>
      <point x="678.9666666666667" y="510.0" type="curve" smooth="yes"/>
    </contour>
  </outline>
</glyph>
<glyph name="apostrophemod" format="2">
  <advance width="600"/>
  <unicode hex="02BC"/>
  <outline>
    <contour>
      <point x="265.3666666666667" y="1169.5" type="curve"/>
      <point x="272.5333333333333" y="1162.0666666666666" type="line"/>
      <point x="344.08933333333334" y="1209.8600000000001"/>
      <point x="404.6666666666667" y="1354.6306666666665"/>
      <point x="404.6666666666667" y="1448.9666666666667" type="curve" smooth="yes"/>
      <point x="404.6666666666667" y="1506.0506666666665"/>
      <point x="367.7133333333333" y="1546.0"/>
      <point x="327.06666666666666" y="1546.0" type="curve" smooth="yes"/>
      <point x="286.82199999999995" y="1546.0"/>
      <point x="256.1666666666667" y="1514.8353333333334"/>
      <point x="256.1666666666667" y="1469.7666666666667" type="curve" smooth="yes"/>
      <point x="256.1666666666667" y="1425.2786666666666"/>
      <point x="301.2766666666667" y="1391.6666666666667"/>
      <point x="348.4" y="1391.6666666666667" type="curve"/>
      <point x="330.22066666666666" y="1305.7279999999998"/>
      <point x="303.6013333333333" y="1211.6206666666667"/>
    </contour>
  </outline>
</glyph>
<glyph name="dotaccent" format="2">
  <advance width="1024"/>
  <unicode hex="02D9"/>
  <outline>
    <contour>
      <point x="452.2" y="1285.1" type="curve" smooth="yes"/>
      <point x="452.2" y="1249.1879999999999"/>
      <point x="470.3706666666667" y="1226.0"/>
      <point x="512.0" y="1226.0" type="curve" smooth="yes"/>
      <point x="556.1306666666666" y="1226.0"/>
      <point x="573.2333333333333" y="1249.1879999999999"/>
      <point x="573.2333333333333" y="1285.1" type="curve" smooth="yes"/>
      <point x="573.2333333333333" y="1321.0120000000002"/>
      <point x="556.1306666666666" y="1345.2"/>
      <point x="512.0" y="1345.2" type="curve" smooth="yes"/>
      <point x="470.3706666666667" y="1345.2"/>
      <point x="452.2" y="1321.0120000000002"/>
    </contour>
  </outline>
</glyph>
<glyph name="tilde" format="2">
  <advance width="1024"/>
  <unicode hex="02DC"/>
  <outline>
    <contour>
      <point x="199.0" y="1242.9666666666667" type="curve"/>
      <point x="232.0" y="1204.0" type="line"/>
      <point x="256.12" y="1245.942"/>
      <point x="315.02" y="1303.0"/>
      <point x="378.0" y="1303.0" type="curve" smooth="yes"/>
      <point x="416.86" y="1303.0"/>
      <point x="463.44" y="1275.46"/>
      <point x="509.0" y="1250.0" type="curve" smooth="yes"/>
      <point x="550.54" y="1227.22"/>
      <point x="611.492" y="1190.0"/>
      <point x="700.2" y="1190.0" type="curve" smooth="yes"/>
      <point x="786.1833333333334" y="1190.0"/>
      <point x="838.2073333333333" y="1230.3206666666665"/>
      <point x="868.0" y="1304.3333333333333" type="curve"/>
      <point x="832.8666666666667" y="1334.9666666666667" type="line"/>
      <point x="802.0466666666666" y="1286.7266666666667"/>
      <point x="750.6" y="1243.1"/>
      <point x="697.0" y="1243.1" type="curve" smooth="yes"/>
      <point x="646.08" y="1243.1"/>
      <point x="592.56" y="1262.42"/>
      <point x="547.0" y="1291.9" type="curve" smooth="yes"/>
      <point x="497.42" y="1324.0600000000002"/>
      <point x="448.94" y="1355.2333333333333"/>
      <point x="394.0" y="1355.2333333333333" type="curve" smooth="yes"/>
      <point x="304.22" y="1355.2333333333333"/>
      <point x="243.22" y="1327.3866666666668"/>
    </contour>
  </outline>
</glyph>
<glyph name="hungarumlaut" format="2">
  <advance width="1024"/>
  <unicode hex="02DD"/>
  <outline>
    <contour>
      <point x="302.5705882352267" y="1218.3333333333333" type="line"/>
      <point x="319.7901960784567" y="1204.0" type="line"/>
      <point x="625.20130718952" y="1480.4333333333334" type="line"/>
      <point x="562.7627450981066" y="1518.0666666666666" type="line"/>
    </contour>
    <contour>
      <point x="621.39869281048" y="1218.3333333333333" type="line"/>
      <point x="637.5516339869" y="1204.0" type="line"/>
      <point x="944.0294117647734" y="1480.4333333333334" type="line"/>
      <point x="881.5908496732168" y="1518.0666666666666" type="line"/>
    </contour>
  </outline>
</glyph>
<glyph name="dieresisbelowcomb" format="2">
  <advance width="1024"/>
  <unicode hex="0324"/>
  <outline>
    <contour>
      <point x="354.66666666666663" y="-267.5" type="curve" smooth="yes"/>
      <point x="354.66666666666663" y="-287.91266666666667"/>
      <point x="366.52333333333337" y="-317.8666666666667"/>
      <point x="408.73333333333335" y="-317.8666666666667" type="curve" smooth="yes"/>
      <point x="446.25333333333333" y="-317.8666666666667"/>
      <point x="465.3" y="-281.8826666666667"/>
      <point x="465.3" y="-267.5" type="curve" smooth="yes"/>
      <point x="465.3" y="-244.22866666666664"/>
      <point x="454.29333333333335" y="-214.0"/>
      <point x="408.73333333333335" y="-214.0" type="curve" smooth="yes"/>
      <point x="372.55333333333334" y="-214.0"/>
      <point x="354.66666666666663" y="-252.26866666666666"/>
    </contour>
    <contour>
      <point x="656.8333333333334" y="-269.6333333333333" type="curve" smooth="yes"/>
      <point x="656.8333333333334" y="-290.046"/>
      <point x="667.2606666666667" y="-320.0"/>
      <point x="710.9" y="-320.0" type="curve" smooth="yes"/>
      <point x="745.0699999999999" y="-320.0"/>
      <point x="767.4666666666667" y="-284.016"/>
      <point x="767.4666666666667" y="-269.6333333333333" type="curve" smooth="yes"/>
      <point x="767.4666666666667" y="-246.36199999999997"/>
      <point x="753.11" y="-216.13333333333333"/>
      <point x="710.9" y="-216.13333333333333" type="curve" smooth="yes"/>
      <point x="673.2906666666668" y="-216.13333333333333"/>
      <point x="656.8333333333334" y="-254.402"/>
    </contour>
  </outline>
</glyph>
<glyph name="brevebelowcomb" format="2">
  <advance width="1024"/>
  <unicode hex="032E"/>
  <outline>
    <contour>
      <point x="703.4333333333334" y="-191.36666666666667" type="line"/>
      <point x="661.5806666666667" y="-337.784"/>
      <point x="591.9466666666666" y="-419.73333333333335"/>
      <point x="515.5666666666667" y="-419.73333333333335" type="curve" smooth="yes"/>
      <point x="432.26333333333326" y="-419.73333333333335"/>
      <point x="363.59" y="-342.1166666666667"/>
      <point x="323.1666666666667" y="-191.36666666666667" type="curve"/>
      <point x="284.83333333333337" y="-185.96666666666667" type="line"/>
      <point x="313.688" y="-340.64733333333334"/>
      <point x="390.822" y="-463.0"/>
      <point x="515.9333333333333" y="-463.0" type="curve" smooth="yes"/>
      <point x="623.6246666666666" y="-463.0"/>
      <point x="705.7273333333334" y="-348.924"/>
      <point x="742.6666666666666" y="-185.53333333333333" type="curve"/>
    </contour>
  </outline>
</glyph>
<glyph name="numeralsign" format="2">
  <advance width="531"/>
  <unicode hex="0374"/>
  <outline>
    <contour>
      <point x="189.96666666666667" y="1073.0" type="line"/>
      <point x="342.4" y="1537.0" type="line"/>
      <point x="277.8" y="1547.4" type="line"/>
      <point x="171.6" y="1078.6333333333334" type="line"/>
    </contour>
  </outline>
</glyph>
<glyph name="Delta" format="2">
  <advance width="1158"/>
  <unicode hex="0394"/>
  <outline>
    <contour>
      <point x="35.16666666666667" y="0.0" type="line"/>
      <point x="1121.0" y="0.0" type="line"/>
      <point x="1121.0" y="28.16666666666667" type="line"/>
      <point x="635.9" y="1466.0" type="line"/>
      <point x="512.1" y="1466.0" type="line"/>
      <point x="35.16666666666667" y="28.16666666666667" type="line"/>
    </contour>
    <contour>
      <point x="76.10000000000002" y="46.233333333333334" type="line"/>
      <point x="498.76666666666665" y="1286.2666666666667" type="line" smooth="yes"/>
      <point x="523.5120000000001" y="1354.964"/>
      <point x="548.7126666666666" y="1414.8773333333331"/>
      <point x="566.2666666666667" y="1473.0333333333333" type="curve"/>
      <point x="575.5666666666666" y="1473.0333333333333" type="line"/>
      <point x="595.0413333333333" y="1414.8773333333331"/>
      <point x="616.7686666666666" y="1356.8846666666668"/>
      <point x="640.9333333333334" y="1286.2666666666667" type="curve" smooth="yes"/>
      <point x="1064.5333333333333" y="46.233333333333334" type="line"/>
    </contour>
  </outline>
</glyph>
